{"glyphs":{"0":{"ha":848,"x_min":41,"x_max":800,"o":"m 438 901 q 176 507 176 901 q 418 92 176 92 q 662 517 662 92 q 438 901 662 901 m 436 1029 q 800 515 800 1029 q 418 -34 800 -34 q 41 505 41 -34 q 436 1029 41 1029 z "},"1":{"ha":625,"x_min":111,"x_max":548,"o":"m 408 954 q 404 92 408 954 q 478 92 441 92 q 548 28 548 92 q 480 -33 548 -33 l 172 -33 q 111 24 111 -33 q 179 92 112 92 q 280 92 229 92 l 281 812 l 231 764 q 123 762 167 703 q 136 855 87 810 l 271 982 q 372 1023 326 1034 q 408 954 409 1015 z "},"2":{"ha":848,"x_min":111,"x_max":746,"o":"m 111 61 q 212 340 115 198 q 483 558 304 471 q 603 763 600 614 q 526 887 605 847 q 368 899 450 926 q 243 795 319 883 q 136 774 187 731 q 126 859 88 812 q 260 987 204 954 q 442 1029 332 1029 q 608 991 546 1029 q 736 751 740 909 q 562 463 732 540 q 326 273 408 392 q 244 95 249 161 q 674 94 459 94 q 746 31 747 94 q 675 -33 745 -34 l 178 -33 q 111 61 108 -33 z "},"3":{"ha":848,"x_min":100,"x_max":729,"o":"m 271 549 q 313 606 273 589 q 479 652 342 619 q 587 783 597 682 q 422 905 577 893 q 298 873 352 911 q 186 821 220 817 q 136 874 140 827 q 199 972 132 932 q 406 1034 314 1040 q 661 930 599 1022 q 671 635 766 775 q 555 553 636 585 q 633 513 576 549 q 729 227 756 435 q 484 -22 702 23 q 184 26 301 -59 q 100 153 102 86 q 153 222 98 216 q 251 141 182 224 q 438 102 300 81 q 599 278 608 127 q 382 487 589 452 q 271 549 271 496 z "},"4":{"ha":848,"x_min":33,"x_max":806,"o":"m 462 965 q 585 1027 508 1028 q 654 956 654 1027 l 654 415 q 708 415 681 415 q 806 347 804 415 q 711 281 807 281 l 654 281 l 654 38 q 591 -34 654 -35 q 526 39 526 -33 q 526 281 526 160 l 96 280 q 33 342 33 280 q 56 408 33 376 l 462 965 m 525 414 q 526 839 525 607 l 237 414 l 525 414 z "},"5":{"ha":848,"x_min":96,"x_max":784,"o":"m 195 1017 l 673 1020 q 747 958 746 1021 q 677 890 747 890 l 264 890 l 237 627 q 456 711 344 711 q 784 377 789 710 q 340 -41 777 -61 q 102 91 178 -33 q 101 178 67 149 q 203 177 162 231 q 366 86 273 86 q 652 375 629 85 q 456 578 668 580 q 286 507 351 578 q 145 424 198 422 q 96 511 89 426 l 138 978 q 195 1017 147 1017 z "},"6":{"ha":848,"x_min":88,"x_max":751,"o":"m 210 797 q 464 1019 307 939 q 572 987 545 1060 q 507 896 587 945 q 371 788 427 846 q 252 600 308 723 q 434 645 298 645 q 751 311 751 646 q 389 -36 751 -33 q 88 283 100 -39 q 210 797 76 601 m 418 508 q 213 296 213 508 q 387 83 213 83 q 621 304 621 83 q 418 508 621 508 z "},"7":{"ha":848,"x_min":49,"x_max":824,"o":"m 134 893 q 49 958 49 893 q 136 1023 49 1023 l 730 1025 q 824 964 820 1025 q 814 920 825 937 q 811 916 812 918 l 334 16 q 225 -33 288 -71 q 203 79 163 4 l 639 893 l 134 893 z "},"8":{"ha":848,"x_min":83,"x_max":763,"o":"m 421 1027 q 714 758 714 1027 q 562 543 714 598 q 763 266 763 488 q 411 -30 763 -30 q 83 235 83 -30 q 252 537 83 472 q 116 754 116 587 q 421 1027 116 1027 m 578 760 q 425 903 576 901 q 250 738 244 904 q 407 606 254 627 q 578 760 581 643 m 216 247 q 444 83 230 73 q 621 266 621 92 q 411 486 623 421 q 216 247 203 400 z "},"9":{"ha":848,"x_min":85,"x_max":763,"o":"m 605 395 q 399 352 544 352 q 85 667 85 352 q 448 1027 85 1036 q 763 618 764 1020 q 719 333 762 452 q 283 -29 620 64 q 180 9 201 -52 q 227 92 158 75 q 465 201 372 127 q 605 395 541 263 m 422 483 q 635 675 651 492 q 444 903 617 896 q 210 668 209 912 q 422 483 210 474 z "}," ":{"ha":415,"x_min":0,"x_max":0,"o":""},"!":{"ha":330,"x_min":73,"x_max":241,"o":"m 136 123 q 157 125 146 125 q 180 122 169 125 q 216 100 201 116 q 239 63 235 83 q 241 41 241 52 q 239 20 241 27 q 214 -22 233 -5 q 169 -43 195 -39 q 157 -44 163 -43 q 121 -35 138 -44 q 85 -2 98 -24 q 73 41 73 18 q 79 73 73 58 q 102 104 87 92 q 136 123 116 117 m 164 1089 q 224 1028 224 1089 l 224 267 q 162 213 224 213 q 159 213 161 213 q 104 271 104 212 l 104 1029 q 104 1031 104 1030 q 161 1089 103 1090 q 164 1089 163 1089 z "},"\"":{"ha":589,"x_min":78,"x_max":465,"o":"m 147 1077 q 207 1010 207 1074 q 207 1006 207 1008 l 198 697 q 141 632 196 632 l 140 632 q 78 694 78 633 q 78 699 78 696 l 87 1002 q 144 1077 90 1077 q 147 1077 146 1077 m 405 1074 q 465 1007 465 1071 q 465 1003 465 1005 l 456 694 q 399 629 454 629 l 397 629 q 336 692 336 630 q 336 696 336 694 l 345 999 q 402 1074 348 1074 q 405 1074 404 1074 z "},"#":{"ha":1171,"x_min":19,"x_max":1158,"o":"m 85 741 q 177 791 86 791 q 366 791 272 791 l 426 996 q 503 1054 448 1072 q 538 945 564 1034 l 492 792 q 829 792 661 792 l 889 996 q 966 1054 911 1072 q 1001 945 1027 1034 l 956 793 l 1080 793 q 1158 736 1160 793 q 1063 671 1155 671 q 920 671 991 671 l 836 390 l 1014 390 q 1092 333 1094 390 q 998 269 1089 269 q 800 269 899 269 l 741 66 q 659 26 722 5 q 635 129 610 42 l 677 269 l 338 270 l 277 66 q 195 26 259 5 q 172 129 147 42 l 214 271 l 81 271 q 19 338 17 271 q 111 389 20 389 l 248 389 l 332 673 l 146 673 q 85 741 83 673 m 373 389 l 712 389 l 794 672 l 457 673 l 373 389 z "},"$":{"ha":963,"x_min":53,"x_max":850,"o":"m 456 1163 q 514 1111 514 1164 l 515 1002 q 524 1002 519 1002 q 755 945 630 1002 q 798 878 798 926 q 758 833 798 850 q 667 842 723 820 q 515 875 583 875 q 515 561 515 718 q 557 558 536 559 q 771 484 715 542 q 850 287 857 396 q 673 22 841 119 q 515 -33 605 -18 l 515 -168 q 456 -245 515 -245 q 398 -167 399 -244 q 397 -43 398 -105 q 397 -43 397 -43 q 194 -10 275 -44 q 102 45 140 12 q 53 147 45 95 q 94 207 60 193 q 193 166 138 225 q 286 102 234 122 q 397 81 342 83 l 396 431 q 117 616 161 434 q 151 825 91 722 q 313 957 194 901 q 395 986 352 975 q 395 1111 395 1048 q 456 1163 395 1162 m 515 428 l 515 98 q 637 154 602 119 q 703 336 728 241 q 515 428 681 414 m 396 568 l 395 856 q 326 820 355 842 q 255 709 262 770 q 353 570 243 587 l 396 568 z "},"%":{"ha":1139,"x_min":105,"x_max":1090,"o":"m 818 1091 q 844 1023 865 1067 l 363 -22 q 282 -53 338 -77 q 253 27 227 -28 l 746 1073 q 818 1091 767 1117 m 239 1099 q 307 1111 272 1111 q 342 1107 326 1111 q 437 1063 397 1097 q 496 979 479 1028 q 509 909 509 945 q 505 876 509 892 q 460 779 496 821 q 372 720 424 737 q 307 709 340 709 q 265 713 286 709 q 170 762 211 724 q 115 848 131 798 q 105 910 106 878 q 109 950 105 930 q 155 1042 120 1004 q 239 1099 191 1082 m 309 808 q 361 823 337 808 q 399 863 385 838 q 411 911 411 886 q 411 916 411 913 q 394 968 410 945 q 366 996 384 984 q 330 1012 349 1008 q 308 1015 319 1015 q 252 998 277 1015 q 211 947 223 980 q 205 911 204 930 q 209 882 205 897 q 246 829 218 849 q 308 808 274 808 l 309 808 m 789 418 q 865 431 825 431 q 905 427 885 431 q 1010 378 966 416 q 1076 283 1057 338 q 1090 205 1090 245 q 1087 168 1090 186 q 1036 60 1076 106 q 937 -7 996 13 q 864 -20 902 -20 q 818 -15 840 -20 q 711 39 757 -2 q 649 136 667 79 q 638 206 638 170 q 643 251 638 229 q 694 353 655 311 q 789 418 734 399 m 866 92 q 925 109 898 92 q 967 153 952 125 q 981 208 981 178 q 981 212 981 210 q 962 271 979 245 q 930 302 951 289 q 890 320 912 315 q 865 323 878 323 q 803 304 831 323 q 757 248 770 283 q 749 208 749 228 q 754 175 749 191 q 796 115 765 138 q 865 92 827 92 l 866 92 z "},"&":{"ha":909,"x_min":83,"x_max":850,"o":"m 850 28 q 831 -52 876 -24 q 745 -27 780 -83 l 618 173 l 551 90 q 328 -26 456 -28 q 83 125 149 -22 q 141 404 19 267 l 333 621 l 290 688 q 245 962 182 857 q 488 1066 315 1076 q 663 937 630 1058 q 585 703 692 825 l 496 601 l 624 395 l 699 491 q 800 510 745 550 q 804 404 857 469 l 699 273 l 850 28 m 422 721 l 495 803 q 533 906 555 871 q 457 941 509 944 q 365 890 382 937 q 388 776 347 841 l 422 721 m 409 501 l 316 396 q 213 212 202 267 q 328 111 230 118 q 486 217 399 106 l 543 290 l 409 501 z "},"'":{"ha":539,"x_min":195,"x_max":319,"o":"m 256 1125 q 319 1053 319 1127 l 319 844 q 261 774 319 774 q 199 843 201 773 l 195 1052 q 256 1125 194 1122 z "},"(":{"ha":509,"x_min":76,"x_max":452,"o":"m 392 -145 q 445 -285 517 -229 q 286 -224 395 -323 q 133 15 178 -125 q 76 427 68 216 q 161 791 83 610 q 296 1006 217 922 q 452 1070 404 1120 q 380 903 503 1016 q 236 604 279 811 q 221 245 199 427 q 392 -145 257 -54 z "},")":{"ha":509,"x_min":98,"x_max":473,"o":"m 157 -145 q 328 245 292 -54 q 313 604 350 427 q 170 903 270 811 q 98 1070 46 1016 q 254 1006 145 1120 q 388 791 332 922 q 473 427 467 610 q 416 15 481 216 q 263 -224 371 -125 q 104 -285 155 -323 q 157 -145 33 -229 z "},"*":{"ha":736,"x_min":50,"x_max":626,"o":"m 338 1080 q 398 1017 398 1079 l 397 862 l 540 913 q 626 880 606 937 q 585 802 646 825 l 446 751 l 552 644 q 550 557 595 600 q 463 560 507 516 l 336 691 l 212 565 q 119 558 162 515 q 123 646 77 599 l 226 751 l 85 802 q 50 880 28 823 q 130 915 72 936 l 277 861 q 277 1020 277 941 q 338 1080 276 1082 z "},"+":{"ha":667,"x_min":36,"x_max":587,"o":"m 319 709 q 377 640 377 708 l 377 500 l 519 500 q 587 440 587 500 q 519 381 587 382 q 377 380 448 380 l 377 216 q 316 157 377 155 q 255 219 254 157 q 256 378 256 298 q 96 377 176 378 q 36 437 35 376 q 98 499 36 499 l 257 500 q 258 641 258 570 q 319 709 258 709 z "},",":{"ha":385,"x_min":149,"x_max":334,"o":"m 311 87 q 334 10 358 62 l 245 -180 q 172 -227 216 -246 q 149 -146 126 -206 l 228 52 q 311 87 254 117 z "},"-":{"ha":578,"x_min":76,"x_max":514,"o":"m 125 420 l 450 422 q 514 370 514 422 q 454 317 514 317 l 121 318 q 76 368 76 318 q 125 420 76 420 z "},".":{"ha":346,"x_min":97,"x_max":266,"o":"m 179 106 q 182 106 180 106 q 224 94 205 106 q 256 60 245 82 q 266 21 266 42 q 266 14 266 18 q 249 -30 264 -10 q 219 -55 235 -47 q 181 -63 202 -64 q 177 -63 179 -63 q 138 -52 156 -62 q 109 -22 120 -41 q 97 21 97 -2 q 108 62 97 43 q 137 94 119 81 q 179 106 156 106 z "},"/":{"ha":711,"x_min":64,"x_max":656,"o":"m 629 1091 q 656 1023 676 1067 l 175 -22 q 94 -54 149 -78 q 64 27 39 -29 l 557 1073 q 629 1091 578 1117 z "},":":{"ha":415,"x_min":116,"x_max":288,"o":"m 201 756 q 203 756 202 756 q 246 745 227 756 q 278 711 267 732 q 288 671 288 692 q 288 665 288 668 q 271 621 286 640 q 241 595 257 603 q 203 587 224 587 q 199 587 201 587 q 160 599 178 588 q 130 629 142 610 q 119 671 119 648 q 130 712 119 693 q 159 744 141 732 q 201 756 178 756 m 198 106 q 201 106 199 106 q 243 94 224 106 q 275 60 264 82 q 285 21 285 42 q 285 14 285 18 q 268 -30 283 -10 q 238 -55 254 -47 q 200 -63 221 -64 q 196 -63 198 -63 q 157 -52 175 -62 q 127 -22 139 -41 q 116 21 116 -2 q 127 62 116 43 q 156 94 138 81 q 198 106 175 106 z "},";":{"ha":415,"x_min":73,"x_max":279,"o":"m 235 87 q 258 10 282 62 l 170 -180 q 96 -227 140 -246 q 73 -146 50 -206 l 152 52 q 235 87 178 117 m 193 757 q 195 757 194 757 q 238 745 218 757 q 270 711 259 733 q 279 672 279 693 q 279 665 279 669 q 262 621 277 641 q 233 596 249 604 q 195 588 216 587 q 191 588 193 588 q 152 600 170 589 q 122 629 134 610 q 111 672 111 649 q 121 713 111 694 q 151 745 133 732 q 193 757 170 757 z "},";":{"ha":415,"x_min":73,"x_max":279,"o":"m 235 87 q 258 10 282 62 l 170 -180 q 96 -227 140 -246 q 73 -146 50 -206 l 152 52 q 235 87 178 117 m 193 757 q 195 757 194 757 q 238 745 218 757 q 270 711 259 733 q 279 672 279 693 q 279 665 279 669 q 262 621 277 641 q 233 596 249 604 q 195 588 216 587 q 191 588 193 588 q 152 600 170 589 q 122 629 134 610 q 111 672 111 649 q 121 713 111 694 q 151 745 133 732 q 193 757 170 757 z "},"<":{"ha":530,"x_min":14,"x_max":406,"o":"m 47 471 l 306 696 q 406 694 364 747 q 382 600 441 650 l 170 419 l 391 236 q 394 151 436 198 q 311 146 357 109 l 52 356 q 14 410 14 387 q 47 471 14 443 z "},"=":{"ha":709,"x_min":61,"x_max":598,"o":"m 126 677 l 521 678 q 598 617 598 678 q 524 555 598 555 l 120 555 q 66 614 66 555 q 126 677 66 677 m 120 309 l 515 311 q 592 250 591 311 q 519 187 592 187 l 115 188 q 61 247 61 188 q 120 309 61 309 z "},">":{"ha":530,"x_min":93,"x_max":486,"o":"m 452 490 q 486 429 485 462 q 448 375 486 406 l 188 165 q 105 170 142 128 q 109 255 62 218 l 329 438 l 117 618 q 93 713 58 669 q 193 715 135 766 l 452 490 z "},"?":{"ha":728,"x_min":79,"x_max":608,"o":"m 235 119 q 256 121 245 122 q 278 119 267 121 q 315 97 299 113 q 337 60 333 80 q 340 37 339 49 q 338 16 340 24 q 313 -26 331 -9 q 267 -46 294 -43 q 256 -47 262 -47 q 219 -39 236 -47 q 183 -5 196 -28 q 172 37 172 14 q 178 70 172 54 q 201 101 185 88 q 235 119 214 114 m 85 908 q 342 1002 165 998 q 608 784 576 1006 q 465 473 646 522 q 338 381 338 438 q 274 243 335 246 q 201 393 182 238 q 357 577 218 534 q 467 760 495 620 q 347 863 449 851 q 199 827 254 875 q 79 780 115 751 q 85 908 16 829 z "},"@":{"ha":1293,"x_min":77,"x_max":1193,"o":"m 867 425 q 922 406 882 399 q 1026 478 985 414 q 1050 604 1050 516 q 1029 726 1050 670 q 962 831 1008 780 q 861 910 920 879 q 629 967 757 967 q 585 965 606 967 q 380 888 461 955 q 308 808 340 855 q 227 607 250 722 q 214 486 214 546 q 222 389 213 436 q 327 174 246 264 q 530 47 411 80 q 635 34 582 34 q 762 54 692 34 q 882 98 796 63 q 991 75 963 132 q 949 -26 1023 13 q 723 -93 869 -68 q 621 -95 712 -95 q 448 -56 549 -95 q 296 31 368 -25 q 104 302 167 134 q 77 516 77 375 q 80 581 77 549 q 130 778 90 684 q 239 943 171 875 q 450 1081 327 1033 q 631 1103 508 1103 q 681 1101 656 1103 q 868 1059 791 1093 q 1015 967 945 1025 q 1169 747 1126 875 q 1193 602 1194 677 q 1168 458 1193 527 q 1092 313 1140 378 q 937 236 1050 256 q 826 264 877 225 q 802 289 813 275 q 670 235 751 245 q 349 450 355 195 q 652 810 340 770 q 742 804 703 817 q 790 827 756 827 q 849 777 854 827 q 867 425 835 595 m 631 677 q 467 467 467 661 q 578 347 467 353 q 738 403 680 341 q 718 674 709 570 q 631 677 675 683 z "},"A":{"ha":1016,"x_min":103,"x_max":905,"o":"m 602 924 l 905 83 q 871 -30 938 -10 q 773 45 806 -49 l 667 340 l 341 340 l 235 45 q 137 -30 202 -48 q 103 83 71 -10 l 405 924 q 504 1037 446 1037 q 602 924 562 1037 m 504 791 l 391 477 l 616 479 l 504 791 z "},"B":{"ha":876,"x_min":133,"x_max":790,"o":"m 286 903 l 277 556 q 564 616 507 531 q 589 798 630 715 q 380 901 539 896 q 286 903 333 902 m 218 1036 q 246 1033 234 1036 q 411 1027 281 1040 q 726 823 663 1003 q 654 526 779 669 q 619 496 640 509 q 684 468 665 482 q 790 142 861 335 q 567 -16 747 28 q 204 -44 382 -61 q 192 -45 199 -45 q 133 29 131 -43 l 155 973 q 218 1036 157 1036 m 275 422 l 267 84 q 401 86 337 79 q 562 126 477 96 q 670 230 657 161 q 605 368 685 315 q 436 419 543 409 q 275 422 336 428 z "},"C":{"ha":837,"x_min":52,"x_max":781,"o":"m 370 844 q 256 716 305 801 q 200 456 200 621 q 264 206 200 305 q 402 124 316 128 q 591 161 525 118 q 726 215 688 223 q 781 111 791 203 q 645 6 776 60 q 412 -34 537 -39 q 151 100 248 -28 q 52 440 52 231 q 143 820 52 690 q 424 1031 276 1007 q 678 996 565 1053 q 767 913 764 951 q 743 838 770 863 q 644 828 695 793 q 537 874 597 860 q 370 844 447 895 z "},"D":{"ha":1002,"x_min":125,"x_max":933,"o":"m 210 1034 q 240 1031 227 1034 q 256 1029 248 1030 q 684 843 499 1001 q 933 366 949 617 q 741 35 923 182 q 414 -36 656 -33 q 208 -35 271 -38 q 184 -37 198 -37 q 125 35 123 -35 l 148 974 q 210 1034 149 1034 m 277 875 l 260 94 l 406 92 q 698 173 629 97 q 796 372 790 275 q 599 733 808 541 q 277 875 457 865 z "},"E":{"ha":867,"x_min":112,"x_max":807,"o":"m 239 1018 l 709 1021 q 807 943 805 1021 q 713 880 809 880 q 265 878 489 879 l 259 635 l 634 637 q 732 559 730 637 q 638 496 734 498 l 256 494 l 247 113 l 667 115 q 765 38 763 116 q 671 -25 767 -24 l 197 -28 q 182 -26 189 -28 q 171 -26 176 -26 q 112 43 110 -25 l 134 960 q 198 1019 136 1018 q 223 1017 212 1019 q 239 1018 231 1018 z "},"F":{"ha":843,"x_min":117,"x_max":812,"o":"m 202 1018 q 228 1015 216 1018 q 243 1017 235 1017 l 714 1019 q 812 942 810 1020 q 718 879 814 880 q 270 876 494 878 l 264 634 l 639 636 q 736 558 734 637 q 643 496 739 496 l 261 494 l 250 40 q 176 -28 250 -29 q 117 41 115 -26 l 140 959 q 202 1018 141 1017 z "},"G":{"ha":944,"x_min":52,"x_max":901,"o":"m 644 187 q 733 376 715 254 l 484 374 q 397 446 399 373 q 495 515 395 513 l 842 520 q 901 453 906 521 q 749 75 880 195 q 412 -33 624 -39 q 151 102 250 -28 q 52 441 52 232 q 155 842 52 690 q 424 1023 257 993 q 707 985 595 1051 q 837 856 819 917 q 812 764 854 794 q 690 814 766 732 q 519 884 629 880 q 377 848 453 887 q 248 717 296 806 q 193 457 193 614 q 254 207 193 286 q 410 111 323 116 q 644 187 555 103 z "},"H":{"ha":1067,"x_min":108,"x_max":982,"o":"m 194 1026 q 263 963 264 1026 l 254 570 l 840 570 l 850 966 q 913 1025 852 1024 q 982 962 983 1025 l 961 37 q 887 -31 960 -33 q 827 39 826 -30 q 837 428 832 233 l 250 428 l 241 38 q 167 -31 240 -32 q 108 39 106 -30 l 130 966 q 194 1026 132 1025 z "},"I":{"ha":759,"x_min":45,"x_max":724,"o":"m 146 1013 l 641 1013 q 724 940 723 1013 q 637 873 726 873 l 433 873 l 414 112 l 631 112 q 715 39 713 112 q 627 -28 716 -28 l 131 -28 q 45 48 45 -28 q 137 112 45 113 l 281 112 l 301 873 l 140 873 q 55 949 55 873 q 146 1013 55 1013 z "},"J":{"ha":924,"x_min":68,"x_max":892,"o":"m 314 1016 l 808 1016 q 892 946 890 1016 q 804 882 893 882 l 646 882 l 646 205 q 393 -39 646 -52 q 68 271 47 -23 q 138 332 72 331 q 204 268 204 331 q 391 95 204 95 q 507 201 507 95 l 507 882 l 308 882 q 222 955 222 882 q 314 1016 222 1016 z "},"K":{"ha":848,"x_min":144,"x_max":821,"o":"m 231 1031 q 300 968 301 1031 l 290 572 l 678 986 q 783 994 732 1044 q 784 895 833 945 l 376 474 l 802 117 q 821 20 865 64 q 709 28 774 -26 l 286 378 l 278 31 q 203 -39 277 -40 q 144 32 142 -37 l 167 971 q 231 1031 168 1030 z "},"L":{"ha":765,"x_min":71,"x_max":736,"o":"m 130 -30 q 71 41 69 -31 l 94 981 q 157 1041 95 1040 q 227 977 228 1041 l 206 110 l 669 120 q 736 50 736 121 q 671 -21 736 -20 l 144 -30 q 130 -30 144 -30 z "},"M":{"ha":1226,"x_min":81,"x_max":1166,"o":"m 591 -13 q 591 -13 591 -13 q 503 98 529 -9 l 358 678 l 216 44 q 121 -22 193 -62 q 81 120 57 14 l 269 919 q 353 1020 290 1010 q 434 956 416 1029 q 600 260 434 956 l 802 922 q 905 1033 837 1035 q 991 918 968 1031 l 1166 70 q 1114 -36 1187 -27 q 1013 73 1036 -45 l 893 687 l 694 106 q 591 -13 652 -18 z "},"N":{"ha":1107,"x_min":88,"x_max":1050,"o":"m 899 224 l 918 981 q 981 1040 920 1038 q 1050 977 1052 1040 l 1029 60 q 955 -7 1028 -10 q 905 16 924 -6 l 237 777 l 222 39 q 148 -28 220 -30 q 88 41 86 -27 l 111 960 q 174 1019 113 1017 q 227 999 210 1019 l 899 224 z "},"O":{"ha":1109,"x_min":78,"x_max":1050,"o":"m 648 890 q 385 793 496 901 q 220 390 220 635 q 296 189 220 267 q 534 97 384 97 q 762 197 679 97 q 914 595 911 376 q 648 890 918 872 m 640 1025 q 1050 596 1051 1021 q 886 125 1050 322 q 534 -43 746 -43 q 176 109 313 -43 q 78 389 78 216 q 255 864 78 658 q 640 1025 397 1028 z "},"P":{"ha":723,"x_min":64,"x_max":658,"o":"m 150 1029 q 178 1027 165 1029 q 355 1029 284 1036 q 658 836 592 1006 q 601 507 724 663 q 243 401 528 417 q 206 402 223 400 l 198 39 q 123 -30 197 -31 q 64 41 62 -28 l 87 970 q 150 1029 88 1029 m 217 893 l 209 530 q 509 608 449 505 q 521 798 567 709 q 312 900 465 901 q 217 893 272 899 z "},"Q":{"ha":1217,"x_min":103,"x_max":1076,"o":"m 665 1021 q 1076 601 1076 1016 q 911 140 1075 343 q 886 114 899 126 l 994 12 q 1020 -97 1061 -52 q 902 -87 970 -151 l 776 29 q 559 -24 679 -24 q 201 126 340 -24 q 103 398 103 231 q 280 863 103 661 q 665 1021 422 1023 m 673 888 q 410 793 521 899 q 245 399 245 637 q 321 202 245 279 q 559 113 409 113 q 667 130 618 113 l 568 220 q 568 342 495 288 q 685 307 614 375 l 786 210 q 787 210 786 210 q 939 600 937 386 q 673 888 943 871 z "},"R":{"ha":873,"x_min":88,"x_max":760,"o":"m 749 14 q 625 62 701 -13 l 290 395 q 268 393 279 394 q 231 394 248 392 l 222 32 q 148 -37 221 -39 q 88 33 87 -36 l 111 966 q 174 1025 113 1025 q 202 1023 190 1025 q 367 1023 281 1030 q 682 826 612 1005 q 621 496 754 644 q 455 418 577 448 l 760 134 q 749 14 838 61 l 749 14 l 749 14 m 241 893 l 233 522 q 538 604 465 498 q 549 800 606 704 q 336 891 496 890 q 241 893 289 892 z "},"S":{"ha":963,"x_min":100,"x_max":898,"o":"m 198 840 q 360 972 243 916 q 571 1016 458 1020 q 741 981 671 1012 q 842 896 840 938 q 806 842 844 861 q 715 856 781 830 q 547 888 620 892 q 373 834 434 882 q 302 723 309 784 q 400 585 291 600 q 605 573 441 578 q 819 498 751 568 q 898 301 904 410 q 721 36 888 133 q 444 -29 610 -28 q 241 4 322 -30 q 149 60 187 26 q 100 149 95 108 q 141 203 106 193 q 237 163 180 214 q 347 108 282 123 q 509 100 435 87 q 685 168 639 123 q 750 350 776 256 q 463 445 723 449 q 164 631 211 441 q 198 840 138 738 z "},"T":{"ha":944,"x_min":79,"x_max":993,"o":"m 171 1017 l 903 1017 q 993 951 991 1017 q 903 888 994 888 l 618 888 l 597 34 q 524 -34 596 -35 q 464 35 463 -33 l 485 887 q 165 886 325 886 q 79 958 79 886 q 171 1017 79 1017 z "},"U":{"ha":1023,"x_min":-398,"x_max":943,"o":"m -398 1356 m 871 1007 q 943 889 946 1006 l 932 505 q 520 -27 918 -28 q 109 517 105 -26 l 111 881 q 180 1016 111 1016 q 247 898 248 1015 l 245 527 q 524 94 242 90 q 794 519 785 98 l 802 903 q 871 1007 804 1008 z "},"V":{"ha":903,"x_min":116,"x_max":770,"o":"m 424 -28 q 340 97 371 -8 l 116 854 q 167 1025 66 1025 q 230 978 216 1025 l 443 220 l 656 978 q 719 1025 670 1025 q 770 854 821 1025 l 547 97 q 462 -28 515 -11 q 424 -28 443 -34 z "},"W":{"ha":1444,"x_min":112,"x_max":1320,"o":"m 974 -37 q 890 89 920 -16 l 716 685 l 543 90 q 458 -37 510 -22 q 420 -37 439 -42 q 336 90 368 -21 l 112 857 q 163 1030 62 1029 q 226 981 212 1030 l 439 214 l 652 981 q 715 1030 666 1029 q 780 981 766 1030 l 993 213 l 1206 981 q 1270 1029 1221 1029 q 1320 856 1370 1029 l 1096 89 q 1012 -37 1063 -22 q 974 -37 993 -43 z "},"X":{"ha":1005,"x_min":83,"x_max":927,"o":"m 130 1016 q 256 955 184 1048 l 505 629 l 754 955 q 880 1016 825 1048 q 903 911 951 975 l 594 512 l 927 77 q 919 -12 967 24 q 817 -7 858 -58 l 505 397 l 193 -7 q 91 -12 152 -59 q 83 77 43 24 l 416 512 l 107 911 q 130 1016 58 975 z "},"Y":{"ha":882,"x_min":31,"x_max":827,"o":"m 794 1015 q 827 929 852 983 l 404 32 q 286 -20 361 -59 q 283 115 231 6 l 391 339 l 31 921 q 52 1011 -2 975 q 153 981 110 1051 l 461 482 l 701 977 q 794 1015 734 1047 z "},"Z":{"ha":963,"x_min":62,"x_max":937,"o":"m 890 842 l 273 115 l 854 113 q 937 36 938 113 q 853 -35 937 -36 l 145 -31 q 62 40 62 -31 q 90 112 62 79 l 724 871 l 145 875 q 62 946 62 876 q 141 1021 62 1021 l 854 1019 q 937 942 938 1019 q 890 842 937 897 z "},"[":{"ha":523,"x_min":119,"x_max":475,"o":"m 392 1029 q 450 962 450 1030 q 376 898 450 898 l 256 897 l 241 -153 q 414 -151 328 -152 q 475 -218 475 -150 q 401 -281 475 -281 q 186 -281 396 -281 q 119 -195 118 -280 l 127 945 q 194 1028 127 1027 l 392 1029 z "},"\\":{"ha":764,"x_min":93,"x_max":684,"o":"m 119 1091 q 191 1073 170 1117 l 684 27 q 655 -53 711 -28 q 574 -22 599 -78 l 93 1023 q 119 1091 73 1067 z "},"]":{"ha":523,"x_min":121,"x_max":477,"o":"m 204 1029 l 402 1028 q 469 945 469 1028 l 477 -195 q 410 -281 478 -279 q 195 -283 196 -284 q 121 -218 121 -283 q 182 -151 121 -150 q 355 -153 269 -151 l 340 897 l 220 898 q 146 962 146 898 q 204 1029 146 1030 z "},"^":{"ha":807,"x_min":153,"x_max":677,"o":"m 415 1117 q 475 1084 444 1118 l 663 877 q 677 789 711 825 q 578 787 625 735 l 415 965 l 254 787 q 153 789 206 735 q 168 877 121 825 l 356 1084 q 415 1117 386 1118 z "},"_":{"ha":871,"x_min":-24,"x_max":897,"o":"m 897 -109 l 897 -234 l -24 -234 l -24 -109 l 897 -109 z "},"`":{"ha":772,"x_min":117,"x_max":376,"o":"m 127 1109 q 216 1102 177 1150 l 357 926 q 376 821 412 857 q 278 848 338 783 l 117 1024 q 127 1109 76 1069 z "},"a":{"ha":711,"x_min":35,"x_max":660,"o":"m 342 -38 q 35 288 37 -39 q 175 616 33 500 q 515 693 338 749 q 576 701 535 710 q 642 595 658 682 q 623 307 627 511 q 660 76 621 144 q 644 -38 718 -23 q 545 34 559 -56 q 342 -38 405 -37 m 420 98 q 505 157 445 107 q 512 558 481 448 q 374 582 446 600 q 294 547 324 570 q 168 300 174 460 q 310 83 170 93 q 420 98 369 79 z "},"b":{"ha":824,"x_min":94,"x_max":761,"o":"m 179 1092 q 248 1025 250 1092 l 241 651 q 279 674 258 663 q 421 709 340 709 q 667 593 568 709 q 761 290 771 472 q 655 56 753 153 q 448 -34 563 -33 q 227 34 330 -35 q 153 -29 221 -31 q 94 45 92 -28 l 117 1029 q 179 1092 118 1092 m 448 98 q 584 170 539 111 q 640 322 638 243 q 582 505 643 439 q 460 577 532 559 q 237 494 349 604 l 231 184 q 448 98 361 87 z "},"c":{"ha":713,"x_min":64,"x_max":648,"o":"m 550 143 q 648 119 610 183 q 612 31 670 81 q 378 -33 538 -33 q 168 49 252 -32 q 64 300 64 149 q 138 574 64 467 q 366 713 228 703 q 513 698 447 720 q 623 628 595 670 q 618 530 664 563 q 520 555 586 507 q 340 583 441 614 q 239 500 284 565 q 185 329 187 425 q 238 163 183 238 q 378 92 288 96 q 550 143 470 89 z "},"d":{"ha":816,"x_min":67,"x_max":749,"o":"m 680 1092 q 749 1025 750 1092 l 728 43 q 654 -29 727 -31 q 595 29 600 -28 q 380 -34 494 -35 q 173 56 263 -33 q 67 290 73 156 q 161 593 61 470 q 407 709 255 709 q 549 674 488 709 q 608 637 581 656 l 617 1029 q 680 1092 618 1090 m 597 182 q 604 481 604 323 q 368 577 484 606 q 244 509 282 556 q 188 322 191 442 q 244 170 186 245 q 380 98 290 109 q 597 182 475 87 z "},"e":{"ha":761,"x_min":60,"x_max":722,"o":"m 176 294 q 245 159 179 217 q 416 93 321 92 q 602 147 554 94 q 676 204 647 198 q 722 184 709 211 q 692 66 754 121 q 408 -29 584 -31 q 181 52 278 -28 q 60 321 60 151 q 136 570 60 460 q 382 715 231 706 q 627 638 538 725 q 707 453 710 557 q 631 359 704 370 l 176 294 m 191 406 l 589 464 q 528 556 579 523 q 401 593 468 594 q 239 510 307 593 q 191 406 210 473 z "},"f":{"ha":706,"x_min":58,"x_max":644,"o":"m 131 516 q 58 583 58 516 q 139 650 59 650 l 245 650 q 315 1004 251 913 q 513 1084 367 1080 q 644 1013 658 1089 q 551 956 633 948 q 394 858 425 968 q 376 650 376 794 l 532 650 q 626 589 622 650 q 541 516 631 516 l 374 516 l 367 37 q 292 -36 366 -37 q 233 38 231 -35 l 241 516 l 131 516 z "},"g":{"ha":737,"x_min":41,"x_max":684,"o":"m 538 407 q 547 489 549 470 q 441 576 543 575 q 280 530 353 576 q 182 321 198 479 q 298 129 163 140 q 502 241 446 117 q 538 407 515 264 m 629 633 q 684 541 691 622 l 632 -44 q 243 -383 600 -409 q 77 -354 120 -374 q 41 -278 29 -331 q 117 -235 54 -219 q 333 -250 244 -265 q 500 -43 483 -224 l 511 69 q 276 -5 454 -22 q 60 420 -24 23 q 387 714 117 686 q 614 634 572 733 q 629 633 621 634 z "},"h":{"ha":802,"x_min":100,"x_max":726,"o":"m 186 1093 q 255 1025 256 1093 l 248 623 q 474 702 333 702 q 726 393 728 701 l 723 49 q 658 -39 722 -33 q 586 37 585 -45 l 588 361 q 479 551 589 542 q 248 435 354 562 l 233 43 q 159 -29 231 -31 q 100 45 98 -28 l 122 1029 q 186 1093 123 1091 z "},"i":{"ha":389,"x_min":125,"x_max":298,"o":"m 212 1018 q 214 1018 213 1018 q 257 1006 237 1018 q 289 972 278 994 q 298 933 298 954 q 298 926 298 930 q 281 882 296 902 q 252 857 268 865 q 214 849 235 848 q 210 849 212 849 q 171 861 189 850 q 141 890 153 871 q 130 933 130 910 q 140 974 130 955 q 170 1006 152 994 q 212 1018 189 1018 m 207 710 q 270 622 271 709 l 260 58 q 195 -34 259 -34 q 125 52 123 -33 l 136 621 q 207 710 138 711 z "},"j":{"ha":560,"x_min":-60,"x_max":444,"o":"m 357 1023 q 359 1023 358 1023 q 402 1011 382 1023 q 434 977 423 999 q 444 938 444 959 q 444 931 444 935 q 427 887 441 907 q 397 862 413 869 q 359 854 380 853 q 355 854 357 854 q 316 865 334 854 q 286 895 298 876 q 275 938 275 915 q 286 979 275 960 q 315 1010 297 998 q 357 1023 334 1023 m 340 711 q 408 637 410 711 l 397 -157 q 397 -161 397 -159 q 205 -409 397 -409 q 191 -409 198 -409 q -31 -252 34 -402 q -60 -145 -60 -186 q -21 -87 -60 -98 q 10 -83 -4 -83 q 89 -169 71 -83 q 193 -262 109 -262 q 258 -157 256 -262 l 273 637 q 340 711 275 711 z "},"k":{"ha":750,"x_min":112,"x_max":713,"o":"m 198 1092 q 267 1025 269 1092 l 254 425 l 564 709 q 681 727 637 776 q 670 624 727 674 l 465 439 l 699 117 q 713 0 754 40 q 595 16 650 -63 l 365 348 l 250 244 l 245 43 q 171 -29 244 -31 q 112 45 110 -28 l 134 1029 q 198 1092 136 1090 z "},"l":{"ha":380,"x_min":118,"x_max":273,"o":"m 203 1092 q 273 1025 274 1092 l 252 43 q 178 -29 251 -31 q 118 45 117 -28 l 141 1029 q 203 1092 142 1090 z "},"m":{"ha":1079,"x_min":78,"x_max":1024,"o":"m 157 742 q 227 675 228 742 l 226 647 q 373 702 286 701 q 564 602 514 703 q 772 702 633 703 q 1024 393 1029 701 l 1019 56 q 954 -32 1017 -26 q 882 43 880 -39 l 886 356 q 781 559 888 557 q 612 446 657 563 q 610 405 610 444 l 602 65 q 536 -22 600 -17 q 469 53 467 -28 l 475 364 q 375 561 479 557 q 221 424 258 565 l 210 49 q 137 -24 208 -25 q 78 50 76 -22 l 94 679 q 157 742 95 742 z "},"n":{"ha":727,"x_min":90,"x_max":678,"o":"m 170 742 q 239 675 241 742 q 237 635 238 655 q 427 702 311 702 q 678 393 683 701 l 673 54 q 608 -34 671 -28 q 536 41 534 -41 l 544 363 q 437 558 549 550 q 235 457 342 565 l 224 47 q 149 -26 222 -27 q 90 48 88 -24 l 106 679 q 170 742 107 742 z "},"o":{"ha":730,"x_min":56,"x_max":658,"o":"m 389 573 q 256 511 300 571 q 189 309 189 419 q 237 149 189 202 q 353 95 288 95 q 477 149 427 95 q 532 334 531 207 q 389 573 532 576 m 384 711 q 658 321 659 709 q 585 69 657 155 q 336 -33 503 -35 q 132 67 216 -33 q 56 321 56 157 q 146 595 56 475 q 384 711 236 713 z "},"p":{"ha":743,"x_min":84,"x_max":688,"o":"m 153 -387 q 84 -319 83 -387 l 106 662 q 180 734 107 736 q 232 695 215 734 q 391 720 266 722 q 600 623 511 720 q 688 403 688 529 q 609 121 689 220 q 388 0 519 9 q 227 37 272 -9 q 224 38 226 37 l 216 -323 q 153 -387 215 -387 m 237 548 l 229 197 q 370 129 294 123 q 522 212 471 136 q 568 370 566 277 q 517 523 569 458 q 385 590 472 578 q 237 548 293 602 z "},"q":{"ha":722,"x_min":45,"x_max":635,"o":"m 549 -387 q 479 -319 478 -387 l 486 -14 q 360 -29 457 -30 q 144 62 233 -28 q 45 302 45 160 q 138 593 45 484 q 382 709 236 709 q 503 685 464 709 q 575 734 515 736 q 635 661 636 733 l 612 -323 q 549 -387 610 -387 m 490 146 l 498 538 q 365 579 457 586 q 229 504 281 574 q 170 339 172 426 q 220 180 168 243 q 372 108 275 114 q 490 146 446 103 z "},"r":{"ha":667,"x_min":90,"x_max":622,"o":"m 170 742 q 239 675 239 742 q 239 650 239 663 q 389 709 315 707 q 537 681 479 710 q 622 574 640 629 q 514 541 592 488 q 374 566 453 582 q 234 488 298 551 l 222 43 q 149 -29 220 -31 q 90 45 88 -28 l 106 679 q 170 742 107 742 z "},"s":{"ha":676,"x_min":28,"x_max":622,"o":"m 266 98 q 452 137 418 87 q 422 241 479 180 q 250 300 384 281 q 90 407 111 320 q 100 545 73 475 q 186 664 130 623 q 342 721 254 713 q 515 693 441 730 q 622 584 612 646 q 597 518 628 543 q 479 562 558 486 q 363 597 440 600 q 242 547 281 593 q 222 467 209 509 q 317 421 235 430 q 436 389 381 414 q 540 319 511 354 q 598 151 608 236 q 503 7 587 63 q 323 -39 435 -39 q 168 -23 228 -40 q 79 18 132 -13 q 28 85 31 45 q 57 151 26 130 q 144 142 95 176 q 266 98 203 102 z "},"t":{"ha":654,"x_min":43,"x_max":618,"o":"m 334 1092 q 403 1025 403 1092 q 397 709 401 852 l 534 709 q 618 642 618 710 q 538 572 618 572 q 393 572 466 572 l 382 43 q 308 -29 381 -31 q 248 45 247 -28 l 260 572 q 101 572 180 572 q 43 639 43 572 q 107 707 43 707 q 264 708 185 707 l 271 1029 q 334 1092 273 1092 z "},"u":{"ha":722,"x_min":73,"x_max":662,"o":"m 583 -52 q 514 16 513 -52 l 515 56 q 326 -12 441 -12 q 73 298 71 -11 l 76 631 q 141 718 77 712 q 212 643 213 724 l 210 347 q 260 146 209 182 q 429 148 331 99 q 520 304 517 193 l 528 646 q 602 720 530 720 q 662 645 663 718 l 646 12 q 583 -52 644 -52 z "},"v":{"ha":675,"x_min":56,"x_max":645,"o":"m 81 709 q 179 652 148 738 l 350 176 l 522 652 q 620 709 553 738 q 645 600 677 685 l 431 43 q 351 -31 403 -31 q 269 43 298 -31 l 56 600 q 81 709 23 685 z "},"w":{"ha":950,"x_min":58,"x_max":906,"o":"m 554 621 l 633 150 l 784 621 q 865 709 814 716 q 906 614 935 698 l 710 49 q 625 -34 682 -34 q 539 49 555 -34 l 467 421 l 336 49 q 251 -34 307 -34 q 165 49 181 -34 l 58 614 q 104 709 42 699 q 180 621 164 718 l 260 150 l 410 621 q 485 709 439 709 q 554 621 539 709 z "},"x":{"ha":820,"x_min":81,"x_max":722,"o":"m 81 696 q 194 667 133 737 l 401 429 l 609 667 q 722 696 670 738 q 720 591 777 653 l 487 334 l 702 100 q 715 -18 768 28 q 603 12 667 -60 l 401 237 l 200 12 q 87 -18 136 -60 q 101 100 34 28 l 319 332 l 83 591 q 81 696 26 653 z "},"y":{"ha":723,"x_min":16,"x_max":682,"o":"m 651 698 q 682 590 716 670 l 294 -303 q 188 -387 248 -412 q 163 -250 117 -358 l 298 62 l 16 584 q 33 696 -27 664 q 138 649 96 730 l 366 217 l 551 645 q 651 698 586 725 z "},"z":{"ha":747,"x_min":87,"x_max":707,"o":"m 679 582 l 294 94 l 612 94 q 687 29 689 94 q 607 -31 685 -31 l 155 -31 q 87 21 96 -31 q 123 96 83 45 l 504 575 l 182 575 q 106 650 104 575 q 186 710 109 710 l 638 710 q 707 658 690 710 q 679 582 716 629 z "},"{":{"ha":509,"x_min":3,"x_max":471,"o":"m 143 541 l 141 830 q 373 1099 139 1099 q 471 1042 471 1099 q 363 972 471 964 q 267 826 266 979 l 269 539 q 178 385 270 468 q 269 231 270 302 l 267 13 q 363 -134 266 -135 q 460 -192 460 -132 q 373 -260 460 -260 q 141 9 138 -260 l 143 229 q 68 304 143 261 q 3 385 0 345 q 68 465 0 427 q 143 541 143 509 z "},"|":{"ha":585,"x_min":240,"x_max":361,"o":"m 301 1163 q 359 1111 359 1164 l 361 -168 q 301 -245 361 -245 q 243 -167 244 -244 l 240 1111 q 301 1163 240 1162 z "},"}":{"ha":509,"x_min":5,"x_max":473,"o":"m 332 541 q 408 465 332 509 q 473 385 475 426 q 408 304 475 344 q 332 229 332 261 l 334 9 q 102 -260 337 -260 q 16 -192 17 -260 q 113 -134 14 -132 q 208 13 210 -135 l 206 231 q 298 385 205 301 q 206 539 205 469 l 208 826 q 113 972 210 979 q 5 1042 5 964 q 102 1099 4 1099 q 334 830 336 1099 l 332 541 z "},"~":{"ha":830,"x_min":75,"x_max":775,"o":"m 185 391 q 102 357 156 334 q 75 439 57 378 q 167 577 99 519 q 306 634 235 635 q 440 557 398 633 q 565 461 494 464 q 651 555 619 459 q 718 617 672 619 q 775 524 779 615 q 707 387 772 446 q 572 336 653 337 q 405 423 463 336 q 291 513 336 528 q 185 391 239 496 z "}," ":{"ha":415,"x_min":0,"x_max":0,"o":""},"¡":{"ha":330,"x_min":65,"x_max":233,"o":"m 170 924 q 149 922 160 921 q 127 924 138 922 q 90 946 106 930 q 68 983 72 963 q 65 1006 66 994 q 67 1027 65 1019 q 92 1069 74 1052 q 138 1089 111 1086 q 149 1090 143 1090 q 186 1082 169 1090 q 222 1048 209 1071 q 233 1006 233 1029 q 227 973 233 989 q 204 942 220 955 q 170 924 191 929 m 142 -43 q 82 18 82 -43 l 83 779 q 144 833 83 833 q 147 833 146 833 q 202 775 202 835 l 203 17 q 203 16 203 16 q 145 -43 203 -44 q 142 -43 144 -43 z "},"¢":{"ha":865,"x_min":85,"x_max":746,"o":"m 431 1180 q 485 1105 486 1180 q 484 1002 484 1053 q 566 987 533 1001 q 680 928 654 949 q 719 825 750 870 q 622 815 682 772 q 498 884 531 880 q 484 885 491 884 l 479 315 q 567 347 529 323 q 684 408 660 404 q 746 332 761 417 q 616 233 738 297 q 477 189 547 197 l 477 109 q 422 22 476 21 q 359 110 358 23 q 360 193 359 152 q 149 322 237 218 q 85 593 85 399 q 156 832 85 727 q 369 989 243 960 l 370 1104 q 431 1180 371 1179 m 368 868 q 256 767 296 833 q 199 571 199 673 q 241 406 199 460 q 361 319 292 338 q 368 868 364 593 z "},"£":{"ha":1102,"x_min":28,"x_max":990,"o":"m 208 627 q 303 954 195 810 q 558 1090 399 1082 q 869 985 783 1103 q 902 871 925 909 q 830 833 872 822 q 772 905 810 839 q 572 972 729 979 q 332 702 370 965 q 332 608 327 665 l 707 613 q 779 552 779 614 q 711 493 779 494 q 347 489 530 491 q 383 317 360 414 q 360 97 406 220 q 393 99 380 100 q 557 50 456 94 q 711 20 631 18 q 840 58 800 23 q 872 156 859 75 q 936 203 882 210 q 990 133 996 197 q 917 -34 981 18 q 704 -102 829 -106 q 548 -68 617 -99 q 352 -23 437 -18 q 266 -51 317 -25 q 145 -46 168 -100 q 152 14 130 -11 q 172 36 159 24 q 255 366 304 154 q 229 488 239 433 q 95 487 161 488 q 28 545 26 486 q 98 606 30 606 q 210 607 154 607 q 208 627 209 617 z "},"¤":{"ha":850,"x_min":85,"x_max":756,"o":"m 418 616 q 416 616 417 616 q 367 603 390 616 q 328 566 342 590 q 313 512 313 541 q 324 464 313 485 q 358 426 337 439 q 407 409 378 412 q 416 409 412 408 q 461 418 441 409 q 497 448 482 429 q 519 500 515 471 q 520 512 520 506 q 510 556 520 535 q 473 599 497 583 q 418 616 449 615 m 90 875 q 184 869 140 920 l 308 733 q 312 735 310 734 q 413 758 361 757 q 426 757 419 758 q 528 728 481 754 l 656 869 q 751 875 701 920 q 755 781 801 831 l 623 636 q 630 625 627 631 q 656 513 657 572 q 656 501 656 507 q 621 387 654 439 l 743 251 q 756 140 802 186 q 650 160 709 94 l 526 296 q 508 288 517 292 q 412 269 462 269 q 365 273 389 269 q 310 291 336 279 l 191 160 q 85 140 132 94 q 98 251 39 186 l 210 376 q 172 469 182 418 q 168 511 168 490 q 184 599 168 556 q 208 647 193 625 l 85 781 q 90 875 40 831 z "},"¥":{"ha":883,"x_min":100,"x_max":789,"o":"m 121 979 q 190 960 164 1002 l 445 530 l 700 960 q 769 979 726 1002 q 789 911 814 954 l 536 475 l 637 475 q 713 421 709 475 q 646 363 718 363 l 502 363 l 502 320 l 637 320 q 713 267 709 320 q 646 208 718 208 l 502 208 q 502 24 502 116 q 450 -37 502 -37 q 393 23 393 -38 l 393 208 l 263 208 q 190 262 189 208 q 266 320 191 320 l 393 320 l 393 363 l 263 363 q 190 417 189 363 q 266 475 191 475 l 353 475 l 100 911 q 121 979 76 954 z "},"¦":{"ha":562,"x_min":227,"x_max":329,"o":"m 227 460 q 277 511 227 511 q 328 460 328 511 l 329 26 q 281 -29 329 -29 q 227 26 227 -29 l 227 460 m 227 1099 q 277 1150 227 1150 q 328 1099 328 1150 l 329 665 q 281 610 329 610 q 227 665 227 610 l 227 1099 z "},"§":{"ha":882,"x_min":81,"x_max":747,"o":"m 292 686 q 256 594 247 637 q 347 488 269 524 q 522 436 376 475 q 592 413 562 425 q 610 469 617 450 q 503 579 589 526 q 377 652 404 642 q 298 692 330 672 l 292 686 m 686 347 q 747 173 755 245 q 662 8 736 65 q 425 -51 586 -50 q 222 -18 303 -52 q 130 38 168 5 q 81 130 77 85 q 119 171 85 164 q 204 140 163 181 q 321 72 259 86 q 486 60 423 50 q 608 125 582 75 q 562 291 660 226 q 321 380 507 328 q 153 509 193 416 q 144 677 120 588 q 216 777 159 732 q 178 878 180 832 q 265 1057 174 985 q 418 1114 335 1113 q 598 1085 529 1114 q 690 1029 652 1063 q 739 937 743 983 q 702 897 736 903 q 616 927 659 887 q 522 991 559 979 q 393 986 468 1008 q 309 917 326 966 q 371 797 290 863 q 538 711 418 759 q 707 585 642 670 q 736 412 772 498 q 686 347 724 382 z "},"¨":{"ha":772,"x_min":151,"x_max":656,"o":"m 573 929 q 656 866 656 929 q 572 804 656 804 q 493 864 493 804 q 573 929 493 929 m 231 929 q 314 866 314 929 q 229 804 314 804 q 151 864 151 804 q 231 929 151 929 z "},"©":{"ha":1105,"x_min":67,"x_max":1025,"o":"m 669 543 q 759 532 726 585 q 718 436 784 492 q 554 377 644 372 q 359 475 416 384 q 309 618 309 557 q 357 789 309 722 q 496 886 408 863 q 636 882 576 907 q 748 806 719 847 q 748 723 780 762 q 642 742 713 682 q 524 770 583 791 q 445 705 457 748 q 431 627 430 654 q 457 556 433 589 q 553 493 499 498 q 669 543 600 490 m 549 985 l 548 985 q 374 939 457 985 q 243 814 290 893 q 194 640 196 734 q 194 631 194 635 q 235 464 194 542 q 362 328 283 377 q 541 277 439 279 q 548 276 545 277 q 722 321 641 276 q 854 452 806 368 q 902 631 902 534 q 855 806 902 725 q 727 937 806 891 q 549 985 645 985 m 538 1105 q 546 1105 542 1105 q 768 1050 662 1105 q 947 892 879 994 q 1024 667 1013 790 q 1025 626 1026 647 q 985 433 1025 523 q 915 317 955 368 q 813 228 878 270 q 557 146 697 150 q 547 146 552 146 q 298 216 418 146 q 193 301 237 251 q 117 413 145 355 q 67 626 67 513 q 67 646 67 636 q 135 876 73 776 q 307 1043 201 982 q 538 1105 411 1103 z "},"ª":{"ha":732,"x_min":94,"x_max":593,"o":"m 287 623 q 94 861 102 636 q 168 1086 89 995 q 448 1145 247 1178 q 509 1153 468 1162 q 575 1048 578 1137 q 571 890 572 975 q 593 724 569 764 q 576 610 650 625 q 478 682 492 592 q 287 623 377 616 m 351 764 q 438 804 416 779 l 431 1006 q 330 1026 397 1034 q 236 967 273 1019 q 214 859 208 929 q 258 767 219 785 q 351 764 295 751 z "},"«":{"ha":802,"x_min":14,"x_max":715,"o":"m 355 471 l 614 696 q 715 694 673 747 q 691 600 750 650 l 479 419 l 699 236 q 703 151 745 198 q 620 146 666 109 l 360 356 q 322 410 322 387 q 355 471 323 443 m 47 471 l 306 696 q 406 694 364 747 q 382 600 441 650 l 170 419 l 391 236 q 394 151 436 198 q 311 146 357 109 l 52 356 q 14 410 14 387 q 47 471 14 443 z "},"¬":{"ha":667,"x_min":33,"x_max":621,"o":"m 33 438 q 106 497 33 497 l 526 497 q 620 438 619 497 q 620 435 620 436 q 621 426 621 431 l 621 227 q 567 168 621 169 q 503 225 503 168 l 503 380 l 98 380 q 33 438 34 380 z "},"­":{"ha":578,"x_min":76,"x_max":514,"o":"m 125 420 l 450 422 q 514 370 514 422 q 454 317 514 317 l 121 318 q 76 368 76 318 q 125 420 76 420 z "},"®":{"ha":1105,"x_min":67,"x_max":1025,"o":"m 517 802 l 509 673 q 578 675 558 668 q 611 739 609 687 q 572 795 613 791 l 517 802 m 649 884 q 722 766 713 837 q 720 688 727 718 q 621 597 701 621 l 705 483 q 705 377 760 408 q 609 432 661 353 l 509 587 q 506 587 508 585 l 498 438 q 444 366 494 364 q 385 439 381 367 l 408 848 q 470 911 410 901 q 649 884 587 929 m 538 1105 q 546 1105 542 1105 q 768 1050 662 1105 q 947 892 879 994 q 1024 667 1013 790 q 1025 626 1026 647 q 985 433 1025 523 q 915 317 955 368 q 813 228 878 270 q 557 146 697 150 q 547 146 552 146 q 298 216 418 146 q 193 301 237 251 q 117 413 145 355 q 67 626 67 513 q 67 646 67 636 q 135 876 73 776 q 307 1043 201 982 q 538 1105 411 1103 m 549 985 l 548 985 q 374 939 457 985 q 243 814 290 893 q 194 640 196 734 q 194 631 194 635 q 235 464 194 542 q 362 328 283 377 q 541 277 439 279 q 548 276 545 277 q 722 321 641 276 q 854 452 806 368 q 902 631 902 534 q 855 806 902 725 q 727 937 806 891 q 549 985 645 985 z "},"¯":{"ha":871,"x_min":-24,"x_max":897,"o":"m 897 1280 l 897 1154 l -24 1154 l -24 1280 l 897 1280 z "},"°":{"ha":568,"x_min":46,"x_max":522,"o":"m 170 821 q 215 779 191 792 q 275 763 240 765 q 281 763 278 763 q 339 775 311 763 q 385 810 366 787 q 418 881 412 840 q 419 901 419 890 q 407 958 419 931 q 355 1017 390 996 q 281 1038 321 1038 q 279 1038 280 1038 q 208 1017 240 1038 q 159 962 176 997 q 144 901 144 933 q 144 890 144 895 q 170 821 147 850 m 277 1139 q 283 1139 281 1139 q 408 1104 351 1139 q 498 1004 469 1067 q 522 901 522 955 q 519 870 522 886 q 465 747 509 795 q 400 694 437 715 q 319 666 363 673 q 285 663 302 663 q 157 700 216 663 q 62 815 91 742 q 46 902 46 857 q 54 964 46 934 q 136 1088 75 1040 q 277 1139 198 1137 z "},"±":{"ha":667,"x_min":50,"x_max":601,"o":"m 117 35 l 514 37 q 591 -19 591 37 q 517 -76 591 -76 l 111 -75 q 57 -21 57 -75 q 117 35 58 35 m 332 708 q 391 639 391 707 l 391 499 l 533 500 q 601 439 601 500 q 532 380 601 381 q 391 379 461 380 l 391 216 q 330 156 391 155 q 269 218 267 157 q 270 378 269 298 q 109 376 190 377 q 50 437 48 376 q 111 498 50 498 l 271 499 q 271 640 271 570 q 332 708 271 709 z "},"²":{"ha":904,"x_min":260,"x_max":669,"o":"m 382 715 l 595 720 q 669 671 669 721 q 595 617 669 617 l 336 617 q 260 704 250 617 q 410 892 275 821 q 543 1004 536 960 q 494 1084 553 1063 q 414 1078 452 1099 q 351 1017 380 1058 q 281 997 321 975 q 260 1068 231 1023 q 355 1164 302 1133 q 492 1181 400 1191 q 612 1116 559 1175 q 644 994 651 1073 q 507 821 635 890 q 382 715 384 754 z "},"³":{"ha":904,"x_min":281,"x_max":642,"o":"m 617 994 q 557 882 616 932 q 642 734 642 836 q 566 614 642 657 q 419 580 494 574 q 281 644 278 591 q 371 688 286 712 q 485 690 418 674 q 541 750 545 704 q 467 820 536 819 q 374 873 372 822 q 448 930 377 910 q 514 1010 540 957 q 380 1048 481 1077 q 315 1071 326 1033 q 405 1151 298 1137 q 563 1110 492 1162 q 617 994 619 1069 z "},"´":{"ha":772,"x_min":168,"x_max":426,"o":"m 416 1109 q 426 1024 467 1069 l 265 848 q 168 821 206 783 q 186 926 131 857 l 328 1102 q 416 1109 366 1150 z "},"µ":{"ha":722,"x_min":18,"x_max":798,"o":"m 586 -52 q 515 9 505 -52 q 395 -12 462 -12 q 214 32 277 -12 l 151 -211 q 87 -274 134 -274 q 18 -207 0 -274 l 137 256 q 151 310 137 256 l 231 630 q 292 718 252 714 q 362 642 382 726 l 292 346 q 283 309 287 326 q 281 287 283 299 q 393 144 267 147 q 567 231 511 142 l 665 646 q 739 719 682 720 q 798 644 816 717 l 648 11 q 586 -52 633 -52 z "},"¶":{"ha":964,"x_min":43,"x_max":845,"o":"m 776 1109 q 845 1042 846 1109 l 819 -45 q 745 -117 817 -119 q 686 -43 684 -116 l 712 1046 q 776 1109 713 1109 m 519 1109 q 589 1042 590 1109 l 564 -45 q 490 -117 562 -119 q 430 -43 429 -116 l 437 271 q 43 675 43 298 q 519 1109 43 1109 z "},"·":{"ha":346,"x_min":97,"x_max":266,"o":"m 179 570 q 182 570 180 570 q 224 559 205 570 q 256 525 245 547 q 266 486 266 507 q 266 479 266 482 q 249 435 264 454 q 219 410 235 417 q 181 401 202 401 q 177 401 179 401 q 138 413 156 402 q 109 443 120 424 q 97 486 97 463 q 108 526 97 507 q 137 558 119 546 q 179 570 156 570 z "},"∙":{"ha":346,"x_min":97,"x_max":266,"o":"m 179 570 q 182 570 180 570 q 224 559 205 570 q 256 525 245 547 q 266 486 266 507 q 266 479 266 482 q 249 435 264 454 q 219 410 235 417 q 181 401 202 401 q 177 401 179 401 q 138 413 156 402 q 109 443 120 424 q 97 486 97 463 q 108 526 97 507 q 137 558 119 546 q 179 570 156 570 z "},"¸":{"ha":772,"x_min":250,"x_max":567,"o":"m 307 50 q 351 77 313 76 q 522 0 437 81 q 567 -229 627 -97 q 425 -302 536 -297 q 285 -263 353 -305 q 250 -193 244 -238 q 292 -165 252 -169 q 353 -184 308 -163 q 438 -196 400 -205 q 480 -142 480 -186 q 412 -48 481 -83 q 340 -20 380 -31 q 307 50 292 -7 z "},"¹":{"ha":904,"x_min":272,"x_max":648,"o":"m 513 1100 q 509 702 510 959 q 578 702 544 702 q 648 661 648 702 q 580 612 648 612 l 334 612 q 272 656 273 612 q 340 703 272 703 q 407 703 373 703 l 408 1021 l 391 1006 q 298 988 333 955 q 316 1072 254 1029 l 397 1128 q 477 1169 461 1173 q 513 1100 515 1161 z "},"º":{"ha":730,"x_min":32,"x_max":587,"o":"m 217 1137 q 310 1152 262 1152 q 359 1148 335 1152 q 489 1087 435 1135 q 570 970 546 1038 q 587 875 585 930 q 583 828 587 851 q 521 694 570 753 q 399 612 473 638 q 309 597 355 597 q 252 604 280 597 q 122 671 178 619 q 45 789 68 720 q 32 876 32 831 q 37 930 32 903 q 100 1057 52 1004 q 217 1137 149 1113 m 312 735 q 385 755 351 735 q 436 810 418 777 q 453 878 453 841 q 452 883 453 880 q 430 955 450 924 q 391 994 416 977 q 340 1016 368 1010 q 311 1019 326 1019 q 235 997 270 1019 q 178 927 195 971 q 169 877 169 903 q 174 837 169 857 q 226 763 188 791 q 311 735 263 735 l 312 735 z "},"»":{"ha":802,"x_min":32,"x_max":732,"o":"m 699 490 q 732 429 731 462 q 694 375 732 406 l 434 165 q 351 170 388 128 q 355 255 309 218 l 575 438 l 363 618 q 339 713 304 669 q 439 715 381 766 l 699 490 m 391 490 q 425 429 424 462 q 387 375 425 406 l 127 165 q 44 170 81 128 q 47 255 1 218 l 268 438 l 56 618 q 32 713 -3 669 q 132 715 74 766 l 391 490 z "},"¼":{"ha":904,"x_min":109,"x_max":817,"o":"m 188 498 l 714 500 q 817 448 817 500 q 720 396 817 396 l 180 396 q 109 446 109 396 q 188 498 109 498 m 462 168 l 323 11 l 463 11 l 462 168 m 553 318 q 558 298 559 309 q 560 267 560 284 q 561 11 560 138 q 626 10 593 11 q 678 -35 678 10 q 626 -74 678 -74 l 561 -74 l 561 -169 q 512 -232 561 -232 q 463 -169 463 -232 l 463 -74 l 245 -75 q 222 -73 232 -75 q 206 -67 214 -73 l 206 -67 q 195 -58 199 -63 q 206 31 159 -22 l 450 307 q 536 337 499 362 q 553 318 547 334 m 513 1100 q 509 702 510 959 q 578 702 544 702 q 648 661 648 702 q 580 612 648 612 l 334 612 q 272 656 273 612 q 340 703 272 703 q 407 703 373 703 l 408 1021 l 391 1006 q 298 988 333 955 q 316 1072 254 1029 l 397 1128 q 477 1169 461 1173 q 513 1100 515 1161 z "},"½":{"ha":904,"x_min":109,"x_max":817,"o":"m 382 -141 l 595 -136 q 669 -185 669 -135 q 595 -239 669 -239 l 336 -239 q 260 -152 250 -239 q 410 37 275 -35 q 543 149 536 104 q 494 228 553 208 q 414 222 452 243 q 351 161 380 202 q 281 141 321 119 q 260 212 231 168 q 355 309 302 277 q 492 326 400 335 q 612 260 559 319 q 644 138 651 217 q 507 -35 635 34 q 382 -141 384 -102 m 513 1100 q 509 702 510 959 q 578 702 544 702 q 648 661 648 702 q 580 612 648 612 l 334 612 q 272 656 273 612 q 340 703 272 703 q 407 703 373 703 l 408 1021 l 391 1006 q 298 988 333 955 q 316 1072 254 1029 l 397 1128 q 477 1169 461 1173 q 513 1100 515 1161 m 188 498 l 714 500 q 817 448 817 500 q 720 396 817 396 l 180 396 q 109 446 109 396 q 188 498 109 498 z "},"¾":{"ha":904,"x_min":109,"x_max":817,"o":"m 462 168 l 323 11 l 463 11 l 462 168 m 553 318 q 558 298 559 309 q 560 267 560 284 q 561 11 560 138 q 626 10 593 11 q 678 -35 678 10 q 626 -74 678 -74 l 561 -74 l 561 -169 q 512 -232 561 -232 q 463 -169 463 -232 l 463 -74 l 245 -75 q 222 -73 232 -75 q 206 -67 214 -73 l 206 -67 q 195 -58 199 -63 q 206 31 159 -22 l 450 307 q 536 337 499 362 q 553 318 547 334 m 188 498 l 714 500 q 817 448 817 500 q 720 396 817 396 l 180 396 q 109 446 109 396 q 188 498 109 498 m 617 994 q 557 882 616 932 q 642 734 642 836 q 566 614 642 657 q 419 580 494 574 q 281 644 278 591 q 371 688 286 712 q 485 690 418 674 q 541 750 545 704 q 467 820 536 819 q 374 873 372 822 q 448 930 377 910 q 514 1010 540 957 q 380 1048 481 1077 q 315 1071 326 1033 q 405 1151 298 1137 q 563 1110 492 1162 q 617 994 619 1069 z "},"¿":{"ha":728,"x_min":91,"x_max":620,"o":"m 464 833 q 443 831 454 831 q 420 834 431 831 q 384 856 399 840 q 361 893 366 873 q 359 916 359 904 q 361 937 359 929 q 386 979 368 962 q 431 999 405 996 q 443 1000 437 1000 q 479 991 463 1000 q 515 958 503 981 q 527 916 527 939 q 521 883 527 899 q 498 852 513 865 q 464 833 484 839 m 613 45 q 357 -49 533 -45 q 91 169 122 -54 q 233 480 53 431 q 361 572 361 515 q 425 710 363 707 q 498 559 517 715 q 342 376 481 419 q 231 193 203 333 q 351 90 250 102 q 499 126 445 78 q 620 173 583 201 q 613 45 682 124 z "},"À":{"ha":1016,"x_min":103,"x_max":905,"o":"m 258 1423 q 347 1415 308 1463 l 488 1239 q 507 1134 543 1170 q 409 1161 469 1096 l 248 1337 q 258 1423 207 1383 m 602 924 l 905 83 q 871 -30 938 -10 q 773 45 806 -49 l 667 340 l 341 340 l 235 45 q 137 -30 202 -48 q 103 83 71 -10 l 405 924 q 504 1037 446 1037 q 602 924 562 1037 m 504 791 l 391 477 l 616 479 l 504 791 z "},"Á":{"ha":1016,"x_min":103,"x_max":905,"o":"m 755 1423 q 765 1337 806 1383 l 604 1161 q 507 1134 545 1096 q 526 1239 470 1170 l 667 1415 q 755 1423 705 1463 m 602 924 l 905 83 q 871 -30 938 -10 q 773 45 806 -49 l 667 340 l 341 340 l 235 45 q 137 -30 202 -48 q 103 83 71 -10 l 405 924 q 504 1037 446 1037 q 602 924 562 1037 m 504 791 l 391 477 l 616 479 l 504 791 z "},"Â":{"ha":1016,"x_min":103,"x_max":905,"o":"m 602 924 l 905 83 q 871 -30 938 -10 q 773 45 806 -49 l 667 340 l 341 340 l 235 45 q 137 -30 202 -48 q 103 83 71 -10 l 405 924 q 504 1037 446 1037 q 602 924 562 1037 m 504 791 l 391 477 l 616 479 l 504 791 z "},"Ã":{"ha":1016,"x_min":103,"x_max":905,"o":"m 602 924 l 905 83 q 871 -30 938 -10 q 773 45 806 -49 l 667 340 l 341 340 l 235 45 q 137 -30 202 -48 q 103 83 71 -10 l 405 924 q 504 1037 446 1037 q 602 924 562 1037 m 504 791 l 391 477 l 616 479 l 504 791 z "},"Ä":{"ha":1016,"x_min":103,"x_max":905,"o":"m 677 1244 q 760 1181 760 1244 q 675 1120 760 1120 q 597 1179 597 1120 q 677 1244 597 1244 m 334 1244 q 418 1181 418 1244 q 333 1120 418 1120 q 254 1179 254 1120 q 334 1244 254 1244 m 602 924 l 905 83 q 871 -30 938 -10 q 773 45 806 -49 l 667 340 l 341 340 l 235 45 q 137 -30 202 -48 q 103 83 71 -10 l 405 924 q 504 1037 446 1037 q 602 924 562 1037 m 504 791 l 391 477 l 616 479 l 504 791 z "},"Å":{"ha":1016,"x_min":103,"x_max":905,"o":"m 602 924 l 905 83 q 871 -30 938 -10 q 773 45 806 -49 l 667 340 l 341 340 l 235 45 q 137 -30 202 -48 q 103 83 71 -10 l 405 924 q 504 1037 446 1037 q 602 924 562 1037 m 504 791 l 391 477 l 616 479 l 504 791 z "},"Æ":{"ha":1510,"x_min":55,"x_max":1488,"o":"m 920 1022 l 1390 1025 q 1488 946 1486 1025 q 1394 882 1490 883 q 946 880 1170 881 l 940 633 l 1315 636 q 1413 557 1411 637 q 1319 494 1415 494 q 937 492 1128 492 l 928 104 l 1348 107 q 1446 28 1444 108 q 1352 -35 1448 -35 l 878 -38 q 863 -37 869 -38 q 852 -37 857 -37 q 793 33 791 -35 l 804 489 l 541 489 l 161 49 q 57 37 112 -7 q 55 135 6 79 l 781 972 q 865 1022 823 1020 q 879 1023 872 1023 q 904 1021 893 1023 q 920 1022 911 1022 m 666 635 l 808 635 l 812 804 l 666 635 z "},"Ç":{"ha":837,"x_min":52,"x_max":781,"o":"m 347 75 q 391 102 353 101 q 562 25 477 106 q 607 -203 667 -72 q 465 -277 576 -272 q 325 -238 393 -280 q 290 -168 284 -213 q 332 -140 292 -144 q 393 -159 348 -138 q 478 -171 440 -180 q 520 -117 520 -161 q 452 -23 522 -58 q 380 5 420 -6 q 347 75 332 18 m 370 844 q 256 716 305 801 q 200 456 200 621 q 264 206 200 305 q 402 124 316 128 q 591 161 525 118 q 726 215 688 223 q 781 111 791 203 q 645 6 776 60 q 412 -34 537 -39 q 151 100 248 -28 q 52 440 52 231 q 143 820 52 690 q 424 1031 276 1007 q 678 996 565 1053 q 767 913 764 951 q 743 838 770 863 q 644 828 695 793 q 537 874 597 860 q 370 844 447 895 z "},"È":{"ha":867,"x_min":112,"x_max":807,"o":"m 464 1411 q 553 1404 514 1452 l 694 1227 q 713 1122 749 1158 q 615 1149 675 1084 l 454 1326 q 464 1411 413 1371 m 239 1018 l 709 1021 q 807 943 805 1021 q 713 880 809 880 q 265 878 489 879 l 259 635 l 634 637 q 732 559 730 637 q 638 496 734 498 l 256 494 l 247 113 l 667 115 q 765 38 763 116 q 671 -25 767 -24 l 197 -28 q 182 -26 189 -28 q 171 -26 176 -26 q 112 43 110 -25 l 134 960 q 198 1019 136 1018 q 223 1017 212 1019 q 239 1018 231 1018 z "},"É":{"ha":867,"x_min":112,"x_max":807,"o":"m 746 1413 q 755 1328 797 1373 l 595 1152 q 497 1124 536 1086 q 516 1230 460 1160 l 657 1406 q 746 1413 696 1454 m 239 1018 l 709 1021 q 807 943 805 1021 q 713 880 809 880 q 265 878 489 879 l 259 635 l 634 637 q 732 559 730 637 q 638 496 734 498 l 256 494 l 247 113 l 667 115 q 765 38 763 116 q 671 -25 767 -24 l 197 -28 q 182 -26 189 -28 q 171 -26 176 -26 q 112 43 110 -25 l 134 960 q 198 1019 136 1018 q 223 1017 212 1019 q 239 1018 231 1018 z "},"Ê":{"ha":867,"x_min":112,"x_max":807,"o":"m 239 1018 l 709 1021 q 807 943 805 1021 q 713 880 809 880 q 265 878 489 879 l 259 635 l 634 637 q 732 559 730 637 q 638 496 734 498 l 256 494 l 247 113 l 667 115 q 765 38 763 116 q 671 -25 767 -24 l 197 -28 q 182 -26 189 -28 q 171 -26 176 -26 q 112 43 110 -25 l 134 960 q 198 1019 136 1018 q 223 1017 212 1019 q 239 1018 231 1018 z "},"Ë":{"ha":867,"x_min":112,"x_max":807,"o":"m 707 1235 q 790 1172 790 1235 q 705 1110 790 1110 q 627 1170 627 1110 q 707 1235 627 1235 m 364 1235 q 448 1172 448 1235 q 363 1110 448 1110 q 284 1170 284 1110 q 364 1235 284 1235 m 239 1018 l 709 1021 q 807 943 805 1021 q 713 880 809 880 q 265 878 489 879 l 259 635 l 634 637 q 732 559 730 637 q 638 496 734 498 l 256 494 l 247 113 l 667 115 q 765 38 763 116 q 671 -25 767 -24 l 197 -28 q 182 -26 189 -28 q 171 -26 176 -26 q 112 43 110 -25 l 134 960 q 198 1019 136 1018 q 223 1017 212 1019 q 239 1018 231 1018 z "},"Ì":{"ha":759,"x_min":45,"x_max":724,"o":"m 254 1401 q 342 1394 304 1442 l 484 1217 q 503 1112 538 1148 q 405 1139 465 1074 l 244 1316 q 254 1401 203 1361 m 146 1013 l 641 1013 q 724 940 723 1013 q 637 873 726 873 l 433 873 l 414 112 l 631 112 q 715 39 713 112 q 627 -28 716 -28 l 131 -28 q 45 48 45 -28 q 137 112 45 113 l 281 112 l 301 873 l 140 873 q 55 949 55 873 q 146 1013 55 1013 z "},"Í":{"ha":759,"x_min":45,"x_max":724,"o":"m 552 1405 q 562 1320 603 1365 l 401 1143 q 303 1116 342 1078 q 322 1221 267 1152 l 463 1398 q 552 1405 502 1446 m 146 1013 l 641 1013 q 724 940 723 1013 q 637 873 726 873 l 433 873 l 414 112 l 631 112 q 715 39 713 112 q 627 -28 716 -28 l 131 -28 q 45 48 45 -28 q 137 112 45 113 l 281 112 l 301 873 l 140 873 q 55 949 55 873 q 146 1013 55 1013 z "},"Î":{"ha":759,"x_min":45,"x_max":724,"o":"m 146 1013 l 641 1013 q 724 940 723 1013 q 637 873 726 873 l 433 873 l 414 112 l 631 112 q 715 39 713 112 q 627 -28 716 -28 l 131 -28 q 45 48 45 -28 q 137 112 45 113 l 281 112 l 301 873 l 140 873 q 55 949 55 873 q 146 1013 55 1013 z "},"Ï":{"ha":759,"x_min":45,"x_max":724,"o":"m 567 1233 q 650 1170 650 1233 q 566 1108 650 1108 q 487 1168 487 1108 q 567 1233 487 1233 m 224 1233 q 308 1170 308 1233 q 223 1108 308 1108 q 144 1168 144 1108 q 224 1233 144 1233 m 146 1013 l 641 1013 q 724 940 723 1013 q 637 873 726 873 l 433 873 l 414 112 l 631 112 q 715 39 713 112 q 627 -28 716 -28 l 131 -28 q 45 48 45 -28 q 137 112 45 113 l 281 112 l 301 873 l 140 873 q 55 949 55 873 q 146 1013 55 1013 z "},"Ð":{"ha":1002,"x_min":-30,"x_max":933,"o":"m 43 395 q -30 461 -32 395 q 47 531 -28 531 l 442 531 q 519 457 518 531 q 445 395 521 395 l 43 395 m 210 1034 q 240 1031 227 1034 q 256 1029 248 1030 q 684 843 499 1001 q 933 366 949 617 q 741 35 923 182 q 414 -36 656 -33 q 208 -35 271 -38 q 184 -37 198 -37 q 125 35 123 -35 l 148 974 q 210 1034 149 1034 m 277 875 l 260 94 l 406 92 q 698 173 629 97 q 796 372 790 275 q 599 733 808 541 q 277 875 457 865 z "},"Ñ":{"ha":1107,"x_min":88,"x_max":1050,"o":"m 899 224 l 918 981 q 981 1040 920 1038 q 1050 977 1052 1040 l 1029 60 q 955 -7 1028 -10 q 905 16 924 -6 l 237 777 l 222 39 q 148 -28 220 -30 q 88 41 86 -27 l 111 960 q 174 1019 113 1017 q 227 999 210 1019 l 899 224 z "},"Ò":{"ha":1109,"x_min":78,"x_max":1050,"o":"m 389 1411 q 478 1404 439 1452 l 619 1227 q 638 1122 674 1158 q 541 1149 600 1084 l 380 1326 q 389 1411 338 1371 m 648 890 q 385 793 496 901 q 220 390 220 635 q 296 189 220 267 q 534 97 384 97 q 762 197 679 97 q 914 595 911 376 q 648 890 918 872 m 640 1025 q 1050 596 1051 1021 q 886 125 1050 322 q 534 -43 746 -43 q 176 109 313 -43 q 78 389 78 216 q 255 864 78 658 q 640 1025 397 1028 z "},"Ó":{"ha":1109,"x_min":78,"x_max":1050,"o":"m 887 1411 q 897 1326 938 1371 l 736 1149 q 638 1122 677 1084 q 657 1227 602 1158 l 798 1404 q 887 1411 837 1452 m 648 890 q 385 793 496 901 q 220 390 220 635 q 296 189 220 267 q 534 97 384 97 q 762 197 679 97 q 914 595 911 376 q 648 890 918 872 m 640 1025 q 1050 596 1051 1021 q 886 125 1050 322 q 534 -43 746 -43 q 176 109 313 -43 q 78 389 78 216 q 255 864 78 658 q 640 1025 397 1028 z "},"Ô":{"ha":1109,"x_min":78,"x_max":1050,"o":"m 648 890 q 385 793 496 901 q 220 390 220 635 q 296 189 220 267 q 534 97 384 97 q 762 197 679 97 q 914 595 911 376 q 648 890 918 872 m 640 1025 q 1050 596 1051 1021 q 886 125 1050 322 q 534 -43 746 -43 q 176 109 313 -43 q 78 389 78 216 q 255 864 78 658 q 640 1025 397 1028 z "},"Õ":{"ha":1109,"x_min":78,"x_max":1050,"o":"m 648 890 q 385 793 496 901 q 220 390 220 635 q 296 189 220 267 q 534 97 384 97 q 762 197 679 97 q 914 595 911 376 q 648 890 918 872 m 640 1025 q 1050 596 1051 1021 q 886 125 1050 322 q 534 -43 746 -43 q 176 109 313 -43 q 78 389 78 216 q 255 864 78 658 q 640 1025 397 1028 z "},"Ö":{"ha":1109,"x_min":78,"x_max":1050,"o":"m 809 1233 q 892 1170 892 1233 q 808 1108 892 1108 q 729 1168 729 1108 q 809 1233 729 1233 m 467 1233 q 550 1170 550 1233 q 465 1108 550 1108 q 387 1168 387 1108 q 467 1233 387 1233 m 648 890 q 385 793 496 901 q 220 390 220 635 q 296 189 220 267 q 534 97 384 97 q 762 197 679 97 q 914 595 911 376 q 648 890 918 872 m 640 1025 q 1050 596 1051 1021 q 886 125 1050 322 q 534 -43 746 -43 q 176 109 313 -43 q 78 389 78 216 q 255 864 78 658 q 640 1025 397 1028 z "},"×":{"ha":667,"x_min":83,"x_max":542,"o":"m 83 660 q 174 650 128 695 l 313 513 l 451 650 q 542 660 498 696 q 526 554 592 620 l 399 428 l 523 306 q 542 197 586 244 q 460 195 501 154 l 313 342 l 165 195 q 83 197 124 154 q 102 306 39 244 l 227 428 l 100 554 q 83 660 33 620 z "},"Ø":{"ha":1109,"x_min":74,"x_max":1082,"o":"m 174 -33 q 74 -37 124 -85 q 78 61 28 8 l 979 1012 q 1082 1034 1035 1072 q 1082 935 1137 992 l 174 -33 m 656 890 q 393 793 505 901 q 229 390 229 635 q 304 189 229 267 q 542 97 392 97 q 770 197 687 97 q 922 595 920 376 q 656 890 926 872 m 648 1025 q 1059 596 1059 1021 q 894 125 1058 322 q 542 -43 754 -43 q 184 109 321 -43 q 86 389 86 216 q 263 864 86 658 q 648 1025 405 1028 z "},"Ù":{"ha":1023,"x_min":-398,"x_max":943,"o":"m 338 1415 q 427 1408 389 1456 l 568 1232 q 587 1126 623 1162 q 490 1154 549 1088 l 329 1330 q 338 1415 288 1375 m -398 1356 m 871 1007 q 943 889 946 1006 l 932 505 q 520 -27 918 -28 q 109 517 105 -26 l 111 881 q 180 1016 111 1016 q 247 898 248 1015 l 245 527 q 524 94 242 90 q 794 519 785 98 l 802 903 q 871 1007 804 1008 z "},"Ú":{"ha":1023,"x_min":-398,"x_max":943,"o":"m 651 1411 q 661 1326 702 1371 l 500 1149 q 402 1122 441 1084 q 421 1227 366 1158 l 562 1404 q 651 1411 601 1452 m -398 1356 m 871 1007 q 943 889 946 1006 l 932 505 q 520 -27 918 -28 q 109 517 105 -26 l 111 881 q 180 1016 111 1016 q 247 898 248 1015 l 245 527 q 524 94 242 90 q 794 519 785 98 l 802 903 q 871 1007 804 1008 z "},"Û":{"ha":1023,"x_min":-398,"x_max":943,"o":"m -398 1356 m 871 1007 q 943 889 946 1006 l 932 505 q 520 -27 918 -28 q 109 517 105 -26 l 111 881 q 180 1016 111 1016 q 247 898 248 1015 l 245 527 q 524 94 242 90 q 794 519 785 98 l 802 903 q 871 1007 804 1008 z "},"Ü":{"ha":1023,"x_min":-398,"x_max":943,"o":"m 687 1233 q 770 1170 770 1233 q 686 1108 770 1108 q 607 1168 607 1108 q 687 1233 607 1233 m 345 1233 q 428 1170 428 1233 q 343 1108 428 1108 q 264 1168 264 1108 q 345 1233 264 1233 m -398 1356 m 871 1007 q 943 889 946 1006 l 932 505 q 520 -27 918 -28 q 109 517 105 -26 l 111 881 q 180 1016 111 1016 q 247 898 248 1015 l 245 527 q 524 94 242 90 q 794 519 785 98 l 802 903 q 871 1007 804 1008 z "},"Ý":{"ha":882,"x_min":31,"x_max":827,"o":"m 585 1415 q 595 1330 636 1375 l 434 1154 q 336 1126 375 1088 q 355 1232 300 1162 l 496 1408 q 585 1415 535 1456 m 794 1015 q 827 929 852 983 l 404 32 q 286 -20 361 -59 q 283 115 231 6 l 391 339 l 31 921 q 52 1011 -2 975 q 153 981 110 1051 l 461 482 l 701 977 q 794 1015 734 1047 z "},"Þ":{"ha":723,"x_min":68,"x_max":682,"o":"m 167 1111 q 222 1008 225 1112 q 218 904 220 956 q 682 555 688 955 q 197 261 678 247 q 191 64 198 260 q 126 -16 189 -16 q 68 64 65 -16 l 96 1005 q 167 1111 99 1109 m 214 785 l 201 390 q 560 567 556 391 q 214 785 564 805 z "},"ß":{"ha":616,"x_min":34,"x_max":581,"o":"m 85 -106 q 34 -12 31 -101 l 56 633 q 264 1054 68 1015 q 572 787 549 1110 q 434 557 578 714 q 581 334 552 454 q 575 58 625 151 q 361 -50 509 -66 q 207 74 213 -35 q 309 102 202 163 q 449 106 398 51 q 460 302 494 156 q 313 484 437 398 q 273 537 270 514 q 316 621 264 577 q 434 775 430 718 q 354 936 444 921 q 210 820 258 952 q 179 629 182 742 l 165 -24 q 85 -106 163 -113 z "},"à":{"ha":711,"x_min":35,"x_max":660,"o":"m 165 1097 q 254 1090 215 1138 l 395 913 q 414 808 450 844 q 316 836 376 770 l 155 1012 q 165 1097 114 1057 m 342 -38 q 35 288 37 -39 q 175 616 33 500 q 515 693 338 749 q 576 701 535 710 q 642 595 658 682 q 623 307 627 511 q 660 76 621 144 q 644 -38 718 -23 q 545 34 559 -56 q 342 -38 405 -37 m 420 98 q 505 157 445 107 q 512 558 481 448 q 374 582 446 600 q 294 547 324 570 q 168 300 174 460 q 310 83 170 93 q 420 98 369 79 z "},"á":{"ha":711,"x_min":35,"x_max":672,"o":"m 663 1097 q 672 1012 713 1057 l 511 836 q 414 808 452 770 q 433 913 377 844 l 574 1090 q 663 1097 612 1138 m 342 -38 q 35 288 37 -39 q 175 616 33 500 q 515 693 338 749 q 576 701 535 710 q 642 595 658 682 q 623 307 627 511 q 660 76 621 144 q 644 -38 718 -23 q 545 34 559 -56 q 342 -38 405 -37 m 420 98 q 505 157 445 107 q 512 558 481 448 q 374 582 446 600 q 294 547 324 570 q 168 300 174 460 q 310 83 170 93 q 420 98 369 79 z "},"â":{"ha":711,"x_min":35,"x_max":676,"o":"m 342 -38 q 35 288 37 -39 q 175 616 33 500 q 515 693 338 749 q 576 701 535 710 q 642 595 658 682 q 623 307 627 511 q 660 76 621 144 q 644 -38 718 -23 q 545 34 559 -56 q 342 -38 405 -37 m 420 98 q 505 157 445 107 q 512 558 481 448 q 374 582 446 600 q 294 547 324 570 q 168 300 174 460 q 310 83 170 93 q 420 98 369 79 z "},"ã":{"ha":711,"x_min":35,"x_max":727,"o":"m 342 -38 q 35 288 37 -39 q 175 616 33 500 q 515 693 338 749 q 576 701 535 710 q 642 595 658 682 q 623 307 627 511 q 660 76 621 144 q 644 -38 718 -23 q 545 34 559 -56 q 342 -38 405 -37 m 420 98 q 505 157 445 107 q 512 558 481 448 q 374 582 446 600 q 294 547 324 570 q 168 300 174 460 q 310 83 170 93 q 420 98 369 79 z "},"ä":{"ha":711,"x_min":35,"x_max":668,"o":"m 585 919 q 668 856 668 919 q 583 794 668 794 q 505 854 505 794 q 585 919 505 919 m 242 919 q 326 856 326 919 q 241 794 326 794 q 162 854 162 794 q 242 919 162 919 m 342 -38 q 35 288 37 -39 q 175 616 33 500 q 515 693 338 749 q 576 701 535 710 q 642 595 658 682 q 623 307 627 511 q 660 76 621 144 q 644 -38 718 -23 q 545 34 559 -56 q 342 -38 405 -37 m 420 98 q 505 157 445 107 q 512 558 481 448 q 374 582 446 600 q 294 547 324 570 q 168 300 174 460 q 310 83 170 93 q 420 98 369 79 z "},"å":{"ha":711,"x_min":35,"x_max":660,"o":"m 342 -38 q 35 288 37 -39 q 175 616 33 500 q 515 693 338 749 q 576 701 535 710 q 642 595 658 682 q 623 307 627 511 q 660 76 621 144 q 644 -38 718 -23 q 545 34 559 -56 q 342 -38 405 -37 m 420 98 q 505 157 445 107 q 512 558 481 448 q 374 582 446 600 q 294 547 324 570 q 168 300 174 460 q 310 83 170 93 q 420 98 369 79 z "},"æ":{"ha":1266,"x_min":45,"x_max":1206,"o":"m 659 294 q 728 159 663 217 q 899 93 804 92 q 1085 147 1038 94 q 1160 204 1131 198 q 1206 184 1192 211 q 1176 66 1238 121 q 891 -29 1067 -31 q 665 52 762 -28 q 544 321 544 151 q 620 570 544 460 q 865 715 715 706 q 1110 638 1022 725 q 1190 453 1194 557 q 1115 359 1187 370 l 659 294 m 674 406 l 1073 464 q 1011 556 1063 523 q 884 593 951 594 q 723 510 791 593 q 674 406 693 473 m 351 -38 q 45 288 47 -39 q 184 616 43 500 q 525 693 347 749 q 586 701 545 710 q 652 595 667 682 q 633 307 636 511 q 669 76 630 144 q 653 -38 727 -23 q 555 34 568 -56 q 351 -38 414 -37 m 430 98 q 515 157 454 107 q 522 558 490 448 q 384 582 456 600 q 304 547 334 570 q 177 300 183 460 q 319 83 179 93 q 430 98 378 79 z "},"ç":{"ha":713,"x_min":64,"x_max":648,"o":"m 279 66 q 324 94 286 92 q 495 16 410 97 q 540 -212 600 -81 q 397 -286 509 -281 q 258 -247 326 -289 q 222 -177 217 -222 q 264 -149 225 -153 q 326 -168 281 -147 q 411 -180 373 -189 q 453 -125 453 -170 q 385 -32 454 -67 q 313 -3 353 -15 q 279 66 264 9 m 550 143 q 648 119 610 183 q 612 31 670 81 q 378 -33 538 -33 q 168 49 252 -32 q 64 300 64 149 q 138 574 64 467 q 366 713 228 703 q 513 698 447 720 q 623 628 595 670 q 618 530 664 563 q 520 555 586 507 q 340 583 441 614 q 239 500 284 565 q 185 329 187 425 q 238 163 183 238 q 378 92 288 96 q 550 143 470 89 z "},"è":{"ha":761,"x_min":60,"x_max":722,"o":"m 165 1102 q 254 1095 216 1143 l 395 918 q 414 813 450 849 q 317 840 376 775 l 156 1017 q 165 1102 115 1062 m 176 294 q 245 159 179 217 q 416 93 321 92 q 602 147 554 94 q 676 204 647 198 q 722 184 709 211 q 692 66 754 121 q 408 -29 584 -31 q 181 52 278 -28 q 60 321 60 151 q 136 570 60 460 q 382 715 231 706 q 627 638 538 725 q 707 453 710 557 q 631 359 704 370 l 176 294 m 191 406 l 589 464 q 528 556 579 523 q 401 593 468 594 q 239 510 307 593 q 191 406 210 473 z "},"é":{"ha":761,"x_min":60,"x_max":722,"o":"m 663 1102 q 673 1017 714 1062 l 512 840 q 414 813 453 775 q 433 918 378 849 l 574 1095 q 663 1102 613 1143 m 176 294 q 245 159 179 217 q 416 93 321 92 q 602 147 554 94 q 676 204 647 198 q 722 184 709 211 q 692 66 754 121 q 408 -29 584 -31 q 181 52 278 -28 q 60 321 60 151 q 136 570 60 460 q 382 715 231 706 q 627 638 538 725 q 707 453 710 557 q 631 359 704 370 l 176 294 m 191 406 l 589 464 q 528 556 579 523 q 401 593 468 594 q 239 510 307 593 q 191 406 210 473 z "},"ê":{"ha":761,"x_min":60,"x_max":722,"o":"m 176 294 q 245 159 179 217 q 416 93 321 92 q 602 147 554 94 q 676 204 647 198 q 722 184 709 211 q 692 66 754 121 q 408 -29 584 -31 q 181 52 278 -28 q 60 321 60 151 q 136 570 60 460 q 382 715 231 706 q 627 638 538 725 q 707 453 710 557 q 631 359 704 370 l 176 294 m 191 406 l 589 464 q 528 556 579 523 q 401 593 468 594 q 239 510 307 593 q 191 406 210 473 z "},"ë":{"ha":761,"x_min":60,"x_max":722,"o":"m 585 924 q 669 861 669 924 q 584 799 669 799 q 505 859 505 799 q 585 924 505 924 m 243 924 q 326 861 326 924 q 241 799 326 799 q 163 859 163 799 q 243 924 163 924 m 176 294 q 245 159 179 217 q 416 93 321 92 q 602 147 554 94 q 676 204 647 198 q 722 184 709 211 q 692 66 754 121 q 408 -29 584 -31 q 181 52 278 -28 q 60 321 60 151 q 136 570 60 460 q 382 715 231 706 q 627 638 538 725 q 707 453 710 557 q 631 359 704 370 l 176 294 m 191 406 l 589 464 q 528 556 579 523 q 401 593 468 594 q 239 510 307 593 q 191 406 210 473 z "},"ì":{"ha":389,"x_min":25,"x_max":283,"o":"m 35 1093 q 123 1086 85 1134 l 264 909 q 283 804 319 840 q 186 831 245 766 l 25 1008 q 35 1093 -16 1053 m 207 710 q 270 622 271 709 l 260 58 q 195 -34 259 -34 q 125 52 123 -33 l 136 621 q 207 710 138 711 z "},"í":{"ha":389,"x_min":106,"x_max":365,"o":"m 355 1097 q 365 1012 406 1057 l 204 836 q 106 808 145 770 q 125 913 70 844 l 267 1090 q 355 1097 305 1138 m 207 710 q 270 622 271 709 l 260 58 q 195 -34 259 -34 q 125 52 123 -33 l 136 621 q 207 710 138 711 z "},"î":{"ha":389,"x_min":-53,"x_max":471,"o":"m 207 710 q 270 622 271 709 l 260 58 q 195 -34 259 -34 q 125 52 123 -33 l 136 621 q 207 710 138 711 z "},"ï":{"ha":389,"x_min":-43,"x_max":463,"o":"m 379 919 q 463 856 463 919 q 378 794 463 794 q 299 854 299 794 q 379 919 299 919 m 37 919 q 120 856 120 919 q 35 794 120 794 q -43 854 -43 794 q 37 919 -43 919 m 207 710 q 270 622 271 709 l 260 58 q 195 -34 259 -34 q 125 52 123 -33 l 136 621 q 207 710 138 711 z "},"ð":{"ha":707,"x_min":162,"x_max":669,"o":"m 218 1011 q 317 1021 258 1067 q 422 922 372 978 l 509 968 q 631 958 599 1015 q 570 856 660 904 l 501 819 q 541 756 522 789 q 669 287 700 494 q 541 26 642 100 q 242 20 386 -85 q 162 399 58 155 q 467 623 237 575 q 391 760 432 698 l 288 703 q 177 711 207 660 q 222 815 142 772 l 311 863 q 248 922 281 895 q 218 1011 190 970 m 510 517 q 467 503 491 510 q 286 391 329 466 q 264 170 220 278 q 391 95 292 102 q 537 237 489 88 q 527 469 570 339 q 510 517 519 494 z "},"ñ":{"ha":727,"x_min":90,"x_max":714,"o":"m 170 742 q 239 675 241 742 q 237 635 238 655 q 427 702 311 702 q 678 393 683 701 l 673 54 q 608 -34 671 -28 q 536 41 534 -41 l 544 363 q 437 558 549 550 q 235 457 342 565 l 224 47 q 149 -26 222 -27 q 90 48 88 -24 l 106 679 q 170 742 107 742 z "},"ò":{"ha":730,"x_min":56,"x_max":658,"o":"m 136 1097 q 224 1090 186 1138 l 366 913 q 385 808 420 844 q 287 836 347 770 l 126 1012 q 136 1097 85 1057 m 389 573 q 256 511 300 571 q 189 309 189 419 q 237 149 189 202 q 353 95 288 95 q 477 149 427 95 q 532 334 531 207 q 389 573 532 576 m 384 711 q 658 321 659 709 q 585 69 657 155 q 336 -33 503 -35 q 132 67 216 -33 q 56 321 56 157 q 146 595 56 475 q 384 711 236 713 z "},"ó":{"ha":730,"x_min":56,"x_max":658,"o":"m 633 1097 q 643 1012 684 1057 l 482 836 q 385 808 423 770 q 404 913 348 844 l 545 1090 q 633 1097 583 1138 m 389 573 q 256 511 300 571 q 189 309 189 419 q 237 149 189 202 q 353 95 288 95 q 477 149 427 95 q 532 334 531 207 q 389 573 532 576 m 384 711 q 658 321 659 709 q 585 69 657 155 q 336 -33 503 -35 q 132 67 216 -33 q 56 321 56 157 q 146 595 56 475 q 384 711 236 713 z "},"ô":{"ha":730,"x_min":56,"x_max":658,"o":"m 389 573 q 256 511 300 571 q 189 309 189 419 q 237 149 189 202 q 353 95 288 95 q 477 149 427 95 q 532 334 531 207 q 389 573 532 576 m 384 711 q 658 321 659 709 q 585 69 657 155 q 336 -33 503 -35 q 132 67 216 -33 q 56 321 56 157 q 146 595 56 475 q 384 711 236 713 z "},"õ":{"ha":730,"x_min":56,"x_max":697,"o":"m 389 573 q 256 511 300 571 q 189 309 189 419 q 237 149 189 202 q 353 95 288 95 q 477 149 427 95 q 532 334 531 207 q 389 573 532 576 m 384 711 q 658 321 659 709 q 585 69 657 155 q 336 -33 503 -35 q 132 67 216 -33 q 56 321 56 157 q 146 595 56 475 q 384 711 236 713 z "},"ö":{"ha":730,"x_min":56,"x_max":658,"o":"m 555 919 q 639 856 639 919 q 554 794 639 794 q 475 854 475 794 q 555 919 475 919 m 213 919 q 296 856 296 919 q 212 794 296 794 q 133 854 133 794 q 213 919 133 919 m 389 573 q 256 511 300 571 q 189 309 189 419 q 237 149 189 202 q 353 95 288 95 q 477 149 427 95 q 532 334 531 207 q 389 573 532 576 m 384 711 q 658 321 659 709 q 585 69 657 155 q 336 -33 503 -35 q 132 67 216 -33 q 56 321 56 157 q 146 595 56 475 q 384 711 236 713 z "},"÷":{"ha":667,"x_min":34,"x_max":615,"o":"m 99 497 l 530 498 q 615 436 614 498 q 534 372 615 372 l 93 372 q 34 433 34 372 q 99 497 34 497 m 302 249 q 319 251 311 251 q 336 249 328 251 q 364 233 352 245 q 381 205 378 220 q 383 189 383 197 q 382 173 383 178 q 362 142 376 155 q 328 127 349 130 q 319 126 323 126 q 290 132 304 126 q 262 157 273 140 q 254 189 254 172 q 258 212 254 201 q 276 235 264 226 q 302 249 287 245 m 302 772 q 319 774 311 774 q 336 772 328 774 q 364 756 352 768 q 381 728 378 743 q 383 712 383 720 q 382 696 383 702 q 362 665 376 678 q 328 650 349 654 q 319 650 323 650 q 290 656 304 650 q 262 681 273 664 q 254 712 254 695 q 258 736 254 725 q 276 759 264 749 q 302 772 287 768 z "},"ø":{"ha":730,"x_min":47,"x_max":694,"o":"m 118 -16 q 56 -26 85 -52 q 47 46 15 10 l 625 696 q 684 697 651 724 q 694 637 720 666 l 118 -16 m 389 573 q 256 511 300 571 q 189 309 189 419 q 237 149 189 202 q 353 95 288 95 q 477 149 427 95 q 532 334 531 207 q 389 573 532 576 m 384 711 q 658 321 659 709 q 585 69 657 155 q 336 -33 503 -35 q 132 67 216 -33 q 56 321 56 157 q 146 595 56 475 q 384 711 236 713 z "},"ù":{"ha":722,"x_min":73,"x_max":662,"o":"m 266 1105 q 355 1098 316 1146 l 496 922 q 515 817 551 852 q 417 844 477 779 l 256 1020 q 266 1105 215 1065 m 583 -52 q 514 16 513 -52 l 515 56 q 326 -12 441 -12 q 73 298 71 -11 l 76 631 q 141 718 77 712 q 212 643 213 724 l 210 347 q 260 146 209 182 q 429 148 331 99 q 520 304 517 193 l 528 646 q 602 720 530 720 q 662 645 663 718 l 646 12 q 583 -52 644 -52 z "},"ú":{"ha":722,"x_min":73,"x_max":662,"o":"m 524 1101 q 533 1016 574 1061 l 372 840 q 275 812 313 774 q 294 918 238 848 l 435 1094 q 524 1101 473 1142 m 583 -52 q 514 16 513 -52 l 515 56 q 326 -12 441 -12 q 73 298 71 -11 l 76 631 q 141 718 77 712 q 212 643 213 724 l 210 347 q 260 146 209 182 q 429 148 331 99 q 520 304 517 193 l 528 646 q 602 720 530 720 q 662 645 663 718 l 646 12 q 583 -52 644 -52 z "},"û":{"ha":722,"x_min":73,"x_max":662,"o":"m 583 -52 q 514 16 513 -52 l 515 56 q 326 -12 441 -12 q 73 298 71 -11 l 76 631 q 141 718 77 712 q 212 643 213 724 l 210 347 q 260 146 209 182 q 429 148 331 99 q 520 304 517 193 l 528 646 q 602 720 530 720 q 662 645 663 718 l 646 12 q 583 -52 644 -52 z "},"ü":{"ha":722,"x_min":73,"x_max":662,"o":"m 539 927 q 623 864 623 927 q 538 802 623 802 q 459 862 459 802 q 539 927 459 927 m 197 927 q 280 864 280 927 q 195 802 280 802 q 117 862 117 802 q 197 927 117 927 m 583 -52 q 514 16 513 -52 l 515 56 q 326 -12 441 -12 q 73 298 71 -11 l 76 631 q 141 718 77 712 q 212 643 213 724 l 210 347 q 260 146 209 182 q 429 148 331 99 q 520 304 517 193 l 528 646 q 602 720 530 720 q 662 645 663 718 l 646 12 q 583 -52 644 -52 z "},"ý":{"ha":723,"x_min":16,"x_max":682,"o":"m 480 1097 q 490 1012 531 1057 l 329 836 q 231 808 270 770 q 250 913 195 844 l 391 1090 q 480 1097 430 1138 m 651 698 q 682 590 716 670 l 294 -303 q 188 -387 248 -412 q 163 -250 117 -358 l 298 62 l 16 584 q 33 696 -27 664 q 138 649 96 730 l 366 217 l 551 645 q 651 698 586 725 z "},"þ":{"ha":743,"x_min":100,"x_max":682,"o":"m 191 898 q 247 795 251 899 q 243 630 243 699 q 682 281 688 681 q 221 -13 678 -27 q 224 -307 235 -14 q 159 -386 221 -386 q 100 -307 99 -386 l 121 792 q 191 898 122 897 m 239 511 l 225 116 q 560 293 557 117 q 239 511 564 531 z "},"ÿ":{"ha":723,"x_min":16,"x_max":682,"o":"m 512 923 q 595 860 595 923 q 511 798 595 798 q 432 858 432 798 q 512 923 432 923 m 170 923 q 253 860 253 923 q 168 798 253 798 q 90 858 90 798 q 170 923 90 923 m 651 698 q 682 590 716 670 l 294 -303 q 188 -387 248 -412 q 163 -250 117 -358 l 298 62 l 16 584 q 33 696 -27 664 q 138 649 96 730 l 366 217 l 551 645 q 651 698 586 725 z "},"Ā":{"ha":1016,"x_min":103,"x_max":905,"o":"m 326 1223 l 673 1224 q 742 1173 741 1224 q 677 1120 742 1120 l 321 1120 q 273 1171 273 1120 q 326 1223 273 1223 m 602 924 l 905 83 q 871 -30 938 -10 q 773 45 806 -49 l 667 340 l 341 340 l 235 45 q 137 -30 202 -48 q 103 83 71 -10 l 405 924 q 504 1037 446 1037 q 602 924 562 1037 m 504 791 l 391 477 l 616 479 l 504 791 z "},"ā":{"ha":711,"x_min":35,"x_max":660,"o":"m 233 897 l 581 899 q 649 847 648 899 q 584 794 649 794 l 228 795 q 180 845 180 795 q 233 897 180 897 m 342 -38 q 35 288 37 -39 q 175 616 33 500 q 515 693 338 749 q 576 701 535 710 q 642 595 658 682 q 623 307 627 511 q 660 76 621 144 q 644 -38 718 -23 q 545 34 559 -56 q 342 -38 405 -37 m 420 98 q 505 157 445 107 q 512 558 481 448 q 374 582 446 600 q 294 547 324 570 q 168 300 174 460 q 310 83 170 93 q 420 98 369 79 z "},"Ă":{"ha":1016,"x_min":103,"x_max":905,"o":"m 506 1218 q 685 1316 651 1215 q 764 1392 715 1409 q 788 1295 815 1374 q 503 1120 727 1118 q 233 1278 294 1121 q 252 1392 192 1380 q 328 1329 313 1403 q 506 1218 347 1222 m 602 924 l 905 83 q 871 -30 938 -10 q 773 45 806 -49 l 667 340 l 341 340 l 235 45 q 137 -30 202 -48 q 103 83 71 -10 l 405 924 q 504 1037 446 1037 q 602 924 562 1037 m 504 791 l 391 477 l 616 479 l 504 791 z "},"ă":{"ha":711,"x_min":35,"x_max":660,"o":"m 367 892 q 546 991 512 889 q 625 1067 576 1084 q 649 969 676 1048 q 364 794 588 793 q 94 952 155 795 q 113 1066 53 1055 q 189 1003 174 1078 q 367 892 208 897 m 342 -38 q 35 288 37 -39 q 175 616 33 500 q 515 693 338 749 q 576 701 535 710 q 642 595 658 682 q 623 307 627 511 q 660 76 621 144 q 644 -38 718 -23 q 545 34 559 -56 q 342 -38 405 -37 m 420 98 q 505 157 445 107 q 512 558 481 448 q 374 582 446 600 q 294 547 324 570 q 168 300 174 460 q 310 83 170 93 q 420 98 369 79 z "},"Ą":{"ha":1016,"x_min":103,"x_max":1002,"o":"m 901 36 q 876 -29 922 -15 q 819 -52 836 -41 q 760 -122 760 -89 q 814 -188 760 -178 q 899 -176 857 -196 q 960 -157 945 -155 q 1002 -185 1000 -161 q 968 -255 1008 -230 q 827 -294 900 -297 q 686 -220 716 -289 q 722 -1 630 -94 q 831 56 766 45 q 901 36 890 65 m 602 924 l 905 83 q 871 -30 938 -10 q 773 45 806 -49 l 667 340 l 341 340 l 235 45 q 137 -30 202 -48 q 103 83 71 -10 l 405 924 q 504 1037 446 1037 q 602 924 562 1037 m 504 791 l 391 477 l 616 479 l 504 791 z "},"ą":{"ha":711,"x_min":35,"x_max":774,"o":"m 673 37 q 648 -28 693 -14 q 591 -52 608 -41 q 531 -121 531 -88 q 585 -187 531 -177 q 671 -176 628 -195 q 732 -156 717 -155 q 774 -184 771 -160 q 739 -254 780 -229 q 599 -293 671 -296 q 457 -220 488 -288 q 494 0 401 -94 q 602 56 538 46 q 673 37 661 66 m 342 -38 q 35 288 37 -39 q 175 616 33 500 q 515 693 338 749 q 576 701 535 710 q 642 595 658 682 q 623 307 627 511 q 660 76 621 144 q 644 -38 718 -23 q 545 34 559 -56 q 342 -38 405 -37 m 420 98 q 505 157 445 107 q 512 558 481 448 q 374 582 446 600 q 294 547 324 570 q 168 300 174 460 q 310 83 170 93 q 420 98 369 79 z "},"Ć":{"ha":837,"x_min":52,"x_max":781,"o":"m 752 1423 q 762 1337 803 1383 l 601 1161 q 503 1134 542 1096 q 522 1239 467 1170 l 663 1415 q 752 1423 702 1463 m 370 844 q 256 716 305 801 q 200 456 200 621 q 264 206 200 305 q 402 124 316 128 q 591 161 525 118 q 726 215 688 223 q 781 111 791 203 q 645 6 776 60 q 412 -34 537 -39 q 151 100 248 -28 q 52 440 52 231 q 143 820 52 690 q 424 1031 276 1007 q 678 996 565 1053 q 767 913 764 951 q 743 838 770 863 q 644 828 695 793 q 537 874 597 860 q 370 844 447 895 z "},"ć":{"ha":713,"x_min":64,"x_max":662,"o":"m 652 1101 q 662 1015 703 1061 l 501 839 q 404 812 442 774 q 422 917 367 848 l 564 1093 q 652 1101 602 1141 m 550 143 q 648 119 610 183 q 612 31 670 81 q 378 -33 538 -33 q 168 49 252 -32 q 64 300 64 149 q 138 574 64 467 q 366 713 228 703 q 513 698 447 720 q 623 628 595 670 q 618 530 664 563 q 520 555 586 507 q 340 583 441 614 q 239 500 284 565 q 185 329 187 425 q 238 163 183 238 q 378 92 288 96 q 550 143 470 89 z "},"Ĉ":{"ha":837,"x_min":52,"x_max":781,"o":"m 370 844 q 256 716 305 801 q 200 456 200 621 q 264 206 200 305 q 402 124 316 128 q 591 161 525 118 q 726 215 688 223 q 781 111 791 203 q 645 6 776 60 q 412 -34 537 -39 q 151 100 248 -28 q 52 440 52 231 q 143 820 52 690 q 424 1031 276 1007 q 678 996 565 1053 q 767 913 764 951 q 743 838 770 863 q 644 828 695 793 q 537 874 597 860 q 370 844 447 895 z "},"ĉ":{"ha":713,"x_min":64,"x_max":665,"o":"m 550 143 q 648 119 610 183 q 612 31 670 81 q 378 -33 538 -33 q 168 49 252 -32 q 64 300 64 149 q 138 574 64 467 q 366 713 228 703 q 513 698 447 720 q 623 628 595 670 q 618 530 664 563 q 520 555 586 507 q 340 583 441 614 q 239 500 284 565 q 185 329 187 425 q 238 163 183 238 q 378 92 288 96 q 550 143 470 89 z "},"Ċ":{"ha":837,"x_min":52,"x_max":781,"o":"m 370 844 q 256 716 305 801 q 200 456 200 621 q 264 206 200 305 q 402 124 316 128 q 591 161 525 118 q 726 215 688 223 q 781 111 791 203 q 645 6 776 60 q 412 -34 537 -39 q 151 100 248 -28 q 52 440 52 231 q 143 820 52 690 q 424 1031 276 1007 q 678 996 565 1053 q 767 913 764 951 q 743 838 770 863 q 644 828 695 793 q 537 874 597 860 q 370 844 447 895 z "},"ċ":{"ha":713,"x_min":64,"x_max":648,"o":"m 550 143 q 648 119 610 183 q 612 31 670 81 q 378 -33 538 -33 q 168 49 252 -32 q 64 300 64 149 q 138 574 64 467 q 366 713 228 703 q 513 698 447 720 q 623 628 595 670 q 618 530 664 563 q 520 555 586 507 q 340 583 441 614 q 239 500 284 565 q 185 329 187 425 q 238 163 183 238 q 378 92 288 96 q 550 143 470 89 z "},"Č":{"ha":837,"x_min":52,"x_max":781,"o":"m 510 1120 q 458 1147 485 1119 l 297 1325 q 285 1400 256 1370 q 370 1402 330 1447 l 510 1250 l 649 1402 q 735 1400 690 1447 q 722 1325 764 1371 l 561 1147 q 510 1120 535 1119 m 370 844 q 256 716 305 801 q 200 456 200 621 q 264 206 200 305 q 402 124 316 128 q 591 161 525 118 q 726 215 688 223 q 781 111 791 203 q 645 6 776 60 q 412 -34 537 -39 q 151 100 248 -28 q 52 440 52 231 q 143 820 52 690 q 424 1031 276 1007 q 678 996 565 1053 q 767 913 764 951 q 743 838 770 863 q 644 828 695 793 q 537 874 597 860 q 370 844 447 895 z "},"č":{"ha":713,"x_min":64,"x_max":648,"o":"m 410 798 q 359 825 385 797 l 197 1003 q 185 1078 157 1048 q 271 1080 230 1125 l 410 928 l 549 1080 q 635 1078 591 1124 q 623 1003 664 1048 l 461 825 q 410 798 435 797 m 550 143 q 648 119 610 183 q 612 31 670 81 q 378 -33 538 -33 q 168 49 252 -32 q 64 300 64 149 q 138 574 64 467 q 366 713 228 703 q 513 698 447 720 q 623 628 595 670 q 618 530 664 563 q 520 555 586 507 q 340 583 441 614 q 239 500 284 565 q 185 329 187 425 q 238 163 183 238 q 378 92 288 96 q 550 143 470 89 z "},"Ď":{"ha":1002,"x_min":125,"x_max":933,"o":"m 559 1117 q 508 1145 534 1116 l 347 1322 q 334 1398 306 1367 q 420 1399 379 1444 l 559 1247 l 699 1399 q 785 1398 740 1444 q 772 1322 813 1368 l 610 1145 q 559 1117 585 1116 m 210 1034 q 240 1031 227 1034 q 256 1029 248 1030 q 684 843 499 1001 q 933 366 949 617 q 741 35 923 182 q 414 -36 656 -33 q 208 -35 271 -38 q 184 -37 198 -37 q 125 35 123 -35 l 148 974 q 210 1034 149 1034 m 277 875 l 260 94 l 406 92 q 698 173 629 97 q 796 372 790 275 q 599 733 808 541 q 277 875 457 865 z "},"ď":{"ha":1152,"x_min":67,"x_max":1018,"o":"m 963 794 q 863 758 904 728 q 861 860 817 791 q 897 922 883 896 q 849 1000 852 949 q 914 1086 845 1077 q 1018 1025 1001 1097 q 1016 919 1030 975 q 963 794 994 828 m 680 1092 q 749 1025 750 1092 l 728 43 q 654 -29 727 -31 q 595 29 600 -28 q 380 -34 494 -35 q 173 56 263 -33 q 67 290 73 156 q 161 593 61 470 q 407 709 255 709 q 549 674 488 709 q 608 637 581 656 l 617 1029 q 680 1092 618 1090 m 597 182 q 604 481 604 323 q 368 577 484 606 q 244 509 282 556 q 188 322 191 442 q 244 170 186 245 q 380 98 290 109 q 597 182 475 87 z "},"Đ":{"ha":1002,"x_min":-30,"x_max":933,"o":"m 43 395 q -30 461 -32 395 q 47 531 -28 531 l 442 531 q 519 457 518 531 q 445 395 521 395 l 43 395 m 210 1034 q 240 1031 227 1034 q 256 1029 248 1030 q 684 843 499 1001 q 933 366 949 617 q 741 35 923 182 q 414 -36 656 -33 q 208 -35 271 -38 q 184 -37 198 -37 q 125 35 123 -35 l 148 974 q 210 1034 149 1034 m 277 875 l 260 94 l 406 92 q 698 173 629 97 q 796 372 790 275 q 599 733 808 541 q 277 875 457 865 z "},"đ":{"ha":837,"x_min":67,"x_max":827,"o":"m 412 806 q 359 854 359 806 q 414 911 361 912 l 777 907 q 827 850 829 907 q 774 802 827 801 l 412 806 m 680 1092 q 749 1025 750 1092 l 728 43 q 654 -29 727 -31 q 595 29 600 -28 q 380 -34 494 -35 q 173 56 263 -33 q 67 290 73 156 q 161 593 61 470 q 407 709 255 709 q 549 674 488 709 q 608 637 581 656 l 617 1029 q 680 1092 618 1090 m 597 182 q 604 481 604 323 q 368 577 484 606 q 244 509 282 556 q 188 322 191 442 q 244 170 186 245 q 380 98 290 109 q 597 182 475 87 z "},"Ē":{"ha":867,"x_min":112,"x_max":807,"o":"m 383 1213 l 731 1215 q 800 1163 799 1215 q 734 1110 800 1110 l 378 1111 q 331 1161 331 1111 q 383 1213 331 1213 m 239 1018 l 709 1021 q 807 943 805 1021 q 713 880 809 880 q 265 878 489 879 l 259 635 l 634 637 q 732 559 730 637 q 638 496 734 498 l 256 494 l 247 113 l 667 115 q 765 38 763 116 q 671 -25 767 -24 l 197 -28 q 182 -26 189 -28 q 171 -26 176 -26 q 112 43 110 -25 l 134 960 q 198 1019 136 1018 q 223 1017 212 1019 q 239 1018 231 1018 z "},"ē":{"ha":761,"x_min":60,"x_max":722,"o":"m 233 902 l 581 903 q 650 852 649 903 q 585 799 650 799 l 229 800 q 181 850 181 800 q 233 902 181 902 m 176 294 q 245 159 179 217 q 416 93 321 92 q 602 147 554 94 q 676 204 647 198 q 722 184 709 211 q 692 66 754 121 q 408 -29 584 -31 q 181 52 278 -28 q 60 321 60 151 q 136 570 60 460 q 382 715 231 706 q 627 638 538 725 q 707 453 710 557 q 631 359 704 370 l 176 294 m 191 406 l 589 464 q 528 556 579 523 q 401 593 468 594 q 239 510 307 593 q 191 406 210 473 z "},"Ĕ":{"ha":867,"x_min":112,"x_max":807,"o":"m 503 1208 q 682 1307 648 1205 q 760 1383 712 1400 q 785 1285 812 1364 q 500 1110 724 1109 q 229 1268 291 1112 q 249 1382 189 1371 q 324 1319 310 1394 q 503 1208 344 1213 m 239 1018 l 709 1021 q 807 943 805 1021 q 713 880 809 880 q 265 878 489 879 l 259 635 l 634 637 q 732 559 730 637 q 638 496 734 498 l 256 494 l 247 113 l 667 115 q 765 38 763 116 q 671 -25 767 -24 l 197 -28 q 182 -26 189 -28 q 171 -26 176 -26 q 112 43 110 -25 l 134 960 q 198 1019 136 1018 q 223 1017 212 1019 q 239 1018 231 1018 z "},"ĕ":{"ha":761,"x_min":60,"x_max":722,"o":"m 414 897 q 593 996 559 894 q 672 1072 624 1088 q 696 974 724 1053 q 412 799 635 798 q 141 957 203 800 q 161 1071 100 1059 q 236 1008 222 1082 q 414 897 256 901 m 176 294 q 245 159 179 217 q 416 93 321 92 q 602 147 554 94 q 676 204 647 198 q 722 184 709 211 q 692 66 754 121 q 408 -29 584 -31 q 181 52 278 -28 q 60 321 60 151 q 136 570 60 460 q 382 715 231 706 q 627 638 538 725 q 707 453 710 557 q 631 359 704 370 l 176 294 m 191 406 l 589 464 q 528 556 579 523 q 401 593 468 594 q 239 510 307 593 q 191 406 210 473 z "},"Ė":{"ha":867,"x_min":112,"x_max":807,"o":"m 239 1018 l 709 1021 q 807 943 805 1021 q 713 880 809 880 q 265 878 489 879 l 259 635 l 634 637 q 732 559 730 637 q 638 496 734 498 l 256 494 l 247 113 l 667 115 q 765 38 763 116 q 671 -25 767 -24 l 197 -28 q 182 -26 189 -28 q 171 -26 176 -26 q 112 43 110 -25 l 134 960 q 198 1019 136 1018 q 223 1017 212 1019 q 239 1018 231 1018 z "},"ė":{"ha":761,"x_min":60,"x_max":722,"o":"m 176 294 q 245 159 179 217 q 416 93 321 92 q 602 147 554 94 q 676 204 647 198 q 722 184 709 211 q 692 66 754 121 q 408 -29 584 -31 q 181 52 278 -28 q 60 321 60 151 q 136 570 60 460 q 382 715 231 706 q 627 638 538 725 q 707 453 710 557 q 631 359 704 370 l 176 294 m 191 406 l 589 464 q 528 556 579 523 q 401 593 468 594 q 239 510 307 593 q 191 406 210 473 z "},"Ę":{"ha":867,"x_min":112,"x_max":852,"o":"m 751 54 q 726 -12 772 3 q 669 -35 686 -24 q 610 -104 610 -71 q 664 -170 610 -160 q 749 -159 707 -178 q 810 -139 795 -138 q 852 -168 850 -143 q 818 -237 859 -212 q 677 -276 750 -279 q 536 -203 566 -271 q 572 17 480 -77 q 681 73 616 63 q 751 54 740 83 m 239 1018 l 709 1021 q 807 943 805 1021 q 713 880 809 880 q 265 878 489 879 l 259 635 l 634 637 q 732 559 730 637 q 638 496 734 498 l 256 494 l 247 113 l 667 115 q 765 38 763 116 q 671 -25 767 -24 l 197 -28 q 182 -26 189 -28 q 171 -26 176 -26 q 112 43 110 -25 l 134 960 q 198 1019 136 1018 q 223 1017 212 1019 q 239 1018 231 1018 z "},"ę":{"ha":761,"x_min":60,"x_max":745,"o":"m 644 85 q 618 20 664 34 q 562 -3 578 7 q 502 -73 502 -40 q 556 -139 502 -129 q 642 -127 599 -147 q 703 -108 688 -106 q 745 -136 742 -112 q 710 -206 751 -181 q 570 -245 642 -248 q 428 -172 458 -240 q 465 48 372 -45 q 573 104 509 94 q 644 85 632 114 m 176 294 q 245 159 179 217 q 416 93 321 92 q 602 147 554 94 q 676 204 647 198 q 722 184 709 211 q 692 66 754 121 q 408 -29 584 -31 q 181 52 278 -28 q 60 321 60 151 q 136 570 60 460 q 382 715 231 706 q 627 638 538 725 q 707 453 710 557 q 631 359 704 370 l 176 294 m 191 406 l 589 464 q 528 556 579 523 q 401 593 468 594 q 239 510 307 593 q 191 406 210 473 z "},"Ě":{"ha":867,"x_min":112,"x_max":807,"o":"m 520 1114 q 469 1142 495 1114 l 307 1320 q 295 1395 267 1364 q 380 1396 340 1442 l 520 1244 l 659 1396 q 745 1395 701 1441 q 732 1320 774 1365 l 571 1142 q 520 1114 545 1114 m 239 1018 l 709 1021 q 807 943 805 1021 q 713 880 809 880 q 265 878 489 879 l 259 635 l 634 637 q 732 559 730 637 q 638 496 734 498 l 256 494 l 247 113 l 667 115 q 765 38 763 116 q 671 -25 767 -24 l 197 -28 q 182 -26 189 -28 q 171 -26 176 -26 q 112 43 110 -25 l 134 960 q 198 1019 136 1018 q 223 1017 212 1019 q 239 1018 231 1018 z "},"ě":{"ha":761,"x_min":60,"x_max":722,"o":"m 421 799 q 370 827 396 798 l 208 1004 q 196 1080 168 1049 q 281 1081 241 1126 l 421 929 l 560 1081 q 646 1080 602 1126 q 633 1004 675 1050 l 472 827 q 421 799 446 798 m 176 294 q 245 159 179 217 q 416 93 321 92 q 602 147 554 94 q 676 204 647 198 q 722 184 709 211 q 692 66 754 121 q 408 -29 584 -31 q 181 52 278 -28 q 60 321 60 151 q 136 570 60 460 q 382 715 231 706 q 627 638 538 725 q 707 453 710 557 q 631 359 704 370 l 176 294 m 191 406 l 589 464 q 528 556 579 523 q 401 593 468 594 q 239 510 307 593 q 191 406 210 473 z "},"Ĝ":{"ha":944,"x_min":52,"x_max":901,"o":"m 644 187 q 733 376 715 254 l 484 374 q 397 446 399 373 q 495 515 395 513 l 842 520 q 901 453 906 521 q 749 75 880 195 q 412 -33 624 -39 q 151 102 250 -28 q 52 441 52 232 q 155 842 52 690 q 424 1023 257 993 q 707 985 595 1051 q 837 856 819 917 q 812 764 854 794 q 690 814 766 732 q 519 884 629 880 q 377 848 453 887 q 248 717 296 806 q 193 457 193 614 q 254 207 193 286 q 410 111 323 116 q 644 187 555 103 z "},"ĝ":{"ha":737,"x_min":41,"x_max":708,"o":"m 538 407 q 547 489 549 470 q 441 576 543 575 q 280 530 353 576 q 182 321 198 479 q 298 129 163 140 q 502 241 446 117 q 538 407 515 264 m 629 633 q 684 541 691 622 l 632 -44 q 243 -383 600 -409 q 77 -354 120 -374 q 41 -278 29 -331 q 117 -235 54 -219 q 333 -250 244 -265 q 500 -43 483 -224 l 511 69 q 276 -5 454 -22 q 60 420 -24 23 q 387 714 117 686 q 614 634 572 733 q 629 633 621 634 z "},"Ğ":{"ha":944,"x_min":52,"x_max":901,"o":"m 524 1213 q 703 1311 669 1209 q 781 1387 733 1404 q 806 1289 833 1369 q 521 1114 745 1113 q 250 1272 312 1116 q 270 1386 210 1375 q 345 1323 331 1398 q 524 1213 365 1217 m 644 187 q 733 376 715 254 l 484 374 q 397 446 399 373 q 495 515 395 513 l 842 520 q 901 453 906 521 q 749 75 880 195 q 412 -33 624 -39 q 151 102 250 -28 q 52 441 52 232 q 155 842 52 690 q 424 1023 257 993 q 707 985 595 1051 q 837 856 819 917 q 812 764 854 794 q 690 814 766 732 q 519 884 629 880 q 377 848 453 887 q 248 717 296 806 q 193 457 193 614 q 254 207 193 286 q 410 111 323 116 q 644 187 555 103 z "},"ğ":{"ha":737,"x_min":41,"x_max":727,"o":"m 445 899 q 624 997 590 895 q 703 1073 654 1090 q 727 975 754 1055 q 442 800 666 799 q 172 958 233 802 q 191 1072 131 1061 q 267 1009 252 1084 q 445 899 286 903 m 538 407 q 547 489 549 470 q 441 576 543 575 q 280 530 353 576 q 182 321 198 479 q 298 129 163 140 q 502 241 446 117 q 538 407 515 264 m 629 633 q 684 541 691 622 l 632 -44 q 243 -383 600 -409 q 77 -354 120 -374 q 41 -278 29 -331 q 117 -235 54 -219 q 333 -250 244 -265 q 500 -43 483 -224 l 511 69 q 276 -5 454 -22 q 60 420 -24 23 q 387 714 117 686 q 614 634 572 733 q 629 633 621 634 z "},"Ġ":{"ha":944,"x_min":52,"x_max":901,"o":"m 644 187 q 733 376 715 254 l 484 374 q 397 446 399 373 q 495 515 395 513 l 842 520 q 901 453 906 521 q 749 75 880 195 q 412 -33 624 -39 q 151 102 250 -28 q 52 441 52 232 q 155 842 52 690 q 424 1023 257 993 q 707 985 595 1051 q 837 856 819 917 q 812 764 854 794 q 690 814 766 732 q 519 884 629 880 q 377 848 453 887 q 248 717 296 806 q 193 457 193 614 q 254 207 193 286 q 410 111 323 116 q 644 187 555 103 z "},"ġ":{"ha":737,"x_min":41,"x_max":684,"o":"m 538 407 q 547 489 549 470 q 441 576 543 575 q 280 530 353 576 q 182 321 198 479 q 298 129 163 140 q 502 241 446 117 q 538 407 515 264 m 629 633 q 684 541 691 622 l 632 -44 q 243 -383 600 -409 q 77 -354 120 -374 q 41 -278 29 -331 q 117 -235 54 -219 q 333 -250 244 -265 q 500 -43 483 -224 l 511 69 q 276 -5 454 -22 q 60 420 -24 23 q 387 714 117 686 q 614 634 572 733 q 629 633 621 634 z "},"Ģ":{"ha":944,"x_min":52,"x_max":901,"o":"m 304 74 q 349 102 311 100 q 520 24 435 105 q 565 -204 625 -73 q 422 -277 534 -273 q 283 -239 351 -281 q 248 -169 242 -214 q 290 -140 250 -144 q 351 -159 306 -139 q 436 -172 398 -180 q 478 -117 478 -161 q 410 -24 479 -59 q 338 5 378 -7 q 304 74 290 18 m 644 187 q 733 376 715 254 l 484 374 q 397 446 399 373 q 495 515 395 513 l 842 520 q 901 453 906 521 q 749 75 880 195 q 412 -33 624 -39 q 151 102 250 -28 q 52 441 52 232 q 155 842 52 690 q 424 1023 257 993 q 707 985 595 1051 q 837 856 819 917 q 812 764 854 794 q 690 814 766 732 q 519 884 629 880 q 377 848 453 887 q 248 717 296 806 q 193 457 193 614 q 254 207 193 286 q 410 111 323 116 q 644 187 555 103 z "},"ģ":{"ha":737,"x_min":41,"x_max":684,"o":"m 366 1103 q 465 1139 425 1170 q 469 1037 511 1105 q 432 975 446 1001 q 480 897 477 948 q 415 812 484 821 q 311 873 328 801 q 313 978 299 922 q 366 1103 336 1069 m 538 407 q 547 489 549 470 q 441 576 543 575 q 280 530 353 576 q 182 321 198 479 q 298 129 163 140 q 502 241 446 117 q 538 407 515 264 m 629 633 q 684 541 691 622 l 632 -44 q 243 -383 600 -409 q 77 -354 120 -374 q 41 -278 29 -331 q 117 -235 54 -219 q 333 -250 244 -265 q 500 -43 483 -224 l 511 69 q 276 -5 454 -22 q 60 420 -24 23 q 387 714 117 686 q 614 634 572 733 q 629 633 621 634 z "},"Ĥ":{"ha":1067,"x_min":108,"x_max":982,"o":"m 194 1026 q 263 963 264 1026 l 254 570 l 840 570 l 850 966 q 913 1025 852 1024 q 982 962 983 1025 l 961 37 q 887 -31 960 -33 q 827 39 826 -30 q 837 428 832 233 l 250 428 l 241 38 q 167 -31 240 -32 q 108 39 106 -30 l 130 966 q 194 1026 132 1025 z "},"ĥ":{"ha":802,"x_min":100,"x_max":739,"o":"m 186 1093 q 255 1025 256 1093 l 248 623 q 474 702 333 702 q 726 393 728 701 l 723 49 q 658 -39 722 -33 q 586 37 585 -45 l 588 361 q 479 551 589 542 q 248 435 354 562 l 233 43 q 159 -29 231 -31 q 100 45 98 -28 l 122 1029 q 186 1093 123 1091 z "},"Ħ":{"ha":1067,"x_min":-24,"x_max":1090,"o":"m 55 750 q -24 815 -24 750 q 67 882 -24 882 l 998 884 q 1090 818 1089 884 q 1005 750 1090 750 l 55 750 m 194 1026 q 263 963 264 1026 l 254 570 l 840 570 l 850 966 q 913 1025 852 1024 q 982 962 983 1025 l 961 37 q 887 -31 960 -33 q 827 39 826 -30 q 837 428 832 233 l 250 428 l 241 38 q 167 -31 240 -32 q 108 39 106 -30 l 130 966 q 194 1026 132 1025 z "},"ħ":{"ha":802,"x_min":-1,"x_max":726,"o":"m 51 802 q -1 859 -1 803 q 57 919 -1 919 l 441 920 q 517 862 516 920 q 445 802 517 802 q 51 802 443 800 m 186 1093 q 255 1025 256 1093 l 248 623 q 474 702 333 702 q 726 393 728 701 l 723 49 q 658 -39 722 -33 q 586 37 585 -45 l 588 361 q 479 551 589 542 q 248 435 354 562 l 233 43 q 159 -29 231 -31 q 100 45 98 -28 l 122 1029 q 186 1093 123 1091 z "},"Ĩ":{"ha":759,"x_min":45,"x_max":724,"o":"m 146 1013 l 641 1013 q 724 940 723 1013 q 637 873 726 873 l 433 873 l 414 112 l 631 112 q 715 39 713 112 q 627 -28 716 -28 l 131 -28 q 45 48 45 -28 q 137 112 45 113 l 281 112 l 301 873 l 140 873 q 55 949 55 873 q 146 1013 55 1013 z "},"ĩ":{"ha":389,"x_min":-96,"x_max":522,"o":"m 207 710 q 270 622 271 709 l 260 58 q 195 -34 259 -34 q 125 52 123 -33 l 136 621 q 207 710 138 711 z "},"Ī":{"ha":759,"x_min":45,"x_max":724,"o":"m 216 1211 l 564 1213 q 632 1161 631 1213 q 567 1108 632 1108 l 211 1109 q 163 1159 163 1109 q 216 1211 163 1211 m 146 1013 l 641 1013 q 724 940 723 1013 q 637 873 726 873 l 433 873 l 414 112 l 631 112 q 715 39 713 112 q 627 -28 716 -28 l 131 -28 q 45 48 45 -28 q 137 112 45 113 l 281 112 l 301 873 l 140 873 q 55 949 55 873 q 146 1013 55 1013 z "},"ī":{"ha":389,"x_min":-25,"x_max":444,"o":"m 27 897 l 375 899 q 444 847 443 899 q 378 794 444 794 l 22 795 q -25 845 -25 795 q 27 897 -25 897 m 207 710 q 270 622 271 709 l 260 58 q 195 -34 259 -34 q 125 52 123 -33 l 136 621 q 207 710 138 711 z "},"Ĭ":{"ha":759,"x_min":45,"x_max":724,"o":"m 396 1206 q 575 1305 541 1203 q 654 1381 606 1398 q 678 1283 705 1362 q 393 1108 617 1107 q 123 1266 184 1109 q 142 1380 82 1369 q 218 1317 203 1392 q 396 1206 237 1211 m 146 1013 l 641 1013 q 724 940 723 1013 q 637 873 726 873 l 433 873 l 414 112 l 631 112 q 715 39 713 112 q 627 -28 716 -28 l 131 -28 q 45 48 45 -28 q 137 112 45 113 l 281 112 l 301 873 l 140 873 q 55 949 55 873 q 146 1013 55 1013 z "},"ĭ":{"ha":389,"x_min":-65,"x_max":490,"o":"m 208 892 q 387 991 353 889 q 466 1067 418 1084 q 490 969 517 1048 q 205 794 429 793 q -65 952 -3 795 q -45 1066 -106 1055 q 30 1003 16 1078 q 208 892 50 897 m 207 710 q 270 622 271 709 l 260 58 q 195 -34 259 -34 q 125 52 123 -33 l 136 621 q 207 710 138 711 z "},"Į":{"ha":759,"x_min":45,"x_max":724,"o":"m 425 96 q 400 31 446 45 q 343 8 360 19 q 283 -62 283 -28 q 338 -127 283 -117 q 423 -116 380 -136 q 484 -96 469 -95 q 526 -125 524 -100 q 492 -195 532 -170 q 351 -233 424 -237 q 210 -160 240 -229 q 246 60 154 -34 q 355 116 290 106 q 425 96 414 125 m 146 1013 l 641 1013 q 724 940 723 1013 q 637 873 726 873 l 433 873 l 414 112 l 631 112 q 715 39 713 112 q 627 -28 716 -28 l 131 -28 q 45 48 45 -28 q 137 112 45 113 l 281 112 l 301 873 l 140 873 q 55 949 55 873 q 146 1013 55 1013 z "},"į":{"ha":389,"x_min":26,"x_max":342,"o":"m 241 96 q 216 31 262 45 q 159 8 176 19 q 100 -62 100 -28 q 154 -127 100 -117 q 239 -116 197 -136 q 300 -96 286 -95 q 342 -125 340 -100 q 308 -195 349 -170 q 168 -233 240 -237 q 26 -160 56 -229 q 62 60 -30 -34 q 171 116 106 106 q 241 96 230 125 m 212 1018 q 214 1018 213 1018 q 257 1006 237 1018 q 289 972 278 994 q 298 933 298 954 q 298 926 298 930 q 281 882 296 902 q 252 857 268 865 q 214 849 235 848 q 210 849 212 849 q 171 861 189 850 q 141 890 153 871 q 130 933 130 910 q 140 974 130 955 q 170 1006 152 994 q 212 1018 189 1018 m 207 710 q 270 622 271 709 l 260 58 q 195 -34 259 -34 q 125 52 123 -33 l 136 621 q 207 710 138 711 z "},"İ":{"ha":759,"x_min":45,"x_max":724,"o":"m 146 1013 l 641 1013 q 724 940 723 1013 q 637 873 726 873 l 433 873 l 414 112 l 631 112 q 715 39 713 112 q 627 -28 716 -28 l 131 -28 q 45 48 45 -28 q 137 112 45 113 l 281 112 l 301 873 l 140 873 q 55 949 55 873 q 146 1013 55 1013 z "},"ı":{"ha":389,"x_min":125,"x_max":270,"o":"m 207 710 q 270 622 271 709 l 260 58 q 195 -34 259 -34 q 125 52 123 -33 l 136 621 q 207 710 138 711 z "},"Ĳ":{"ha":1565,"x_min":45,"x_max":1526,"o":"m 948 1016 l 1442 1016 q 1526 946 1525 1016 q 1438 882 1527 882 l 1280 882 l 1280 205 q 1027 -39 1280 -52 q 702 271 681 -23 q 772 332 706 331 q 838 268 838 331 q 1025 95 838 95 q 1141 201 1141 95 l 1141 882 l 942 882 q 857 955 857 882 q 948 1016 857 1016 m 146 1013 l 641 1013 q 724 940 723 1013 q 637 873 726 873 l 433 873 l 414 112 l 631 112 q 715 39 713 112 q 627 -28 716 -28 l 131 -28 q 45 48 45 -28 q 137 112 45 113 l 281 112 l 301 873 l 140 873 q 55 949 55 873 q 146 1013 55 1013 z "},"ĳ":{"ha":736,"x_min":111,"x_max":615,"o":"m 528 1023 q 531 1023 530 1023 q 574 1011 554 1023 q 606 977 595 999 q 615 938 615 959 q 615 931 615 935 q 598 887 613 907 q 568 862 585 869 q 530 854 551 853 q 526 854 528 854 q 488 865 505 854 q 458 895 469 876 q 446 938 446 915 q 457 979 446 960 q 486 1010 469 998 q 528 1023 505 1023 m 511 711 q 580 637 581 711 l 568 -157 q 568 -161 568 -159 q 376 -409 568 -409 q 363 -409 370 -409 q 140 -252 205 -402 q 111 -145 111 -186 q 151 -87 111 -98 q 182 -83 168 -83 q 260 -169 243 -83 q 365 -262 280 -262 q 430 -157 428 -262 l 445 637 q 511 711 446 711 m 212 1018 q 214 1018 213 1018 q 257 1006 237 1018 q 289 972 278 994 q 298 933 298 954 q 298 926 298 930 q 281 882 296 902 q 252 857 268 865 q 214 849 235 848 q 210 849 212 849 q 171 861 189 850 q 141 890 153 871 q 130 933 130 910 q 140 974 130 955 q 170 1006 152 994 q 212 1018 189 1018 m 207 710 q 270 622 271 709 l 260 58 q 195 -34 259 -34 q 125 52 123 -33 l 136 621 q 207 710 138 711 z "},"Ĵ":{"ha":924,"x_min":68,"x_max":892,"o":"m 314 1016 l 808 1016 q 892 946 890 1016 q 804 882 893 882 l 646 882 l 646 205 q 393 -39 646 -52 q 68 271 47 -23 q 138 332 72 331 q 204 268 204 331 q 391 95 204 95 q 507 201 507 95 l 507 882 l 308 882 q 222 955 222 882 q 314 1016 222 1016 z "},"ĵ":{"ha":560,"x_min":-48,"x_max":621,"o":"m 359 1117 q 418 1084 388 1118 l 607 877 q 621 789 654 825 q 522 787 569 735 l 359 965 l 197 787 q 97 789 150 735 q 112 877 64 825 l 300 1084 q 359 1117 330 1118 m 352 711 q 420 637 422 711 l 409 -157 q 409 -161 409 -159 q 217 -409 409 -409 q 203 -409 210 -409 q -19 -252 46 -402 q -48 -145 -48 -186 q -9 -87 -48 -98 q 22 -83 8 -83 q 101 -169 83 -83 q 205 -262 121 -262 q 271 -157 269 -262 l 286 637 q 352 711 287 711 z "},"Ķ":{"ha":848,"x_min":144,"x_max":821,"o":"m 359 74 q 404 102 366 100 q 575 24 490 105 q 620 -204 680 -73 q 477 -277 589 -273 q 338 -239 406 -281 q 302 -169 297 -214 q 345 -140 305 -144 q 406 -159 361 -139 q 491 -172 453 -180 q 533 -117 533 -161 q 465 -24 534 -59 q 393 5 433 -7 q 359 74 345 18 m 231 1031 q 300 968 301 1031 l 290 572 l 678 986 q 783 994 732 1044 q 784 895 833 945 l 376 474 l 802 117 q 821 20 865 64 q 709 28 774 -26 l 286 378 l 278 31 q 203 -39 277 -40 q 144 32 142 -37 l 167 971 q 231 1031 168 1030 z "},"ķ":{"ha":750,"x_min":112,"x_max":713,"o":"m 302 74 q 347 102 309 100 q 518 24 433 105 q 563 -204 623 -73 q 420 -277 532 -273 q 281 -239 349 -281 q 245 -169 240 -214 q 288 -140 248 -144 q 349 -159 304 -139 q 434 -172 396 -180 q 476 -117 476 -161 q 408 -24 477 -59 q 336 5 376 -7 q 302 74 288 18 m 198 1092 q 267 1025 269 1092 l 254 425 l 564 709 q 681 727 637 776 q 670 624 727 674 l 465 439 l 699 117 q 713 0 754 40 q 595 16 650 -63 l 365 348 l 250 244 l 245 43 q 171 -29 244 -31 q 112 45 110 -28 l 134 1029 q 198 1092 136 1090 z "},"ĸ":{"ha":750,"x_min":89,"x_max":690,"o":"m 165 787 q 235 720 235 787 l 231 425 l 541 709 q 658 727 614 776 q 647 624 704 674 l 442 439 l 675 117 q 690 0 731 40 q 572 15 627 -64 l 342 348 l 227 244 l 222 43 q 148 -29 221 -31 q 89 45 87 -28 l 102 724 q 165 787 104 786 z "},"Ĺ":{"ha":765,"x_min":71,"x_max":736,"o":"m 680 1427 q 689 1341 730 1387 l 528 1165 q 431 1138 469 1100 q 450 1243 394 1174 l 591 1419 q 680 1427 629 1468 m 130 -30 q 71 41 69 -31 l 94 981 q 157 1041 95 1040 q 227 977 228 1041 l 206 110 l 669 120 q 736 50 736 121 q 671 -21 736 -20 l 144 -30 q 130 -30 144 -30 z "},"ĺ":{"ha":380,"x_min":118,"x_max":465,"o":"m 455 1478 q 465 1392 506 1438 l 304 1216 q 206 1189 245 1151 q 225 1294 170 1225 l 366 1470 q 455 1478 405 1518 m 203 1092 q 273 1025 274 1092 l 252 43 q 178 -29 251 -31 q 118 45 117 -28 l 141 1029 q 203 1092 142 1090 z "},"Ļ":{"ha":765,"x_min":71,"x_max":736,"o":"m 307 50 q 351 77 313 76 q 522 0 437 81 q 567 -229 627 -97 q 425 -302 536 -297 q 285 -263 353 -305 q 250 -193 244 -238 q 292 -165 252 -169 q 353 -184 308 -163 q 438 -196 400 -205 q 480 -142 480 -186 q 412 -48 481 -83 q 340 -20 380 -31 q 307 50 292 -7 m 130 -30 q 71 41 69 -31 l 94 981 q 157 1041 95 1040 q 227 977 228 1041 l 206 110 l 669 120 q 736 50 736 121 q 671 -21 736 -20 l 144 -30 q 130 -30 144 -30 z "},"ļ":{"ha":380,"x_min":73,"x_max":390,"o":"m 130 43 q 174 71 136 70 q 345 -6 260 75 q 390 -235 450 -103 q 248 -308 359 -303 q 108 -269 176 -311 q 73 -199 67 -244 q 115 -171 75 -175 q 176 -190 131 -170 q 261 -202 223 -211 q 303 -148 303 -192 q 235 -54 304 -90 q 163 -26 203 -37 q 130 43 115 -13 m 203 1092 q 273 1025 274 1092 l 252 43 q 178 -29 251 -31 q 118 45 117 -28 l 141 1029 q 203 1092 142 1090 z "},"Ľ":{"ha":765,"x_min":71,"x_max":736,"o":"m 471 727 q 372 690 412 661 q 369 793 326 724 q 406 854 391 829 q 357 933 361 882 q 422 1019 353 1010 q 526 958 509 1029 q 524 852 538 907 q 471 727 502 761 m 130 -30 q 71 41 69 -31 l 94 981 q 157 1041 95 1040 q 227 977 228 1041 l 206 110 l 669 120 q 736 50 736 121 q 671 -21 736 -20 l 144 -30 q 130 -30 144 -30 z "},"ľ":{"ha":645,"x_min":118,"x_max":536,"o":"m 481 793 q 381 757 422 727 q 378 859 335 791 q 415 921 401 895 q 367 1000 370 948 q 432 1085 363 1076 q 536 1024 519 1096 q 534 918 548 974 q 481 793 511 827 m 203 1092 q 273 1025 274 1092 l 252 43 q 178 -29 251 -31 q 118 45 117 -28 l 141 1029 q 203 1092 142 1090 z "},"Ŀ":{"ha":765,"x_min":71,"x_max":736,"o":"m 520 498 q 523 498 522 498 q 566 487 546 498 q 597 453 587 475 q 607 414 607 435 q 607 407 607 410 q 590 363 605 382 q 560 338 576 345 q 522 330 543 329 q 518 330 520 330 q 479 341 497 330 q 450 371 461 352 q 438 414 438 391 q 449 454 438 435 q 478 486 460 474 q 520 498 497 498 m 130 -30 q 71 41 69 -31 l 94 981 q 157 1041 95 1040 q 227 977 228 1041 l 206 110 l 669 120 q 736 50 736 121 q 671 -21 736 -20 l 144 -30 q 130 -30 144 -30 z "},"ŀ":{"ha":549,"x_min":118,"x_max":549,"o":"m 462 570 q 465 570 463 570 q 507 558 488 570 q 539 524 528 546 q 549 485 549 506 q 549 478 549 481 q 532 434 547 454 q 502 409 518 416 q 464 401 485 400 q 460 401 462 401 q 421 412 439 401 q 391 442 403 423 q 380 485 380 462 q 391 526 380 507 q 420 557 402 545 q 462 570 439 570 m 203 1092 q 273 1025 274 1092 l 252 43 q 178 -29 251 -31 q 118 45 117 -28 l 141 1029 q 203 1092 142 1090 z "},"Ł":{"ha":765,"x_min":-71,"x_max":736,"o":"m 15 358 q -71 366 -43 321 q -52 468 -110 430 l 302 702 q 404 690 372 749 q 365 584 435 629 l 15 358 m 130 -30 q 71 41 69 -31 l 94 981 q 157 1041 95 1040 q 227 977 228 1041 l 206 110 l 669 120 q 736 50 736 121 q 671 -21 736 -20 l 144 -30 l 130 -30 z "},"ł":{"ha":315,"x_min":-41,"x_max":359,"o":"m 56 336 q -41 336 1 288 q -28 431 -83 382 l 265 687 q 359 684 322 737 q 341 578 399 628 l 56 336 m 171 1092 q 240 1025 241 1092 l 219 43 q 145 -29 218 -31 q 85 45 84 -28 l 109 1029 q 171 1092 110 1090 z "},"Ń":{"ha":1107,"x_min":88,"x_max":1050,"o":"m 736 1415 q 746 1330 787 1375 l 585 1154 q 488 1126 526 1088 q 507 1232 451 1162 l 648 1408 q 736 1415 686 1456 m 899 224 l 918 981 q 981 1040 920 1038 q 1050 977 1052 1040 l 1029 60 q 955 -7 1028 -10 q 905 16 924 -6 l 237 777 l 222 39 q 148 -28 220 -30 q 88 41 86 -27 l 111 960 q 174 1019 113 1017 q 227 999 210 1019 l 899 224 z "},"ń":{"ha":727,"x_min":90,"x_max":678,"o":"m 650 1128 q 660 1042 701 1088 l 499 866 q 401 839 440 801 q 420 944 365 875 l 562 1120 q 650 1128 600 1168 m 170 742 q 239 675 241 742 q 237 635 238 655 q 427 702 311 702 q 678 393 683 701 l 673 54 q 608 -34 671 -28 q 536 41 534 -41 l 544 363 q 437 558 549 550 q 235 457 342 565 l 224 47 q 149 -26 222 -27 q 90 48 88 -24 l 106 679 q 170 742 107 742 z "},"Ņ":{"ha":1107,"x_min":88,"x_max":1050,"o":"m 380 117 q 425 144 387 143 q 595 67 510 148 q 640 -161 700 -30 q 498 -235 609 -230 q 358 -196 426 -238 q 323 -126 317 -171 q 365 -98 326 -102 q 427 -117 381 -96 q 511 -129 473 -138 q 553 -75 553 -119 q 486 19 555 -16 q 414 47 453 36 q 380 117 365 60 m 899 224 l 918 981 q 981 1040 920 1038 q 1050 977 1052 1040 l 1029 60 q 955 -7 1028 -10 q 905 16 924 -6 l 237 777 l 222 39 q 148 -28 220 -30 q 88 41 86 -27 l 111 960 q 174 1019 113 1017 q 227 999 210 1019 l 899 224 z "},"ņ":{"ha":727,"x_min":90,"x_max":678,"o":"m 266 72 q 311 100 273 98 q 481 22 396 103 q 526 -206 586 -75 q 384 -279 495 -275 q 244 -241 312 -283 q 209 -171 203 -216 q 251 -142 212 -146 q 313 -161 267 -141 q 397 -174 359 -182 q 439 -119 439 -163 q 372 -26 441 -61 q 300 3 339 -9 q 266 72 251 16 m 170 742 q 239 675 241 742 q 237 635 238 655 q 427 702 311 702 q 678 393 683 701 l 673 54 q 608 -34 671 -28 q 536 41 534 -41 l 544 363 q 437 558 549 550 q 235 457 342 565 l 224 47 q 149 -26 222 -27 q 90 48 88 -24 l 106 679 q 170 742 107 742 z "},"Ň":{"ha":1107,"x_min":88,"x_max":1050,"o":"m 608 1110 q 557 1138 583 1109 l 395 1316 q 383 1391 355 1360 q 469 1392 428 1438 l 608 1240 l 747 1392 q 833 1391 789 1437 q 821 1316 862 1361 l 659 1138 q 608 1110 633 1109 m 899 224 l 918 981 q 981 1040 920 1038 q 1050 977 1052 1040 l 1029 60 q 955 -7 1028 -10 q 905 16 924 -6 l 237 777 l 222 39 q 148 -28 220 -30 q 88 41 86 -27 l 111 960 q 174 1019 113 1017 q 227 999 210 1019 l 899 224 z "},"ň":{"ha":727,"x_min":90,"x_max":678,"o":"m 408 825 q 357 852 383 824 l 195 1030 q 183 1105 155 1075 q 269 1107 228 1152 l 408 955 l 547 1107 q 633 1105 589 1152 q 621 1030 662 1076 l 459 852 q 408 825 433 824 m 170 742 q 239 675 241 742 q 237 635 238 655 q 427 702 311 702 q 678 393 683 701 l 673 54 q 608 -34 671 -28 q 536 41 534 -41 l 544 363 q 437 558 549 550 q 235 457 342 565 l 224 47 q 149 -26 222 -27 q 90 48 88 -24 l 106 679 q 170 742 107 742 z "},"ŉ":{"ha":863,"x_min":54,"x_max":810,"o":"m 115 1080 q 178 1008 178 1082 l 178 799 q 120 729 178 729 q 58 798 60 728 l 54 1007 q 115 1080 53 1078 m 301 742 q 370 675 372 742 q 369 635 370 655 q 558 702 443 702 q 810 393 814 701 l 804 54 q 739 -34 803 -28 q 667 41 665 -41 l 675 363 q 568 558 680 550 q 366 457 474 565 l 355 47 q 281 -26 353 -27 q 222 48 220 -24 l 237 679 q 301 742 239 742 z "},"Ŋ":{"ha":1107,"x_min":88,"x_max":1050,"o":"m 892 31 l 237 777 l 222 39 q 148 -28 220 -30 q 88 41 86 -27 l 111 960 q 174 1019 113 1017 q 227 999 210 1019 l 898 227 q 918 981 898 227 q 981 1040 920 1038 q 1050 979 1052 1040 l 1029 51 q 826 -349 1020 -336 q 659 -336 726 -357 q 620 -254 597 -317 q 708 -216 640 -195 q 840 -195 785 -239 q 892 31 890 -155 z "},"ŋ":{"ha":727,"x_min":90,"x_max":678,"o":"m 536 41 l 544 363 q 437 558 549 550 q 235 457 342 565 l 224 47 q 149 -26 222 -27 q 90 48 88 -24 l 106 679 q 170 742 107 742 q 239 675 241 742 q 237 635 238 655 q 427 702 311 702 q 678 393 683 701 l 673 54 q 675 -150 673 54 q 463 -397 677 -399 q 309 -328 373 -397 q 256 -213 258 -275 q 307 -142 254 -149 q 382 -203 343 -138 q 485 -263 427 -277 q 541 -165 541 -250 q 536 41 541 -136 z "},"Ō":{"ha":1109,"x_min":78,"x_max":1050,"o":"m 457 1211 l 805 1213 q 873 1161 873 1213 q 808 1108 873 1108 l 452 1109 q 405 1159 405 1109 q 457 1211 405 1211 m 648 890 q 385 793 496 901 q 220 390 220 635 q 296 189 220 267 q 534 97 384 97 q 762 197 679 97 q 914 595 911 376 q 648 890 918 872 m 640 1025 q 1050 596 1051 1021 q 886 125 1050 322 q 534 -43 746 -43 q 176 109 313 -43 q 78 389 78 216 q 255 864 78 658 q 640 1025 397 1028 z "},"ō":{"ha":730,"x_min":56,"x_max":658,"o":"m 203 897 l 551 899 q 620 847 619 899 q 555 794 620 794 l 199 795 q 151 845 151 795 q 203 897 151 897 m 389 573 q 256 511 300 571 q 189 309 189 419 q 237 149 189 202 q 353 95 288 95 q 477 149 427 95 q 532 334 531 207 q 389 573 532 576 m 384 711 q 658 321 659 709 q 585 69 657 155 q 336 -33 503 -35 q 132 67 216 -33 q 56 321 56 157 q 146 595 56 475 q 384 711 236 713 z "},"Ŏ":{"ha":1109,"x_min":78,"x_max":1050,"o":"m 637 1206 q 817 1305 783 1203 q 895 1381 847 1398 q 920 1283 947 1362 q 635 1108 859 1107 q 364 1266 426 1109 q 384 1380 323 1369 q 459 1317 445 1392 q 637 1206 479 1211 m 648 890 q 385 793 496 901 q 220 390 220 635 q 296 189 220 267 q 534 97 384 97 q 762 197 679 97 q 914 595 911 376 q 648 890 918 872 m 640 1025 q 1050 596 1051 1021 q 886 125 1050 322 q 534 -43 746 -43 q 176 109 313 -43 q 78 389 78 216 q 255 864 78 658 q 640 1025 397 1028 z "},"ŏ":{"ha":730,"x_min":56,"x_max":667,"o":"m 385 892 q 564 991 530 889 q 642 1067 594 1084 q 667 969 694 1048 q 382 794 606 793 q 111 952 173 795 q 131 1066 71 1055 q 206 1003 192 1078 q 385 892 226 897 m 389 573 q 256 511 300 571 q 189 309 189 419 q 237 149 189 202 q 353 95 288 95 q 477 149 427 95 q 532 334 531 207 q 389 573 532 576 m 384 711 q 658 321 659 709 q 585 69 657 155 q 336 -33 503 -35 q 132 67 216 -33 q 56 321 56 157 q 146 595 56 475 q 384 711 236 713 z "},"Ő":{"ha":1109,"x_min":78,"x_max":1050,"o":"m 754 1118 q 742 1194 705 1156 l 901 1358 q 985 1373 948 1407 q 977 1287 1024 1336 l 822 1130 q 754 1118 785 1093 m 522 1118 q 510 1194 475 1156 l 669 1358 q 751 1373 715 1407 q 743 1287 791 1336 l 589 1130 q 522 1118 553 1093 m 648 890 q 385 793 496 901 q 220 390 220 635 q 296 189 220 267 q 534 97 384 97 q 762 197 679 97 q 914 595 911 376 q 648 890 918 872 m 640 1025 q 1050 596 1051 1021 q 886 125 1050 322 q 534 -43 746 -43 q 176 109 313 -43 q 78 389 78 216 q 255 864 78 658 q 640 1025 397 1028 z "},"ő":{"ha":730,"x_min":56,"x_max":731,"o":"m 500 804 q 488 880 452 842 l 647 1044 q 731 1059 694 1093 q 723 973 770 1022 l 568 816 q 500 804 532 779 m 269 804 q 256 880 221 842 l 415 1044 q 498 1059 461 1093 q 490 973 537 1022 l 335 816 q 269 804 300 779 m 389 573 q 256 511 300 571 q 189 309 189 419 q 237 149 189 202 q 353 95 288 95 q 477 149 427 95 q 532 334 531 207 q 389 573 532 576 m 384 711 q 658 321 659 709 q 585 69 657 155 q 336 -33 503 -35 q 132 67 216 -33 q 56 321 56 157 q 146 595 56 475 q 384 711 236 713 z "},"Œ":{"ha":1658,"x_min":89,"x_max":1649,"o":"m 1080 1018 l 1551 1021 q 1649 943 1647 1021 q 1555 880 1651 880 q 1107 878 1331 879 l 1101 635 l 1476 637 q 1573 559 1571 637 q 1480 496 1575 498 l 1098 494 l 1088 113 l 1509 115 q 1607 38 1605 116 q 1513 -25 1609 -24 l 1038 -28 q 1023 -26 1030 -28 q 1013 -26 1018 -26 q 954 43 951 -25 l 976 960 q 1040 1019 977 1018 q 1065 1017 1054 1019 q 1080 1018 1072 1018 m 659 890 q 396 793 507 901 q 231 390 231 635 q 307 189 231 267 q 545 97 395 97 q 772 197 690 97 q 925 595 922 376 q 659 890 929 872 m 650 1025 q 1061 596 1062 1021 q 897 125 1061 322 q 545 -43 757 -43 q 186 109 323 -43 q 89 389 89 216 q 266 864 89 658 q 650 1025 408 1028 z "},"œ":{"ha":1246,"x_min":56,"x_max":1207,"o":"m 661 294 q 730 159 664 217 q 901 93 806 92 q 1086 147 1039 94 q 1161 204 1132 198 q 1207 184 1194 211 q 1177 66 1239 121 q 892 -29 1069 -31 q 666 52 763 -28 q 545 321 545 151 q 621 570 545 460 q 867 715 716 706 q 1112 638 1023 725 q 1192 453 1195 557 q 1116 359 1189 370 l 661 294 m 675 406 l 1074 464 q 1013 556 1064 523 q 886 593 953 594 q 724 510 792 593 q 675 406 694 473 m 389 573 q 256 511 300 571 q 189 309 189 419 q 237 149 189 202 q 353 95 288 95 q 477 149 427 95 q 532 334 531 207 q 389 573 532 576 m 384 711 q 658 321 659 709 q 585 69 657 155 q 336 -33 503 -35 q 132 67 216 -33 q 56 321 56 157 q 146 595 56 475 q 384 711 236 713 z "},"Ŕ":{"ha":873,"x_min":88,"x_max":760,"o":"m 538 1412 q 548 1326 589 1372 l 387 1150 q 290 1123 328 1085 q 309 1228 253 1159 l 450 1404 q 538 1412 488 1453 m 749 14 q 625 62 701 -13 l 290 395 q 268 393 279 394 q 231 394 248 392 l 222 32 q 148 -37 221 -39 q 88 33 87 -36 l 111 966 q 174 1025 113 1025 q 202 1023 190 1025 q 367 1023 281 1030 q 682 826 612 1005 q 621 496 754 644 q 455 418 577 448 l 760 134 q 749 14 838 61 l 749 14 l 749 14 m 241 893 l 233 522 q 538 604 465 498 q 549 800 606 704 q 336 891 496 890 q 241 893 289 892 z "},"ŕ":{"ha":667,"x_min":90,"x_max":628,"o":"m 618 1128 q 628 1042 669 1088 l 467 866 q 370 839 408 801 q 389 944 333 875 l 530 1120 q 618 1128 568 1168 m 170 742 q 239 675 239 742 q 239 650 239 663 q 389 709 315 707 q 537 681 479 710 q 622 574 640 629 q 514 541 592 488 q 374 566 453 582 q 234 488 298 551 l 222 43 q 149 -29 220 -31 q 90 45 88 -28 l 106 679 q 170 742 107 742 z "},"Ŗ":{"ha":873,"x_min":88,"x_max":760,"o":"m 311 74 q 355 102 317 100 q 526 24 441 105 q 571 -204 631 -73 q 429 -277 540 -273 q 289 -239 357 -281 q 254 -169 248 -214 q 296 -140 256 -144 q 357 -159 312 -139 q 442 -172 404 -180 q 484 -117 484 -161 q 416 -24 486 -59 q 345 5 384 -7 q 311 74 296 18 m 749 14 q 625 62 701 -13 l 290 395 q 268 393 279 394 q 231 394 248 392 l 222 32 q 148 -37 221 -39 q 88 33 87 -36 l 111 966 q 174 1025 113 1025 q 202 1023 190 1025 q 367 1023 281 1030 q 682 826 612 1005 q 621 496 754 644 q 455 418 577 448 l 760 134 q 749 14 838 61 l 749 14 l 749 14 m 241 893 l 233 522 q 538 604 465 498 q 549 800 606 704 q 336 891 496 890 q 241 893 289 892 z "},"ŗ":{"ha":667,"x_min":48,"x_max":622,"o":"m 105 76 q 150 104 112 102 q 321 26 235 107 q 366 -202 425 -71 q 223 -275 334 -271 q 83 -237 151 -279 q 48 -167 43 -212 q 90 -138 51 -142 q 152 -157 106 -137 q 237 -170 199 -178 q 279 -115 279 -159 q 211 -22 280 -57 q 139 7 178 -5 q 105 76 90 20 m 170 742 q 239 675 239 742 q 239 650 239 663 q 389 709 315 707 q 537 681 479 710 q 622 574 640 629 q 514 541 592 488 q 374 566 453 582 q 234 488 298 551 l 222 43 q 149 -29 220 -31 q 90 45 88 -28 l 106 679 q 170 742 107 742 z "},"Ř":{"ha":873,"x_min":88,"x_max":760,"o":"m 388 1109 q 336 1137 363 1109 l 175 1315 q 163 1390 134 1360 q 248 1392 208 1437 l 388 1240 l 527 1392 q 613 1390 568 1436 q 600 1315 642 1360 l 439 1137 q 388 1109 413 1109 m 749 14 q 625 62 701 -13 l 290 395 q 268 393 279 394 q 231 394 248 392 l 222 32 q 148 -37 221 -39 q 88 33 87 -36 l 111 966 q 174 1025 113 1025 q 202 1023 190 1025 q 367 1023 281 1030 q 682 826 612 1005 q 621 496 754 644 q 455 418 577 448 l 760 134 q 749 14 838 61 l 749 14 l 749 14 m 241 893 l 233 522 q 538 604 465 498 q 549 800 606 704 q 336 891 496 890 q 241 893 289 892 z "},"ř":{"ha":667,"x_min":90,"x_max":622,"o":"m 376 825 q 325 852 351 824 l 163 1030 q 151 1105 123 1075 q 237 1107 196 1152 l 376 955 l 515 1107 q 602 1105 557 1152 q 589 1030 630 1076 l 427 852 q 376 825 401 824 m 170 742 q 239 675 239 742 q 239 650 239 663 q 389 709 315 707 q 537 681 479 710 q 622 574 640 629 q 514 541 592 488 q 374 566 453 582 q 234 488 298 551 l 222 43 q 149 -29 220 -31 q 90 45 88 -28 l 106 679 q 170 742 107 742 z "},"Ś":{"ha":963,"x_min":100,"x_max":898,"o":"m 806 1411 q 816 1326 857 1371 l 655 1149 q 557 1122 596 1084 q 576 1227 521 1158 l 718 1404 q 806 1411 756 1452 m 198 840 q 360 972 243 916 q 571 1016 458 1020 q 741 981 671 1012 q 842 896 840 938 q 806 842 844 861 q 715 856 781 830 q 547 888 620 892 q 373 834 434 882 q 302 723 309 784 q 400 585 291 600 q 605 573 441 578 q 819 498 751 568 q 898 301 904 410 q 721 36 888 133 q 444 -29 610 -28 q 241 4 322 -30 q 149 60 187 26 q 100 149 95 108 q 141 203 106 193 q 237 163 180 214 q 347 108 282 123 q 509 100 435 87 q 685 168 639 123 q 750 350 776 256 q 463 445 723 449 q 164 631 211 441 q 198 840 138 738 z "},"ś":{"ha":676,"x_min":28,"x_max":640,"o":"m 631 1108 q 640 1023 682 1068 l 479 846 q 382 819 420 781 q 401 924 345 855 l 542 1101 q 631 1108 581 1149 m 266 98 q 452 137 418 87 q 422 241 479 180 q 250 300 384 281 q 90 407 111 320 q 100 545 73 475 q 186 664 130 623 q 342 721 254 713 q 515 693 441 730 q 622 584 612 646 q 597 518 628 543 q 479 562 558 486 q 363 597 440 600 q 242 547 281 593 q 222 467 209 509 q 317 421 235 430 q 436 389 381 414 q 540 319 511 354 q 598 151 608 236 q 503 7 587 63 q 323 -39 435 -39 q 168 -23 228 -40 q 79 18 132 -13 q 28 85 31 45 q 57 151 26 130 q 144 142 95 176 q 266 98 203 102 z "},"Ŝ":{"ha":963,"x_min":100,"x_max":898,"o":"m 198 840 q 360 972 243 916 q 571 1016 458 1020 q 741 981 671 1012 q 842 896 840 938 q 806 842 844 861 q 715 856 781 830 q 547 888 620 892 q 373 834 434 882 q 302 723 309 784 q 400 585 291 600 q 605 573 441 578 q 819 498 751 568 q 898 301 904 410 q 721 36 888 133 q 444 -29 610 -28 q 241 4 322 -30 q 149 60 187 26 q 100 149 95 108 q 141 203 106 193 q 237 163 180 214 q 347 108 282 123 q 509 100 435 87 q 685 168 639 123 q 750 350 776 256 q 463 445 723 449 q 164 631 211 441 q 198 840 138 738 z "},"ŝ":{"ha":676,"x_min":28,"x_max":644,"o":"m 266 98 q 452 137 418 87 q 422 241 479 180 q 250 300 384 281 q 90 407 111 320 q 100 545 73 475 q 186 664 130 623 q 342 721 254 713 q 515 693 441 730 q 622 584 612 646 q 597 518 628 543 q 479 562 558 486 q 363 597 440 600 q 242 547 281 593 q 222 467 209 509 q 317 421 235 430 q 436 389 381 414 q 540 319 511 354 q 598 151 608 236 q 503 7 587 63 q 323 -39 435 -39 q 168 -23 228 -40 q 79 18 132 -13 q 28 85 31 45 q 57 151 26 130 q 144 142 95 176 q 266 98 203 102 z "},"Ş":{"ha":963,"x_min":100,"x_max":898,"o":"m 321 59 q 366 87 328 85 q 537 9 452 90 q 582 -219 642 -87 q 439 -292 551 -288 q 300 -254 368 -296 q 264 -184 259 -229 q 307 -155 267 -159 q 368 -174 323 -154 q 453 -186 415 -195 q 495 -132 495 -176 q 427 -39 496 -74 q 355 -10 395 -22 q 321 59 307 3 m 198 840 q 360 972 243 916 q 571 1016 458 1020 q 741 981 671 1012 q 842 896 840 938 q 806 842 844 861 q 715 856 781 830 q 547 888 620 892 q 373 834 434 882 q 302 723 309 784 q 400 585 291 600 q 605 573 441 578 q 819 498 751 568 q 898 301 904 410 q 721 36 888 133 q 444 -29 610 -28 q 241 4 322 -30 q 149 60 187 26 q 100 149 95 108 q 141 203 106 193 q 237 163 180 214 q 347 108 282 123 q 509 100 435 87 q 685 168 639 123 q 750 350 776 256 q 463 445 723 449 q 164 631 211 441 q 198 840 138 738 z "},"ş":{"ha":676,"x_min":28,"x_max":622,"o":"m 188 49 q 233 77 195 75 q 404 -1 318 80 q 448 -229 508 -98 q 306 -302 417 -298 q 166 -264 234 -306 q 131 -194 125 -239 q 173 -165 134 -170 q 235 -184 189 -164 q 319 -197 281 -205 q 361 -142 361 -186 q 294 -49 363 -84 q 222 -20 261 -32 q 188 49 173 -7 m 266 98 q 452 137 418 87 q 422 241 479 180 q 250 300 384 281 q 90 407 111 320 q 100 545 73 475 q 186 664 130 623 q 342 721 254 713 q 515 693 441 730 q 622 584 612 646 q 597 518 628 543 q 479 562 558 486 q 363 597 440 600 q 242 547 281 593 q 222 467 209 509 q 317 421 235 430 q 436 389 381 414 q 540 319 511 354 q 598 151 608 236 q 503 7 587 63 q 323 -39 435 -39 q 168 -23 228 -40 q 79 18 132 -13 q 28 85 31 45 q 57 151 26 130 q 144 142 95 176 q 266 98 203 102 z "},"Š":{"ha":963,"x_min":100,"x_max":898,"o":"m 564 1108 q 513 1136 539 1107 l 351 1314 q 339 1389 311 1358 q 425 1390 384 1436 l 564 1238 l 703 1390 q 789 1389 745 1435 q 777 1314 818 1359 l 615 1136 q 564 1108 589 1107 m 198 840 q 360 972 243 916 q 571 1016 458 1020 q 741 981 671 1012 q 842 896 840 938 q 806 842 844 861 q 715 856 781 830 q 547 888 620 892 q 373 834 434 882 q 302 723 309 784 q 400 585 291 600 q 605 573 441 578 q 819 498 751 568 q 898 301 904 410 q 721 36 888 133 q 444 -29 610 -28 q 241 4 322 -30 q 149 60 187 26 q 100 149 95 108 q 141 203 106 193 q 237 163 180 214 q 347 108 282 123 q 509 100 435 87 q 685 168 639 123 q 750 350 776 256 q 463 445 723 449 q 164 631 211 441 q 198 840 138 738 z "},"š":{"ha":676,"x_min":28,"x_max":622,"o":"m 389 806 q 337 833 363 805 l 176 1011 q 163 1086 135 1056 q 249 1088 208 1133 l 389 936 l 528 1088 q 614 1086 569 1133 q 601 1011 642 1057 l 439 833 q 389 806 414 805 m 266 98 q 452 137 418 87 q 422 241 479 180 q 250 300 384 281 q 90 407 111 320 q 100 545 73 475 q 186 664 130 623 q 342 721 254 713 q 515 693 441 730 q 622 584 612 646 q 597 518 628 543 q 479 562 558 486 q 363 597 440 600 q 242 547 281 593 q 222 467 209 509 q 317 421 235 430 q 436 389 381 414 q 540 319 511 354 q 598 151 608 236 q 503 7 587 63 q 323 -39 435 -39 q 168 -23 228 -40 q 79 18 132 -13 q 28 85 31 45 q 57 151 26 130 q 144 142 95 176 q 266 98 203 102 z "},"Ţ":{"ha":944,"x_min":79,"x_max":993,"o":"m 474 40 q 519 68 481 66 q 690 -9 604 71 q 734 -238 794 -106 q 592 -311 703 -307 q 452 -273 520 -315 q 417 -203 412 -248 q 459 -174 420 -178 q 521 -193 475 -173 q 606 -205 568 -214 q 648 -151 648 -195 q 580 -58 649 -93 q 508 -29 547 -41 q 474 40 459 -16 m 171 1017 l 903 1017 q 993 951 991 1017 q 903 888 994 888 l 618 888 l 597 34 q 524 -34 596 -35 q 464 35 463 -33 l 485 887 q 165 886 325 886 q 79 958 79 886 q 171 1017 79 1017 z "},"ţ":{"ha":654,"x_min":43,"x_max":618,"o":"m 260 49 q 305 77 267 75 q 476 -1 391 80 q 521 -229 581 -98 q 378 -302 490 -298 q 239 -264 307 -306 q 203 -194 198 -239 q 245 -165 206 -170 q 307 -184 262 -164 q 392 -197 354 -205 q 434 -142 434 -186 q 366 -49 435 -84 q 294 -20 334 -32 q 260 49 245 -7 m 334 1092 q 403 1025 403 1092 q 397 709 401 852 l 534 709 q 618 642 618 710 q 538 572 618 572 q 393 572 466 572 l 382 43 q 308 -29 381 -31 q 248 45 247 -28 l 260 572 q 101 572 180 572 q 43 639 43 572 q 107 707 43 707 q 264 708 185 707 l 271 1029 q 334 1092 273 1092 z "},"Ť":{"ha":944,"x_min":79,"x_max":993,"o":"m 547 1108 q 495 1136 522 1107 l 334 1314 q 321 1389 293 1358 q 407 1390 366 1436 l 547 1238 l 686 1390 q 772 1389 727 1435 q 759 1314 800 1359 l 597 1136 q 547 1108 572 1107 m 171 1017 l 903 1017 q 993 951 991 1017 q 903 888 994 888 l 618 888 l 597 34 q 524 -34 596 -35 q 464 35 463 -33 l 485 887 q 165 886 325 886 q 79 958 79 886 q 171 1017 79 1017 z "},"ť":{"ha":888,"x_min":43,"x_max":838,"o":"m 783 650 q 684 613 724 583 q 681 715 637 647 q 718 777 703 751 q 669 856 673 804 q 734 941 665 932 q 838 880 821 952 q 836 774 850 830 q 783 650 814 684 m 334 1092 q 403 1025 403 1092 q 397 709 401 852 l 534 709 q 618 642 618 710 q 538 572 618 572 q 393 572 466 572 l 382 43 q 308 -29 381 -31 q 248 45 247 -28 l 260 572 q 101 572 180 572 q 43 639 43 572 q 107 707 43 707 q 264 708 185 707 l 271 1029 q 334 1092 273 1092 z "},"Ŧ":{"ha":944,"x_min":24,"x_max":938,"o":"m 201 517 q 256 588 202 587 l 644 591 q 713 521 714 591 q 643 453 713 453 l 254 454 q 201 517 200 454 m 116 1017 l 848 1017 q 938 951 937 1017 q 848 888 939 888 l 563 888 l 543 34 q 469 -34 541 -35 q 409 35 408 -33 l 430 887 q 110 886 270 886 q 24 958 24 886 q 116 1017 24 1017 z "},"ŧ":{"ha":654,"x_min":43,"x_max":618,"o":"m 108 390 q 157 442 111 442 l 483 444 q 547 392 545 444 q 486 339 548 339 l 152 340 q 108 390 105 340 m 334 1092 q 403 1025 403 1092 q 397 709 401 852 l 534 709 q 618 642 618 710 q 538 572 618 572 q 393 572 466 572 l 382 43 q 308 -29 381 -31 q 248 45 247 -28 l 260 572 q 101 572 180 572 q 43 639 43 572 q 107 707 43 707 q 264 708 185 707 l 271 1029 q 334 1092 273 1092 z "},"Ũ":{"ha":1023,"x_min":-398,"x_max":943,"o":"m -398 1356 m 871 1007 q 943 889 946 1006 l 932 505 q 520 -27 918 -28 q 109 517 105 -26 l 111 881 q 180 1016 111 1016 q 247 898 248 1015 l 245 527 q 524 94 242 90 q 794 519 785 98 l 802 903 q 871 1007 804 1008 z "},"ũ":{"ha":722,"x_min":68,"x_max":685,"o":"m 583 -52 q 514 16 513 -52 l 515 56 q 326 -12 441 -12 q 73 298 71 -11 l 76 631 q 141 718 77 712 q 212 643 213 724 l 210 347 q 260 146 209 182 q 429 148 331 99 q 520 304 517 193 l 528 646 q 602 720 530 720 q 662 645 663 718 l 646 12 q 583 -52 644 -52 z "},"Ū":{"ha":1023,"x_min":-398,"x_max":943,"o":"m 345 1215 l 693 1217 q 762 1165 761 1217 q 696 1112 762 1112 l 340 1113 q 293 1163 293 1113 q 345 1215 293 1215 m -398 1356 m 871 1007 q 943 889 946 1006 l 932 505 q 520 -27 918 -28 q 109 517 105 -26 l 111 881 q 180 1016 111 1016 q 247 898 248 1015 l 245 527 q 524 94 242 90 q 794 519 785 98 l 802 903 q 871 1007 804 1008 z "},"ū":{"ha":722,"x_min":73,"x_max":662,"o":"m 187 901 l 535 903 q 604 851 603 903 q 538 798 604 798 l 182 799 q 135 849 135 799 q 187 901 135 901 m 583 -52 q 514 16 513 -52 l 515 56 q 326 -12 441 -12 q 73 298 71 -11 l 76 631 q 141 718 77 712 q 212 643 213 724 l 210 347 q 260 146 209 182 q 429 148 331 99 q 520 304 517 193 l 528 646 q 602 720 530 720 q 662 645 663 718 l 646 12 q 583 -52 644 -52 z "},"Ŭ":{"ha":1023,"x_min":-398,"x_max":943,"o":"m 517 1206 q 696 1305 663 1203 q 775 1381 727 1398 q 800 1283 827 1362 q 515 1108 739 1107 q 244 1266 306 1109 q 264 1380 203 1369 q 339 1317 325 1392 q 517 1206 359 1211 m -398 1356 m 871 1007 q 943 889 946 1006 l 932 505 q 520 -27 918 -28 q 109 517 105 -26 l 111 881 q 180 1016 111 1016 q 247 898 248 1015 l 245 527 q 524 94 242 90 q 794 519 785 98 l 802 903 q 871 1007 804 1008 z "},"ŭ":{"ha":722,"x_min":73,"x_max":662,"o":"m 372 884 q 551 983 517 881 q 629 1059 581 1076 q 654 961 681 1040 q 369 786 593 785 q 98 944 160 787 q 118 1058 58 1046 q 193 995 179 1069 q 372 884 213 888 m 583 -52 q 514 16 513 -52 l 515 56 q 326 -12 441 -12 q 73 298 71 -11 l 76 631 q 141 718 77 712 q 212 643 213 724 l 210 347 q 260 146 209 182 q 429 148 331 99 q 520 304 517 193 l 528 646 q 602 720 530 720 q 662 645 663 718 l 646 12 q 583 -52 644 -52 z "},"Ů":{"ha":1023,"x_min":-398,"x_max":943,"o":"m -398 1356 m 871 1007 q 943 889 946 1006 l 932 505 q 520 -27 918 -28 q 109 517 105 -26 l 111 881 q 180 1016 111 1016 q 247 898 248 1015 l 245 527 q 524 94 242 90 q 794 519 785 98 l 802 903 q 871 1007 804 1008 z "},"ů":{"ha":722,"x_min":73,"x_max":662,"o":"m 583 -52 q 514 16 513 -52 l 515 56 q 326 -12 441 -12 q 73 298 71 -11 l 76 631 q 141 718 77 712 q 212 643 213 724 l 210 347 q 260 146 209 182 q 429 148 331 99 q 520 304 517 193 l 528 646 q 602 720 530 720 q 662 645 663 718 l 646 12 q 583 -52 644 -52 z "},"Ű":{"ha":1023,"x_min":-398,"x_max":943,"o":"m 543 1120 q 530 1196 494 1158 l 689 1360 q 773 1375 736 1409 q 765 1289 812 1338 l 610 1132 q 543 1120 574 1095 m 311 1120 q 298 1196 263 1158 l 457 1360 q 540 1375 503 1409 q 532 1289 579 1338 l 377 1132 q 311 1120 342 1095 m -398 1356 m 871 1007 q 943 889 946 1006 l 932 505 q 520 -27 918 -28 q 109 517 105 -26 l 111 881 q 180 1016 111 1016 q 247 898 248 1015 l 245 527 q 524 94 242 90 q 794 519 785 98 l 802 903 q 871 1007 804 1008 z "},"ű":{"ha":722,"x_min":73,"x_max":684,"o":"m 454 814 q 441 890 405 852 l 600 1054 q 684 1069 648 1103 q 676 983 724 1032 l 522 826 q 454 814 485 789 m 222 814 q 210 890 174 852 l 368 1054 q 451 1069 414 1103 q 443 983 490 1032 l 288 826 q 222 814 253 789 m 583 -52 q 514 16 513 -52 l 515 56 q 326 -12 441 -12 q 73 298 71 -11 l 76 631 q 141 718 77 712 q 212 643 213 724 l 210 347 q 260 146 209 182 q 429 148 331 99 q 520 304 517 193 l 528 646 q 602 720 530 720 q 662 645 663 718 l 646 12 q 583 -52 644 -52 z "},"Ų":{"ha":1023,"x_min":-398,"x_max":943,"o":"m 635 54 q 610 -11 656 3 q 553 -34 570 -23 q 494 -104 494 -71 q 548 -170 494 -159 q 633 -158 591 -178 q 694 -138 680 -137 q 736 -167 734 -142 q 702 -237 743 -212 q 562 -275 634 -279 q 420 -202 450 -271 q 456 18 364 -76 q 565 74 500 64 q 635 54 624 83 m -398 1356 m 871 1007 q 943 889 946 1006 l 932 505 q 520 -27 918 -28 q 109 517 105 -26 l 111 881 q 180 1016 111 1016 q 247 898 248 1015 l 245 527 q 524 94 242 90 q 794 519 785 98 l 802 903 q 871 1007 804 1008 z "},"ų":{"ha":722,"x_min":73,"x_max":713,"o":"m 612 52 q 587 -13 632 1 q 530 -36 547 -25 q 470 -106 470 -73 q 524 -172 470 -161 q 610 -160 567 -180 q 671 -140 656 -139 q 713 -169 710 -144 q 678 -239 719 -214 q 538 -277 610 -281 q 396 -204 427 -273 q 433 16 340 -78 q 541 72 477 62 q 612 52 600 81 m 583 -52 q 514 16 513 -52 l 515 56 q 326 -12 441 -12 q 73 298 71 -11 l 76 631 q 141 718 77 712 q 212 643 213 724 l 210 347 q 260 146 209 182 q 429 148 331 99 q 520 304 517 193 l 528 646 q 602 720 530 720 q 662 645 663 718 l 646 12 q 583 -52 644 -52 z "},"Ŵ":{"ha":1444,"x_min":112,"x_max":1320,"o":"m 974 -37 q 890 89 920 -16 l 716 685 l 543 90 q 458 -37 510 -22 q 420 -37 439 -42 q 336 90 368 -21 l 112 857 q 163 1030 62 1029 q 226 981 212 1030 l 439 214 l 652 981 q 715 1030 666 1029 q 780 981 766 1030 l 993 213 l 1206 981 q 1270 1029 1221 1029 q 1320 856 1370 1029 l 1096 89 q 1012 -37 1063 -22 q 974 -37 993 -43 z "},"ŵ":{"ha":950,"x_min":58,"x_max":906,"o":"m 554 621 l 633 150 l 784 621 q 865 709 814 716 q 906 614 935 698 l 710 49 q 625 -34 682 -34 q 539 49 555 -34 l 467 421 l 336 49 q 251 -34 307 -34 q 165 49 181 -34 l 58 614 q 104 709 42 699 q 180 621 164 718 l 260 150 l 410 621 q 485 709 439 709 q 554 621 539 709 z "},"Ŷ":{"ha":882,"x_min":31,"x_max":827,"o":"m 794 1015 q 827 929 852 983 l 404 32 q 286 -20 361 -59 q 283 115 231 6 l 391 339 l 31 921 q 52 1011 -2 975 q 153 981 110 1051 l 461 482 l 701 977 q 794 1015 734 1047 z "},"ŷ":{"ha":723,"x_min":16,"x_max":682,"o":"m 651 698 q 682 590 716 670 l 294 -303 q 188 -387 248 -412 q 163 -250 117 -358 l 298 62 l 16 584 q 33 696 -27 664 q 138 649 96 730 l 366 217 l 551 645 q 651 698 586 725 z "},"Ÿ":{"ha":882,"x_min":31,"x_max":827,"o":"m 599 1237 q 682 1174 682 1237 q 597 1112 682 1112 q 519 1172 519 1112 q 599 1237 519 1237 m 256 1237 q 340 1174 340 1237 q 255 1112 340 1112 q 176 1172 176 1112 q 256 1237 176 1237 m 794 1015 q 827 929 852 983 l 404 32 q 286 -20 361 -59 q 283 115 231 6 l 391 339 l 31 921 q 52 1011 -2 975 q 153 981 110 1051 l 461 482 l 701 977 q 794 1015 734 1047 z "},"Ź":{"ha":963,"x_min":62,"x_max":937,"o":"m 606 1413 q 616 1328 657 1373 l 455 1152 q 357 1124 396 1086 q 376 1230 321 1160 l 517 1406 q 606 1413 556 1454 m 890 842 l 273 115 l 854 113 q 937 36 938 113 q 853 -35 937 -36 l 145 -31 q 62 40 62 -31 q 90 112 62 79 l 724 871 l 145 875 q 62 946 62 876 q 141 1021 62 1021 l 854 1019 q 937 942 938 1019 q 890 842 937 897 z "},"ź":{"ha":747,"x_min":87,"x_max":707,"o":"m 576 1109 q 586 1024 627 1069 l 425 848 q 328 821 366 783 q 347 926 291 857 l 488 1102 q 576 1109 526 1150 m 679 582 l 294 94 l 612 94 q 687 29 689 94 q 607 -31 685 -31 l 155 -31 q 87 21 96 -31 q 123 96 83 45 l 504 575 l 182 575 q 106 650 104 575 q 186 710 109 710 l 638 710 q 707 658 690 710 q 679 582 716 629 z "},"Ż":{"ha":963,"x_min":62,"x_max":937,"o":"m 890 842 l 273 115 l 854 113 q 937 36 938 113 q 853 -35 937 -36 l 145 -31 q 62 40 62 -31 q 90 112 62 79 l 724 871 l 145 875 q 62 946 62 876 q 141 1021 62 1021 l 854 1019 q 937 942 938 1019 q 890 842 937 897 z "},"ż":{"ha":747,"x_min":87,"x_max":707,"o":"m 679 582 l 294 94 l 612 94 q 687 29 689 94 q 607 -31 685 -31 l 155 -31 q 87 21 96 -31 q 123 96 83 45 l 504 575 l 182 575 q 106 650 104 575 q 186 710 109 710 l 638 710 q 707 658 690 710 q 679 582 716 629 z "},"Ž":{"ha":963,"x_min":62,"x_max":937,"o":"m 517 1112 q 465 1140 492 1112 l 304 1318 q 292 1393 263 1362 q 377 1394 336 1440 l 517 1242 l 656 1394 q 742 1393 697 1439 q 729 1318 770 1363 l 568 1140 q 517 1112 542 1112 m 890 842 l 273 115 l 854 113 q 937 36 938 113 q 853 -35 937 -36 l 145 -31 q 62 40 62 -31 q 90 112 62 79 l 724 871 l 145 875 q 62 946 62 876 q 141 1021 62 1021 l 854 1019 q 937 942 938 1019 q 890 842 937 897 z "},"ž":{"ha":747,"x_min":87,"x_max":707,"o":"m 422 794 q 370 822 397 793 l 209 1000 q 197 1075 168 1044 q 282 1076 241 1122 l 422 924 l 561 1076 q 647 1075 602 1121 q 634 1000 675 1045 l 473 822 q 422 794 447 793 m 679 582 l 294 94 l 612 94 q 687 29 689 94 q 607 -31 685 -31 l 155 -31 q 87 21 96 -31 q 123 96 83 45 l 504 575 l 182 575 q 106 650 104 575 q 186 710 109 710 l 638 710 q 707 658 690 710 q 679 582 716 629 z "},"ſ":{"ha":706,"x_min":218,"x_max":639,"o":"m 229 519 l 232 663 q 528 1084 241 1076 q 639 1013 644 1088 q 525 952 635 950 q 365 667 372 955 l 362 517 q 361 510 362 513 l 351 43 q 277 -29 350 -31 q 218 45 216 -28 l 229 517 q 229 519 229 517 z "},"ƒ":{"ha":593,"x_min":-69,"x_max":777,"o":"m 0 -245 q -69 -198 -60 -239 q 0 -113 -82 -133 q 205 146 169 -68 q 262 428 231 296 q 146 427 203 427 q 64 486 62 425 q 152 553 68 552 l 293 554 q 360 772 324 671 q 503 992 410 913 q 699 1059 577 1055 q 777 1000 781 1061 q 690 931 772 933 q 549 868 597 929 q 472 732 494 799 q 419 555 444 646 q 541 557 479 556 q 618 506 613 557 q 551 433 624 434 l 389 430 q 340 168 360 304 q 197 -150 302 -80 q 0 -245 49 -250 z "},"Ǻ":{"ha":1016,"x_min":103,"x_max":905,"o":"m 602 924 l 905 83 q 871 -30 938 -10 q 773 45 807 -49 l 667 340 l 341 340 l 235 45 q 137 -30 201 -49 q 103 83 70 -10 l 405 924 q 504 982 425 982 q 602 924 581 982 m 504 791 l 391 477 l 616 479 l 504 791 m 471 1294 q 457 1369 433 1316 l 513 1487 q 601 1516 541 1550 q 616 1428 654 1485 l 544 1318 q 471 1294 511 1270 m 385 1044 q 430 1003 406 1016 q 490 987 455 989 q 496 987 493 987 q 554 999 526 987 q 600 1034 581 1011 q 633 1105 627 1064 q 634 1124 634 1114 q 622 1182 634 1155 q 570 1241 605 1219 q 496 1262 536 1262 q 494 1262 495 1262 q 422 1241 455 1261 q 374 1186 391 1221 q 359 1124 359 1157 q 359 1114 359 1119 q 385 1044 362 1074 m 492 1363 q 498 1363 496 1363 q 623 1328 566 1363 q 713 1227 684 1291 q 736 1125 736 1179 q 734 1094 736 1109 q 680 970 724 1019 q 615 918 652 939 q 534 890 578 897 q 500 887 517 887 q 372 924 431 887 q 277 1039 306 966 q 261 1126 261 1080 q 269 1188 261 1158 q 351 1312 290 1264 q 492 1363 413 1361 z "},"ǻ":{"ha":711,"x_min":45,"x_max":669,"o":"m 383 1123 q 370 1198 345 1145 l 425 1316 q 513 1345 454 1379 q 528 1257 566 1314 l 456 1147 q 383 1123 424 1099 m 351 -38 q 45 288 47 -39 q 184 616 43 500 q 525 693 347 749 q 586 701 545 710 q 652 595 667 682 q 633 307 636 511 q 669 76 630 144 q 653 -38 727 -23 q 555 34 568 -56 q 351 -38 414 -37 m 430 98 q 515 157 454 107 q 522 558 490 448 q 384 582 456 600 q 304 547 334 570 q 177 300 183 460 q 319 83 179 93 q 430 98 378 79 z "},"Ǽ":{"ha":1510,"x_min":55,"x_max":1488,"o":"m 1227 1411 q 1237 1326 1278 1371 l 1076 1149 q 979 1122 1017 1084 q 998 1227 942 1158 l 1139 1404 q 1227 1411 1177 1452 m 920 1022 l 1390 1025 q 1488 946 1486 1025 q 1394 882 1490 883 q 946 880 1170 881 l 940 633 l 1315 636 q 1413 557 1411 637 q 1319 494 1415 494 q 937 492 1128 492 l 928 104 l 1348 107 q 1446 28 1444 108 q 1352 -35 1448 -35 l 878 -38 q 863 -37 869 -38 q 852 -37 857 -37 q 793 33 791 -35 l 804 489 l 541 489 l 161 49 q 57 37 112 -7 q 55 135 6 79 l 781 972 q 865 1022 823 1020 q 879 1023 872 1023 q 904 1021 893 1023 q 920 1022 911 1022 m 666 635 l 808 635 l 812 804 l 666 635 z "},"ǽ":{"ha":1266,"x_min":45,"x_max":1206,"o":"m 836 1106 q 845 1021 886 1066 l 684 844 q 587 817 625 779 q 606 922 550 853 l 747 1099 q 836 1106 785 1147 m 659 294 q 728 159 663 217 q 899 93 804 92 q 1085 147 1038 94 q 1160 204 1131 198 q 1206 184 1192 211 q 1176 66 1238 121 q 891 -29 1067 -31 q 665 52 762 -28 q 544 321 544 151 q 620 570 544 460 q 865 715 715 706 q 1110 638 1022 725 q 1190 453 1194 557 q 1115 359 1187 370 l 659 294 m 674 406 l 1073 464 q 1011 556 1063 523 q 884 593 951 594 q 723 510 791 593 q 674 406 693 473 m 351 -38 q 45 288 47 -39 q 184 616 43 500 q 525 693 347 749 q 586 701 545 710 q 652 595 667 682 q 633 307 636 511 q 669 76 630 144 q 653 -38 727 -23 q 555 34 568 -56 q 351 -38 414 -37 m 430 98 q 515 157 454 107 q 522 558 490 448 q 384 582 456 600 q 304 547 334 570 q 177 300 183 460 q 319 83 179 93 q 430 98 378 79 z "},"Ǿ":{"ha":1109,"x_min":74,"x_max":1082,"o":"m 845 1434 q 854 1349 896 1394 l 694 1173 q 596 1145 635 1107 q 615 1251 559 1181 l 756 1427 q 845 1434 795 1475 m 174 -33 q 74 -37 124 -85 q 78 61 28 8 l 979 1012 q 1082 1034 1035 1072 q 1082 935 1137 992 l 174 -33 m 656 890 q 393 793 505 901 q 229 390 229 635 q 304 189 229 267 q 542 97 392 97 q 770 197 687 97 q 922 595 920 376 q 656 890 926 872 m 648 1025 q 1059 596 1059 1021 q 894 125 1058 322 q 542 -43 754 -43 q 184 109 321 -43 q 86 389 86 216 q 263 864 86 658 q 648 1025 405 1028 z "},"ǿ":{"ha":730,"x_min":47,"x_max":694,"o":"m 632 1097 q 642 1012 683 1057 l 481 836 q 383 808 422 770 q 402 913 347 844 l 543 1090 q 632 1097 582 1138 m 118 -16 q 56 -26 85 -52 q 47 46 15 10 l 625 696 q 684 697 651 724 q 694 637 720 666 l 118 -16 m 389 573 q 256 511 300 571 q 189 309 189 419 q 237 149 189 202 q 353 95 288 95 q 477 149 427 95 q 532 334 531 207 q 389 573 532 576 m 384 711 q 658 321 659 709 q 585 69 657 155 q 336 -33 503 -35 q 132 67 216 -33 q 56 321 56 157 q 146 595 56 475 q 384 711 236 713 z "},"Ș":{"ha":963,"x_min":100,"x_max":898,"o":"m 494 -387 q 394 -424 435 -454 q 391 -321 348 -390 q 428 -260 414 -286 q 380 -181 383 -233 q 445 -96 376 -104 q 549 -157 532 -85 q 547 -262 561 -207 q 494 -387 524 -353 m 198 840 q 360 972 243 916 q 571 1016 458 1020 q 741 981 671 1012 q 842 896 840 938 q 806 842 844 861 q 715 856 781 830 q 547 888 620 892 q 373 834 434 882 q 302 723 309 784 q 400 585 291 600 q 605 573 441 578 q 819 498 751 568 q 898 301 904 410 q 721 36 888 133 q 444 -29 610 -28 q 241 4 322 -30 q 149 60 187 26 q 100 149 95 108 q 141 203 106 193 q 237 163 180 214 q 347 108 282 123 q 509 100 435 87 q 685 168 639 123 q 750 350 776 256 q 463 445 723 449 q 164 631 211 441 q 198 840 138 738 z "},"ș":{"ha":676,"x_min":28,"x_max":622,"o":"m 349 -382 q 250 -419 290 -449 q 247 -317 203 -385 q 283 -255 269 -281 q 235 -176 239 -228 q 300 -91 231 -100 q 404 -152 387 -80 q 402 -258 416 -202 q 349 -382 380 -349 m 266 98 q 452 137 418 87 q 422 241 479 180 q 250 300 384 281 q 90 407 111 320 q 100 545 73 475 q 186 664 130 623 q 342 721 254 713 q 515 693 441 730 q 622 584 612 646 q 597 518 628 543 q 479 562 558 486 q 363 597 440 600 q 242 547 281 593 q 222 467 209 509 q 317 421 235 430 q 436 389 381 414 q 540 319 511 354 q 598 151 608 236 q 503 7 587 63 q 323 -39 435 -39 q 168 -23 228 -40 q 79 18 132 -13 q 28 85 31 45 q 57 151 26 130 q 144 142 95 176 q 266 98 203 102 z "},"Ț":{"ha":944,"x_min":79,"x_max":993,"o":"m 553 -381 q 453 -418 494 -448 q 450 -315 407 -384 q 487 -254 473 -279 q 439 -175 442 -227 q 504 -90 435 -98 q 608 -151 591 -79 q 606 -256 620 -201 q 553 -381 583 -347 m 171 1017 l 903 1017 q 993 951 991 1017 q 903 888 994 888 l 618 888 l 597 34 q 524 -34 596 -35 q 464 35 463 -33 l 485 887 q 165 886 325 886 q 79 958 79 886 q 171 1017 79 1017 z "},"ț":{"ha":654,"x_min":43,"x_max":618,"o":"m 331 -382 q 231 -419 272 -449 q 229 -317 185 -385 q 265 -255 251 -281 q 217 -176 220 -228 q 282 -91 213 -100 q 386 -152 369 -80 q 384 -258 398 -202 q 331 -382 361 -349 m 334 1092 q 403 1025 403 1092 q 397 709 401 852 l 534 709 q 618 642 618 710 q 538 572 618 572 q 393 572 466 572 l 382 43 q 308 -29 381 -31 q 248 45 247 -28 l 260 572 q 101 572 180 572 q 43 639 43 572 q 107 707 43 707 q 264 708 185 707 l 271 1029 q 334 1092 273 1092 z "},"ˆ":{"ha":807,"x_min":153,"x_max":677,"o":"m 415 1155 q 475 1122 444 1156 l 663 915 q 677 827 711 863 q 578 825 625 773 l 415 1003 l 254 825 q 153 827 206 773 q 168 915 121 863 l 356 1122 q 415 1155 386 1156 z "},"ˇ":{"ha":772,"x_min":193,"x_max":644,"o":"m 418 796 q 367 824 393 795 l 205 1002 q 193 1077 165 1046 q 279 1078 238 1124 l 418 926 l 557 1078 q 644 1077 599 1123 q 631 1002 672 1047 l 469 824 q 418 796 444 795 z "},"ˉ":{"ha":772,"x_min":190,"x_max":659,"o":"m 242 910 l 590 911 q 659 860 658 911 q 593 807 659 807 l 237 808 q 190 858 190 808 q 242 910 190 910 z "},"˘":{"ha":772,"x_min":156,"x_max":711,"o":"m 429 899 q 608 997 574 895 q 687 1073 639 1090 q 711 975 739 1055 q 427 800 650 799 q 156 958 218 802 q 176 1072 115 1061 q 251 1009 237 1084 q 429 899 271 903 z "},"˙":{"ha":772,"x_min":211,"x_max":380,"o":"m 293 960 q 296 960 294 960 q 338 949 319 960 q 370 915 359 937 q 380 876 380 897 q 380 869 380 872 q 363 825 378 844 q 333 800 349 807 q 295 791 316 791 q 291 791 293 791 q 252 803 270 792 q 222 833 234 814 q 211 876 211 852 q 222 916 211 897 q 251 948 233 936 q 293 960 270 960 z "},"˚":{"ha":772,"x_min":170,"x_max":645,"o":"m 293 916 q 338 874 315 887 q 398 858 363 860 q 405 858 401 858 q 463 870 435 858 q 509 905 489 882 q 541 976 536 935 q 543 996 543 985 q 530 1053 543 1026 q 478 1112 513 1090 q 405 1133 444 1133 q 403 1133 404 1133 q 331 1112 363 1133 q 282 1057 299 1092 q 267 996 267 1028 q 268 985 267 990 q 293 916 271 945 m 401 1234 q 407 1234 404 1234 q 532 1199 474 1234 q 622 1099 592 1162 q 645 996 645 1050 q 643 965 645 981 q 588 842 633 890 q 524 789 561 810 q 443 761 486 768 q 408 758 425 758 q 281 795 339 758 q 186 910 214 837 q 170 997 170 951 q 178 1059 170 1029 q 260 1183 199 1135 q 401 1234 321 1232 z "},"˛":{"ha":772,"x_min":234,"x_max":551,"o":"m 450 92 q 425 26 470 41 q 368 3 385 14 q 308 -66 308 -33 q 362 -132 308 -122 q 448 -121 405 -140 q 509 -101 494 -100 q 551 -130 548 -105 q 516 -199 557 -174 q 376 -238 448 -241 q 234 -165 264 -233 q 271 55 178 -39 q 379 111 315 101 q 450 92 438 121 z "},"˜":{"ha":772,"x_min":127,"x_max":744,"o":"m 224 845 q 151 815 198 793 q 127 889 111 833 q 208 1013 148 961 q 330 1064 268 1064 q 449 995 412 1063 q 559 908 496 911 q 635 993 607 906 q 693 1049 653 1050 q 744 964 748 1047 q 684 841 741 895 q 565 796 636 796 q 418 874 468 795 q 317 955 357 968 q 224 845 272 940 z "},"˝":{"ha":772,"x_min":157,"x_max":632,"o":"m 401 811 q 389 887 353 849 l 548 1051 q 632 1066 595 1100 q 624 981 671 1029 l 469 823 q 401 811 433 787 m 170 811 q 157 887 122 849 l 316 1051 q 399 1066 362 1100 q 391 981 438 1029 l 236 823 q 170 811 201 787 z "},"΄":{"ha":772,"x_min":326,"x_max":484,"o":"m 339 787 q 326 863 301 810 l 381 981 q 469 1009 410 1043 q 484 921 522 979 l 412 811 q 339 787 380 763 z "},"΅":{"ha":772,"x_min":84,"x_max":712,"o":"m 629 929 q 712 866 712 929 q 627 804 712 804 q 549 864 549 804 q 629 929 549 929 m 164 929 q 248 866 248 929 q 163 804 248 804 q 84 864 84 804 q 164 929 84 929 m 339 787 q 326 863 301 810 l 381 981 q 469 1009 410 1043 q 484 921 522 979 l 412 811 q 339 787 380 763 z "},"Ά":{"ha":1016,"x_min":103,"x_max":905,"o":"m 184 823 q 171 898 146 845 l 227 1016 q 315 1044 255 1078 q 330 956 368 1014 l 258 846 q 184 823 225 798 z "},"·":{"ha":346,"x_min":96,"x_max":265,"o":"m 178 571 q 181 571 180 571 q 224 559 204 571 q 256 526 245 547 q 265 486 265 507 q 265 479 265 483 q 248 435 263 455 q 218 410 235 418 q 180 402 201 401 q 176 402 178 402 q 138 414 155 403 q 108 444 119 425 q 96 486 96 463 q 107 527 96 508 q 136 559 119 547 q 178 571 155 571 z "},"Έ":{"ha":1096,"x_min":106,"x_max":1035,"o":"m 120 787 q 106 863 82 810 l 162 981 q 250 1009 191 1043 q 265 921 303 979 l 193 811 q 120 787 161 763 m 467 1018 l 937 1021 q 1035 943 1033 1021 q 941 880 1037 880 q 493 878 717 879 l 487 635 l 862 637 q 960 559 958 637 q 866 496 962 498 l 484 494 l 475 113 l 895 115 q 993 38 991 116 q 899 -25 995 -24 l 425 -28 q 410 -26 416 -28 q 399 -26 404 -26 q 340 43 338 -25 l 362 960 q 426 1019 363 1018 q 451 1017 440 1019 q 467 1018 458 1018 z "},"Ή":{"ha":1365,"x_min":142,"x_max":1282,"o":"m 155 787 q 142 863 117 810 l 197 981 q 286 1009 226 1043 q 300 921 338 979 l 229 811 q 155 787 196 763 m 494 1026 q 564 963 565 1026 l 554 570 l 1141 570 l 1151 966 q 1213 1025 1152 1024 q 1282 962 1284 1025 l 1261 37 q 1187 -31 1261 -33 q 1128 39 1126 -30 q 1137 428 1133 233 l 551 428 l 542 38 q 467 -31 541 -32 q 408 39 406 -30 l 431 966 q 494 1026 432 1025 z "},"Ί":{"ha":1050,"x_min":59,"x_max":1010,"o":"m 73 787 q 59 863 35 810 l 115 981 q 203 1009 143 1043 q 218 921 256 979 l 146 811 q 73 787 113 763 m 433 1013 l 927 1013 q 1010 940 1009 1013 q 923 873 1012 873 l 720 873 l 701 112 l 918 112 q 1001 39 1000 112 q 913 -28 1002 -28 l 417 -28 q 332 48 332 -28 q 423 112 332 113 l 568 112 l 587 873 l 427 873 q 341 949 341 873 q 433 1013 341 1013 z "},"Ό":{"ha":1217,"x_min":77,"x_max":1158,"o":"m 91 787 q 77 863 53 810 l 133 981 q 221 1009 161 1043 q 236 921 274 979 l 164 811 q 91 787 132 763 m 755 890 q 492 793 604 901 q 328 390 328 635 q 403 189 328 267 q 641 97 491 97 q 869 197 786 97 q 1021 595 1019 376 q 755 890 1025 872 m 747 1025 q 1158 596 1158 1021 q 993 125 1157 322 q 641 -43 853 -43 q 283 109 420 -43 q 185 389 185 216 q 362 864 185 658 q 747 1025 504 1028 z "},"Ύ":{"ha":1181,"x_min":43,"x_max":1130,"o":"m 56 787 q 43 863 18 810 l 98 981 q 186 1009 127 1043 q 201 921 239 979 l 130 811 q 56 787 97 763 m 1097 1015 q 1130 929 1156 983 l 707 32 q 589 -20 664 -59 q 587 115 534 6 l 694 339 l 334 921 q 355 1011 301 975 q 456 981 413 1051 l 764 482 l 1004 977 q 1097 1015 1038 1047 z "},"Ώ":{"ha":1333,"x_min":56,"x_max":1303,"o":"m 70 787 q 56 863 32 810 l 112 981 q 200 1009 140 1043 q 215 921 253 979 l 143 811 q 70 787 111 763 m 473 -60 l 136 -60 q 57 0 56 -60 l 57 0 q 138 61 58 61 l 368 61 q 236 346 259 209 q 252 759 196 580 q 452 1031 305 926 q 739 1107 553 1104 q 1012 1034 924 1109 q 1173 734 1143 920 q 1137 299 1206 525 q 1010 61 1101 180 l 1221 61 q 1303 0 1301 61 q 1223 -60 1303 -60 l 939 -60 q 832 -12 853 -60 q 869 98 810 36 q 1021 350 983 219 q 1044 714 1077 538 q 926 924 1017 860 q 728 977 842 981 q 519 913 599 971 q 382 726 413 837 q 370 374 334 551 q 522 87 393 263 q 473 -60 631 -60 z "},"ΐ":{"ha":389,"x_min":-104,"x_max":524,"o":"m 441 944 q 524 881 524 944 q 439 819 524 819 q 361 879 361 819 q 441 944 361 944 m -24 944 q 60 881 60 944 q -25 819 60 819 q -104 879 -104 819 q -24 944 -104 944 m 151 802 q 138 878 113 825 l 193 996 q 281 1024 222 1058 q 296 936 334 994 l 224 826 q 151 802 192 778 z "},"Α":{"ha":1016,"x_min":103,"x_max":905,"o":"m 602 924 l 905 83 q 871 -30 938 -10 q 773 45 806 -49 l 667 340 l 341 340 l 235 45 q 137 -30 202 -48 q 103 83 71 -10 l 405 924 q 504 1037 446 1037 q 602 924 562 1037 m 504 791 l 391 477 l 616 479 l 504 791 z "},"Β":{"ha":876,"x_min":133,"x_max":790,"o":"m 286 903 l 277 556 q 564 616 507 531 q 589 798 630 715 q 380 901 539 896 q 286 903 333 902 m 218 1036 q 246 1033 234 1036 q 411 1027 281 1040 q 726 823 663 1003 q 654 526 779 669 q 619 496 640 509 q 684 468 665 482 q 790 142 861 335 q 567 -16 747 28 q 204 -44 382 -61 q 192 -45 199 -45 q 133 29 131 -43 l 155 973 q 218 1036 157 1036 m 275 422 l 267 84 q 401 86 337 79 q 562 126 477 96 q 670 230 657 161 q 605 368 685 315 q 436 419 543 409 q 275 422 336 428 z "},"Γ":{"ha":856,"x_min":127,"x_max":803,"o":"m 235 -2 q 172 61 175 -1 l 127 946 q 187 1020 125 1019 q 197 1020 193 1020 q 201 1020 199 1020 l 738 1011 q 803 937 803 1010 q 736 863 803 862 l 262 874 l 304 65 q 235 -2 307 -2 z "},"Δ":{"ha":1103,"x_min":76,"x_max":1083,"o":"m 1022 -35 l 137 -35 q 102 -33 121 -35 q 76 49 45 -24 l 492 1052 q 579 1124 524 1126 q 667 1052 635 1127 l 1083 49 q 1054 -35 1118 -35 l 1022 -35 m 579 908 l 256 108 l 903 108 l 579 908 z "},"Ε":{"ha":867,"x_min":112,"x_max":807,"o":"m 239 1018 l 709 1021 q 807 943 805 1021 q 713 880 809 880 q 265 878 489 879 l 259 635 l 634 637 q 732 559 730 637 q 638 496 734 498 l 256 494 l 247 113 l 667 115 q 765 38 763 116 q 671 -25 767 -24 l 197 -28 q 182 -26 189 -28 q 171 -26 176 -26 q 112 43 110 -25 l 134 960 q 198 1019 136 1018 q 223 1017 212 1019 q 239 1018 231 1018 z "},"Ζ":{"ha":963,"x_min":62,"x_max":937,"o":"m 890 842 l 273 115 l 854 113 q 937 36 938 113 q 853 -35 937 -36 l 145 -31 q 62 40 62 -31 q 90 112 62 79 l 724 871 l 145 875 q 62 946 62 876 q 141 1021 62 1021 l 854 1019 q 937 942 938 1019 q 890 842 937 897 z "},"Η":{"ha":1067,"x_min":108,"x_max":982,"o":"m 194 1026 q 263 963 264 1026 l 254 570 l 840 570 l 850 966 q 913 1025 852 1024 q 982 962 983 1025 l 961 37 q 887 -31 960 -33 q 827 39 826 -30 q 837 428 832 233 l 250 428 l 241 38 q 167 -31 240 -32 q 108 39 106 -30 l 130 966 q 194 1026 132 1025 z "},"Θ":{"ha":1109,"x_min":78,"x_max":1050,"o":"m 401 565 l 727 566 q 791 515 791 566 q 730 463 791 463 l 397 463 q 353 513 353 463 q 401 565 353 565 m 648 890 q 385 793 496 901 q 220 390 220 635 q 296 189 220 267 q 534 97 384 97 q 762 197 679 97 q 914 595 911 376 q 648 890 918 872 m 640 1025 q 1050 596 1051 1021 q 886 125 1050 322 q 534 -43 746 -43 q 176 109 313 -43 q 78 389 78 216 q 255 864 78 658 q 640 1025 397 1028 z "},"Ι":{"ha":759,"x_min":45,"x_max":724,"o":"m 146 1013 l 641 1013 q 724 940 723 1013 q 637 873 726 873 l 433 873 l 414 112 l 631 112 q 715 39 713 112 q 627 -28 716 -28 l 131 -28 q 45 48 45 -28 q 137 112 45 113 l 281 112 l 301 873 l 140 873 q 55 949 55 873 q 146 1013 55 1013 z "},"Κ":{"ha":848,"x_min":144,"x_max":821,"o":"m 231 1031 q 300 968 301 1031 l 290 572 l 678 986 q 783 994 732 1044 q 784 895 833 945 l 376 474 l 802 117 q 821 20 865 64 q 709 28 774 -26 l 286 378 l 278 31 q 203 -39 277 -40 q 144 32 142 -37 l 167 971 q 231 1031 168 1030 z "},"Λ":{"ha":958,"x_min":26,"x_max":947,"o":"m 46 -31 q 26 77 -9 -5 l 408 993 q 487 1054 433 1054 q 566 993 540 1054 l 947 77 q 927 -31 982 -5 q 813 16 847 -67 l 487 812 l 160 16 q 46 -31 126 -67 z "},"Μ":{"ha":1226,"x_min":81,"x_max":1166,"o":"m 591 -13 q 591 -13 591 -13 q 503 98 529 -9 l 358 678 l 216 44 q 121 -22 193 -62 q 81 120 57 14 l 269 919 q 353 1020 290 1010 q 434 956 416 1029 q 600 260 434 956 l 802 922 q 905 1033 837 1035 q 991 918 968 1031 l 1166 70 q 1114 -36 1187 -27 q 1013 73 1036 -45 l 893 687 l 694 106 q 591 -13 652 -18 z "},"Ν":{"ha":1107,"x_min":88,"x_max":1050,"o":"m 899 224 l 918 981 q 981 1040 920 1038 q 1050 977 1052 1040 l 1029 60 q 955 -7 1028 -10 q 905 16 924 -6 l 237 777 l 222 39 q 148 -28 220 -30 q 88 41 86 -27 l 111 960 q 174 1019 113 1017 q 227 999 210 1019 l 899 224 z "},"Ξ":{"ha":1000,"x_min":64,"x_max":937,"o":"m 64 50 q 134 123 62 123 l 852 123 q 937 50 940 123 q 847 -12 935 -12 l 136 -13 q 64 50 64 -13 m 143 528 q 227 594 145 594 l 725 594 q 814 530 813 594 q 727 464 815 464 l 222 465 q 143 528 141 465 m 64 948 q 134 1021 62 1021 l 852 1021 q 937 948 940 1021 q 847 886 935 886 l 136 885 q 64 948 64 885 z "},"Ο":{"ha":1109,"x_min":78,"x_max":1050,"o":"m 648 890 q 385 793 496 901 q 220 390 220 635 q 296 189 220 267 q 534 97 384 97 q 762 197 679 97 q 914 595 911 376 q 648 890 918 872 m 640 1025 q 1050 596 1051 1021 q 886 125 1050 322 q 534 -43 746 -43 q 176 109 313 -43 q 78 389 78 216 q 255 864 78 658 q 640 1025 397 1028 z "},"Π":{"ha":1261,"x_min":72,"x_max":1191,"o":"m 72 993 q 151 1064 71 1064 l 1099 1064 q 1191 996 1190 1064 q 1101 924 1192 924 l 1056 924 q 1058 47 1057 486 q 989 -26 1058 -24 q 922 43 922 -28 l 916 924 l 379 924 q 381 47 380 486 q 312 -26 381 -24 q 245 43 245 -28 l 239 924 l 151 924 q 72 993 72 924 z "},"Ρ":{"ha":723,"x_min":64,"x_max":658,"o":"m 150 1029 q 178 1027 165 1029 q 355 1029 284 1036 q 658 836 592 1006 q 601 507 724 663 q 243 401 528 417 q 206 402 223 400 l 198 39 q 123 -30 197 -31 q 64 41 62 -28 l 87 970 q 150 1029 88 1029 m 217 893 l 209 530 q 509 608 449 505 q 521 798 567 709 q 312 900 465 901 q 217 893 272 899 z "},"Σ":{"ha":1038,"x_min":92,"x_max":934,"o":"m 92 43 q 105 94 92 75 q 129 125 113 109 l 501 508 l 129 891 q 114 909 120 900 q 92 954 93 923 q 163 1027 91 1027 l 848 1027 q 934 954 937 1027 q 844 897 932 897 q 302 897 573 897 l 597 586 q 638 525 630 552 q 640 508 641 517 q 638 491 640 499 q 597 430 630 464 l 300 117 l 848 117 q 934 43 937 117 q 844 -14 932 -14 l 165 -14 q 92 43 93 -14 z "},"Τ":{"ha":944,"x_min":79,"x_max":993,"o":"m 171 1017 l 903 1017 q 993 951 991 1017 q 903 888 994 888 l 618 888 l 597 34 q 524 -34 596 -35 q 464 35 463 -33 l 485 887 q 165 886 325 886 q 79 958 79 886 q 171 1017 79 1017 z "},"Υ":{"ha":882,"x_min":31,"x_max":827,"o":"m 794 1015 q 827 929 852 983 l 404 32 q 286 -20 361 -59 q 283 115 231 6 l 391 339 l 31 921 q 52 1011 -2 975 q 153 981 110 1051 l 461 482 l 701 977 q 794 1015 734 1047 z "},"Φ":{"ha":886,"x_min":64,"x_max":863,"o":"m 206 43 q 280 119 206 119 l 390 119 q 391 195 391 157 q 64 484 64 222 q 406 815 64 787 q 407 877 406 846 l 288 877 q 206 934 206 877 q 280 1009 206 1009 l 673 1009 q 741 932 740 1009 q 675 877 742 877 l 541 877 l 540 816 q 863 519 863 793 q 524 193 863 214 l 522 119 l 673 119 q 741 42 740 119 q 675 -14 742 -14 l 288 -14 q 206 43 206 -14 m 537 693 q 527 311 532 502 q 739 511 739 328 q 537 693 739 673 m 394 314 l 403 692 q 190 480 190 667 q 394 314 190 338 z "},"Χ":{"ha":1005,"x_min":83,"x_max":927,"o":"m 130 1016 q 256 955 184 1048 l 505 629 l 754 955 q 880 1016 825 1048 q 903 911 951 975 l 594 512 l 927 77 q 919 -12 967 24 q 817 -7 858 -58 l 505 397 l 193 -7 q 91 -12 152 -59 q 83 77 43 24 l 416 512 l 107 911 q 130 1016 58 975 z "},"Ψ":{"ha":936,"x_min":50,"x_max":898,"o":"m 187 956 q 216 574 168 664 q 394 464 264 485 l 406 968 q 479 1044 407 1044 q 542 968 544 1044 l 530 460 q 686 552 639 475 q 766 966 772 693 q 835 1038 764 1041 q 898 960 897 1035 q 810 486 903 618 q 526 334 719 355 q 519 55 523 195 q 444 -16 517 -18 q 385 57 384 -16 q 391 334 389 195 q 125 480 239 353 q 50 962 25 590 q 118 1046 54 1050 q 187 956 193 1043 z "},"Ω":{"ha":1333,"x_min":43,"x_max":1289,"o":"m 459 -60 l 123 -60 q 43 0 43 -60 l 43 0 q 125 61 45 61 l 355 61 q 222 346 245 209 q 239 759 182 580 q 438 1031 292 926 q 725 1107 539 1104 q 998 1034 911 1109 q 1159 734 1129 920 q 1124 299 1192 525 q 997 61 1088 180 l 1208 61 q 1289 0 1288 61 q 1210 -60 1290 -60 l 925 -60 q 819 -12 840 -60 q 855 98 797 36 q 1008 350 969 219 q 1031 714 1063 538 q 912 924 1004 860 q 715 977 829 981 q 505 913 585 971 q 369 726 399 837 q 357 374 321 551 q 509 87 379 263 q 459 -60 618 -60 z "},"Ϊ":{"ha":759,"x_min":45,"x_max":724,"o":"m 567 1233 q 650 1170 650 1233 q 566 1108 650 1108 q 487 1168 487 1108 q 567 1233 487 1233 m 224 1233 q 308 1170 308 1233 q 223 1108 308 1108 q 144 1168 144 1108 q 224 1233 144 1233 m 146 1013 l 641 1013 q 724 940 723 1013 q 637 873 726 873 l 433 873 l 414 112 l 631 112 q 715 39 713 112 q 627 -28 716 -28 l 131 -28 q 45 48 45 -28 q 137 112 45 113 l 281 112 l 301 873 l 140 873 q 55 949 55 873 q 146 1013 55 1013 z "},"Ϋ":{"ha":882,"x_min":31,"x_max":827,"o":"m 603 1235 q 686 1172 686 1235 q 602 1110 686 1110 q 523 1170 523 1110 q 603 1235 523 1235 m 260 1235 q 344 1172 344 1235 q 259 1110 344 1110 q 180 1170 180 1110 q 260 1235 180 1235 m 794 1015 q 827 929 852 983 l 404 32 q 286 -20 361 -59 q 283 115 231 6 l 391 339 l 31 921 q 52 1011 -2 975 q 153 981 110 1051 l 461 482 l 701 977 q 794 1015 734 1047 z "},"ά":{"ha":740,"x_min":35,"x_max":679,"o":"m 386 783 q 372 858 348 805 l 428 976 q 516 1004 456 1038 q 531 916 569 974 l 459 806 q 386 783 427 758 m 342 -38 q 35 288 39 -38 q 175 616 33 494 q 561 680 340 758 q 665 720 616 758 q 648 591 718 679 q 622 370 618 553 q 672 83 627 146 q 679 -18 715 26 q 557 41 631 -69 q 342 -38 432 -38 m 420 98 q 515 159 460 110 q 512 558 488 450 q 374 582 446 600 q 294 547 324 570 q 168 300 174 460 q 310 83 170 93 q 420 98 356 81 z "},"έ":{"ha":683,"x_min":109,"x_max":616,"o":"m 307 802 q 293 878 269 825 l 349 996 q 437 1024 377 1058 q 452 936 490 994 l 380 826 q 307 802 347 778 m 346 418 q 415 342 422 395 q 332 294 410 300 q 228 194 231 288 q 320 91 225 101 q 476 121 426 79 q 557 161 527 163 q 616 96 612 159 q 562 24 617 64 q 273 -24 432 -67 q 109 146 119 18 q 140 307 100 250 q 206 374 172 354 q 146 448 152 433 q 165 620 106 543 q 347 711 231 705 q 532 671 451 715 q 589 578 593 637 q 545 532 586 537 q 447 578 525 530 q 336 591 403 604 q 254 519 254 574 q 346 418 254 446 z "},"ή":{"ha":727,"x_min":90,"x_max":678,"o":"m 369 837 q 355 912 331 859 l 411 1030 q 499 1059 439 1093 q 514 970 552 1028 l 442 861 q 369 837 410 812 m 170 742 q 239 675 241 742 q 237 635 238 655 q 427 702 311 702 q 678 393 679 701 l 677 -128 q 612 -216 677 -210 q 540 -140 539 -222 l 544 363 q 437 558 545 551 q 235 457 342 565 l 224 47 q 149 -26 222 -27 q 90 48 88 -24 l 106 679 q 170 742 107 742 z "},"ί":{"ha":389,"x_min":125,"x_max":290,"o":"m 145 802 q 132 878 107 825 l 187 996 q 275 1024 216 1058 q 290 936 328 994 l 218 826 q 145 802 186 778 z "},"ΰ":{"ha":722,"x_min":54,"x_max":687,"o":"m 604 963 q 687 900 687 963 q 602 838 687 838 q 524 898 524 838 q 604 963 524 963 m 139 963 q 222 900 222 963 q 138 838 222 838 q 59 898 59 838 q 139 963 59 963 m 314 821 q 300 897 276 844 l 356 1015 q 444 1043 385 1077 q 459 955 497 1013 l 387 845 q 314 821 355 797 m 667 341 q 370 -43 659 -40 q 54 258 53 -47 l 57 634 q 122 722 58 715 q 193 646 194 728 l 190 256 q 354 95 189 95 q 533 351 528 95 l 540 630 q 606 718 541 718 q 674 630 675 718 l 667 341 z "},"α":{"ha":740,"x_min":35,"x_max":679,"o":"m 342 -38 q 35 288 39 -38 q 175 616 33 494 q 561 680 340 758 q 665 720 616 758 q 648 591 718 679 q 622 370 618 553 q 672 83 627 146 q 679 -18 715 26 q 557 41 631 -69 q 342 -38 432 -38 m 420 98 q 515 159 460 110 q 512 558 488 450 q 374 582 446 600 q 294 547 324 570 q 168 300 174 460 q 310 83 170 93 q 420 98 356 81 z "},"β":{"ha":814,"x_min":77,"x_max":722,"o":"m 126 -273 q 77 -191 74 -269 l 118 690 q 203 960 128 907 q 525 981 344 1060 q 651 783 641 930 q 596 633 658 688 q 584 621 590 627 q 722 452 687 561 q 690 96 785 259 q 435 -38 628 -9 q 222 -3 324 -55 l 214 -201 q 126 -273 210 -279 m 415 537 q 399 539 406 537 q 362 578 370 545 q 456 680 352 621 q 535 785 538 726 q 468 865 532 837 q 332 877 397 896 q 250 696 257 855 l 229 163 q 385 82 311 81 q 543 139 490 84 q 604 353 627 228 q 474 528 574 522 q 415 537 437 530 z "},"γ":{"ha":675,"x_min":56,"x_max":639,"o":"m 84 711 q 179 653 146 734 l 347 235 l 515 653 q 610 711 548 734 q 639 608 671 689 l 422 70 q 408 39 416 53 l 407 -163 q 345 -224 406 -225 q 281 -161 280 -223 q 283 45 282 -58 q 272 70 277 56 l 56 608 q 84 711 23 689 z "},"δ":{"ha":730,"x_min":56,"x_max":680,"o":"m 389 564 q 256 502 300 562 q 189 309 189 410 q 237 149 189 201 q 347 97 286 97 q 473 152 408 97 q 532 334 532 201 q 389 564 532 567 m 119 962 q 180 1027 106 1027 l 613 1027 q 680 964 682 1027 q 610 903 679 903 q 372 903 491 903 q 616 562 562 694 q 658 321 659 471 q 553 51 657 175 q 336 -40 477 -40 q 132 67 222 -40 q 56 321 56 157 q 149 582 56 465 q 372 701 241 699 q 380 701 376 701 q 218 854 299 799 q 133 930 141 909 q 119 962 123 943 z "},"ε":{"ha":683,"x_min":109,"x_max":616,"o":"m 346 418 q 415 342 422 395 q 332 294 410 300 q 228 194 231 288 q 320 91 225 101 q 476 121 426 79 q 557 161 527 163 q 616 96 612 159 q 562 24 617 64 q 273 -24 432 -67 q 109 146 119 18 q 140 307 100 250 q 206 374 172 354 q 146 448 152 433 q 165 620 106 543 q 347 711 231 705 q 532 671 451 715 q 589 578 593 637 q 545 532 586 537 q 447 578 525 530 q 336 591 403 604 q 254 519 254 574 q 346 418 254 446 z "},"ζ":{"ha":713,"x_min":73,"x_max":686,"o":"m 73 975 q 153 1042 77 1042 l 611 1042 q 686 979 684 1042 q 615 911 688 911 l 583 911 q 253 476 368 723 q 270 139 132 214 q 521 47 353 94 q 618 -103 602 24 q 541 -237 629 -184 q 328 -279 463 -284 q 262 -226 278 -277 q 293 -167 252 -190 q 409 -144 334 -144 q 476 -106 468 -144 q 437 -47 486 -55 q 136 61 196 -11 q 134 525 0 225 q 418 911 203 677 l 146 911 q 73 975 70 911 z "},"η":{"ha":727,"x_min":90,"x_max":678,"o":"m 170 742 q 239 675 241 742 q 237 635 238 655 q 427 702 311 702 q 678 393 679 701 l 677 -128 q 612 -216 677 -210 q 540 -140 539 -222 l 544 363 q 437 558 545 551 q 235 457 342 565 l 224 47 q 149 -26 222 -27 q 90 48 88 -24 l 106 679 q 170 742 107 742 z "},"θ":{"ha":848,"x_min":44,"x_max":799,"o":"m 433 1052 q 799 545 799 1052 q 414 -28 799 -28 q 44 521 44 -28 q 433 1052 44 1052 m 178 454 q 411 105 195 105 q 660 459 636 105 l 178 454 m 178 584 l 662 589 q 433 924 649 923 q 178 584 198 924 z "},"ι":{"ha":389,"x_min":125,"x_max":270,"o":"m 207 710 q 270 622 271 709 l 260 58 q 195 -34 259 -34 q 125 52 123 -33 l 136 621 q 207 710 138 711 z "},"κ":{"ha":750,"x_min":85,"x_max":688,"o":"m 145 -26 q 85 64 83 -23 l 106 648 q 182 724 109 730 q 240 637 243 719 l 232 416 l 510 673 q 616 687 572 731 q 600 580 663 637 l 440 436 l 688 82 q 673 -13 727 26 q 579 5 618 -52 l 341 347 l 226 243 l 220 58 q 145 -26 217 -29 z "},"λ":{"ha":675,"x_min":53,"x_max":644,"o":"m 340 924 q 406 854 406 925 q 407 666 406 760 l 644 98 q 616 -6 676 21 q 524 44 555 -33 l 342 499 l 171 36 q 81 -11 144 -35 q 53 82 26 11 l 265 661 l 269 852 q 340 924 270 924 z "},"μ":{"ha":722,"x_min":76,"x_max":655,"o":"m 607 -52 q 522 9 526 -52 q 407 -12 474 -12 q 216 32 290 -12 l 210 -211 q 161 -274 208 -274 q 76 -207 75 -274 l 85 256 q 87 310 85 256 l 90 630 q 155 720 90 721 q 219 642 220 720 l 218 346 q 220 309 218 326 q 222 287 222 299 q 368 144 241 147 q 522 231 486 142 l 520 646 q 592 718 520 719 q 654 644 654 716 l 655 11 q 607 -52 655 -52 z "},"ν":{"ha":675,"x_min":56,"x_max":645,"o":"m 81 709 q 179 652 148 738 l 350 176 l 522 652 q 620 709 553 738 q 645 600 677 685 l 431 43 q 351 -31 403 -31 q 269 43 298 -31 l 56 600 q 81 709 23 685 z "},"ξ":{"ha":713,"x_min":131,"x_max":618,"o":"m 427 557 q 265 456 334 549 q 243 146 135 278 q 521 47 279 103 q 618 -103 601 28 q 541 -237 629 -184 q 328 -279 463 -284 q 262 -226 278 -277 q 293 -167 252 -190 q 409 -144 334 -144 q 476 -106 468 -144 q 437 -47 486 -54 q 135 73 195 -9 q 174 531 -7 271 q 262 611 203 573 q 131 714 159 654 q 210 1007 62 857 q 491 1080 274 1072 q 570 1021 564 1083 q 505 948 578 952 q 308 903 363 940 q 251 777 239 857 q 334 720 258 725 q 448 702 368 718 q 519 618 522 687 q 427 557 516 566 z "},"ο":{"ha":730,"x_min":56,"x_max":658,"o":"m 389 573 q 256 511 300 571 q 189 309 189 419 q 237 149 189 202 q 353 95 288 95 q 477 149 427 95 q 532 334 531 207 q 389 573 532 576 m 384 711 q 658 321 659 709 q 585 69 657 155 q 336 -33 503 -35 q 132 67 216 -33 q 56 321 56 157 q 146 595 56 475 q 384 711 236 713 z "},"π":{"ha":872,"x_min":43,"x_max":852,"o":"m 43 543 q 50 634 11 591 q 187 705 113 705 l 760 705 q 852 643 853 705 q 757 581 850 581 l 696 581 l 656 185 q 670 102 648 115 q 723 50 716 75 q 701 -16 735 2 q 609 -10 659 -37 q 529 75 548 22 q 531 201 520 100 l 569 581 l 369 581 l 309 29 q 241 -28 302 -36 q 184 45 178 -20 l 242 581 q 182 571 202 579 l 122 528 q 43 543 61 516 z "},"ρ":{"ha":730,"x_min":26,"x_max":658,"o":"m 384 702 q 658 321 658 700 q 553 51 657 177 q 336 -40 477 -40 q 174 24 248 -40 l 157 -207 q 75 -280 151 -286 q 26 -196 21 -275 l 55 295 q 56 305 55 300 q 56 321 56 313 q 146 585 56 464 q 384 702 239 703 m 389 564 q 256 502 300 562 q 189 309 189 410 q 237 149 189 201 q 347 97 286 97 q 473 152 408 97 q 532 334 532 201 q 389 564 532 567 z "},"ς":{"ha":713,"x_min":127,"x_max":636,"o":"m 397 589 q 243 472 315 583 q 243 146 124 291 q 521 47 279 103 q 618 -103 601 28 q 541 -237 629 -184 q 328 -279 463 -284 q 262 -226 278 -277 q 293 -167 252 -190 q 409 -144 334 -144 q 476 -106 468 -144 q 437 -47 486 -54 q 129 73 197 -11 q 127 509 1 230 q 326 700 194 653 q 581 669 429 736 q 636 561 670 629 q 526 560 608 504 q 397 589 477 594 z "},"σ":{"ha":730,"x_min":56,"x_max":758,"o":"m 405 701 l 685 700 q 758 637 759 700 q 682 576 756 576 l 401 575 q 301 636 299 575 q 405 701 302 702 m 389 565 q 256 503 300 563 q 189 300 189 411 q 237 141 189 194 q 353 87 288 87 q 477 141 427 87 q 532 326 531 199 q 389 565 532 568 m 384 703 q 658 313 659 701 q 585 61 657 147 q 336 -41 503 -43 q 132 59 216 -41 q 56 313 56 149 q 146 587 56 467 q 384 703 236 705 z "},"τ":{"ha":654,"x_min":46,"x_max":614,"o":"m 46 644 q 111 718 45 718 l 529 717 q 614 652 612 717 q 536 581 618 581 q 388 581 462 581 l 401 50 q 335 -43 404 -44 q 266 51 269 -43 l 254 580 l 115 580 q 46 644 49 580 z "},"υ":{"ha":722,"x_min":54,"x_max":674,"o":"m 667 341 q 370 -43 659 -40 q 54 258 53 -47 l 57 634 q 122 722 58 715 q 193 646 194 728 l 190 256 q 354 95 189 95 q 533 351 528 95 l 540 630 q 606 718 541 718 q 674 630 675 718 l 667 341 z "},"φ":{"ha":854,"x_min":86,"x_max":745,"o":"m 630 458 q 552 568 603 576 q 498 437 502 561 l 486 110 q 633 216 609 139 q 630 458 664 312 m 741 541 q 745 140 820 315 q 484 -31 673 -27 l 480 -183 q 410 -269 478 -270 q 346 -180 344 -267 q 349 -24 348 -102 q 86 222 112 24 q 147 591 58 440 q 253 631 199 679 q 251 524 289 600 q 220 224 169 359 q 353 115 252 141 l 365 443 q 431 665 372 615 q 623 681 518 736 q 741 541 707 636 z "},"χ":{"ha":820,"x_min":81,"x_max":722,"o":"m 81 696 q 194 667 133 737 l 401 429 l 609 667 q 722 696 670 738 q 720 591 777 653 l 487 334 l 702 100 q 715 -18 768 28 q 603 12 667 -60 l 401 237 l 200 12 q 87 -18 136 -60 q 101 100 34 28 l 319 332 l 83 591 q 81 696 26 653 z "},"ψ":{"ha":813,"x_min":58,"x_max":768,"o":"m 699 714 q 768 633 768 717 q 716 157 768 248 q 465 -39 621 -12 l 461 -192 q 391 -277 459 -279 q 327 -189 325 -276 q 330 -33 329 -111 q 87 168 166 2 q 58 641 29 288 q 132 711 64 713 q 194 637 199 709 q 208 237 170 309 q 334 106 258 138 l 346 664 q 415 740 348 743 q 479 659 480 737 l 467 101 q 593 203 558 126 q 632 627 636 302 q 699 714 631 711 z "},"ω":{"ha":1056,"x_min":36,"x_max":984,"o":"m 904 717 q 984 641 983 722 q 915 109 990 283 q 692 -31 852 -34 q 510 98 568 -28 q 328 -31 452 -28 q 105 109 168 -34 q 36 641 30 283 q 116 717 37 722 q 165 622 170 714 q 196 226 151 378 q 318 106 232 103 q 408 172 372 109 q 452 500 448 243 q 452 588 452 543 q 509 644 453 645 q 510 644 509 644 l 511 644 q 568 588 567 645 q 568 500 568 543 q 612 172 572 243 q 702 106 648 109 q 824 226 788 103 q 855 622 869 378 q 904 717 850 714 z "},"ϊ":{"ha":389,"x_min":-43,"x_max":463,"o":"m 379 919 q 463 856 463 919 q 378 794 463 794 q 299 854 299 794 q 379 919 299 919 m 37 919 q 120 856 120 919 q 35 794 120 794 q -43 854 -43 794 q 37 919 -43 919 m 207 710 q 270 622 271 709 l 260 58 q 195 -34 259 -34 q 125 52 123 -33 l 136 621 q 207 710 138 711 z "},"ϋ":{"ha":722,"x_min":54,"x_max":674,"o":"m 533 928 q 616 865 616 928 q 532 804 616 804 q 453 863 453 804 q 533 928 453 928 m 191 928 q 274 865 274 928 q 189 804 274 804 q 111 863 111 804 q 191 928 111 928 m 667 341 q 370 -43 659 -40 q 54 258 53 -47 l 57 634 q 122 722 58 715 q 193 646 194 728 l 190 256 q 354 95 189 95 q 533 351 528 95 l 540 630 q 606 718 541 718 q 674 630 675 718 l 667 341 z "},"ό":{"ha":730,"x_min":56,"x_max":658,"o":"m 321 802 q 308 878 283 825 l 363 996 q 452 1024 392 1058 q 467 936 505 994 l 395 826 q 321 802 362 778 m 389 573 q 256 511 300 571 q 189 309 189 419 q 237 149 189 202 q 353 95 288 95 q 477 149 427 95 q 532 334 531 207 q 389 573 532 576 m 384 711 q 658 321 659 709 q 585 69 657 155 q 336 -33 503 -35 q 132 67 216 -33 q 56 321 56 157 q 146 595 56 475 q 384 711 236 713 z "},"ύ":{"ha":722,"x_min":54,"x_max":674,"o":"m 322 815 q 309 890 284 838 l 364 1008 q 452 1037 393 1071 q 467 949 505 1006 l 395 839 q 322 815 363 791 m 667 341 q 370 -43 659 -40 q 54 258 53 -47 l 57 634 q 122 722 58 715 q 193 646 194 728 l 190 256 q 354 95 189 95 q 533 351 528 95 l 540 630 q 606 718 541 718 q 674 630 675 718 l 667 341 z "},"ώ":{"ha":1056,"x_min":36,"x_max":984,"o":"m 490 808 q 476 884 452 831 l 532 1002 q 620 1030 560 1064 q 635 942 673 1000 l 563 832 q 490 808 530 784 m 904 717 q 984 641 983 722 q 915 109 990 283 q 692 -31 852 -34 q 510 98 568 -28 q 328 -31 452 -28 q 105 109 168 -34 q 36 641 30 283 q 116 717 37 722 q 165 622 170 714 q 196 226 151 378 q 318 106 232 103 q 408 172 372 109 q 452 500 448 243 q 452 588 452 543 q 509 644 453 645 q 510 644 509 644 l 511 644 q 568 588 567 645 q 568 500 568 543 q 612 172 572 243 q 702 106 648 109 q 824 226 788 103 q 855 622 869 378 q 904 717 850 714 z "},"Ё":{"ha":867,"x_min":112,"x_max":807,"o":"m 660 1237 q 743 1174 743 1237 q 659 1112 743 1112 q 580 1172 580 1112 q 660 1237 580 1237 m 317 1237 q 401 1174 401 1237 q 316 1112 401 1112 q 237 1172 237 1112 q 317 1237 237 1237 z "},"Ђ":{"ha":1181,"x_min":28,"x_max":1101,"o":"m 557 675 q 874 694 747 725 q 1101 446 1044 654 q 1059 53 1148 275 q 863 -175 993 -113 q 739 -157 776 -216 q 781 -66 707 -106 q 894 24 867 -18 q 961 439 1011 211 q 749 570 932 570 q 553 523 665 570 l 557 675 m 120 1017 l 852 1017 q 942 951 941 1017 q 852 888 943 888 l 567 888 l 547 34 q 473 -34 545 -35 q 413 35 412 -33 l 434 887 q 114 886 274 886 q 28 958 28 886 q 120 1017 28 1017 z "},"Ѓ":{"ha":856,"x_min":127,"x_max":803,"o":"m 625 1413 q 634 1328 675 1373 l 473 1152 q 376 1124 414 1086 q 395 1230 339 1160 l 536 1406 q 625 1413 574 1454 m 235 -2 q 172 61 175 -1 l 127 946 q 187 1020 125 1019 q 197 1020 193 1020 q 201 1020 199 1020 l 738 1011 q 803 937 803 1010 q 736 863 803 862 l 262 874 l 304 65 q 235 -2 307 -2 z "},"Є":{"ha":837,"x_min":52,"x_max":781,"o":"m 370 842 q 256 718 305 800 q 205 555 217 652 l 556 569 q 631 509 627 572 q 564 441 635 445 l 201 424 q 264 218 209 302 q 402 138 316 142 q 591 174 525 133 q 726 227 688 235 q 781 125 791 215 q 645 23 776 75 q 412 -16 537 -20 q 151 116 250 -12 q 52 448 52 243 q 143 819 52 692 q 424 1025 276 1002 q 678 991 565 1046 q 767 909 764 947 q 743 836 770 861 q 644 827 695 793 q 537 871 597 858 q 370 842 447 892 z "},"Ѕ":{"ha":963,"x_min":100,"x_max":898,"o":"m 198 840 q 360 972 243 916 q 571 1016 458 1020 q 741 981 671 1012 q 842 896 840 938 q 806 842 844 861 q 715 856 781 830 q 547 888 620 892 q 373 834 434 882 q 302 723 309 784 q 400 585 291 600 q 605 573 441 578 q 819 498 751 568 q 898 301 904 410 q 721 36 888 133 q 444 -29 610 -28 q 241 4 322 -30 q 149 60 187 26 q 100 149 95 108 q 141 203 106 193 q 237 163 180 214 q 347 108 282 123 q 509 100 435 87 q 685 168 639 123 q 750 350 776 256 q 463 445 723 449 q 164 631 211 441 q 198 840 138 738 z "},"І":{"ha":759,"x_min":45,"x_max":724,"o":"m 146 1013 l 641 1013 q 724 940 723 1013 q 637 873 726 873 l 433 873 l 414 112 l 631 112 q 715 39 713 112 q 627 -28 716 -28 l 131 -28 q 45 48 45 -28 q 137 112 45 113 l 281 112 l 301 873 l 140 873 q 55 949 55 873 q 146 1013 55 1013 z "},"Ї":{"ha":759,"x_min":45,"x_max":724,"o":"m 567 1233 q 650 1170 650 1233 q 566 1108 650 1108 q 487 1168 487 1108 q 567 1233 487 1233 m 224 1233 q 308 1170 308 1233 q 223 1108 308 1108 q 144 1168 144 1108 q 224 1233 144 1233 m 146 1013 l 641 1013 q 724 940 723 1013 q 637 873 726 873 l 433 873 l 414 112 l 631 112 q 715 39 713 112 q 627 -28 716 -28 l 131 -28 q 45 48 45 -28 q 137 112 45 113 l 281 112 l 301 873 l 140 873 q 55 949 55 873 q 146 1013 55 1013 z "},"Ј":{"ha":924,"x_min":68,"x_max":892,"o":"m 314 1016 l 808 1016 q 892 946 890 1016 q 804 882 893 882 l 646 882 l 646 205 q 393 -39 646 -52 q 68 271 47 -23 q 138 332 72 331 q 204 268 204 331 q 391 95 204 95 q 507 201 507 95 l 507 882 l 308 882 q 222 955 222 882 q 314 1016 222 1016 z "},"Љ":{"ha":1389,"x_min":15,"x_max":1339,"o":"m 215 964 q 298 1031 216 1031 l 745 1031 q 841 952 844 1031 q 840 946 841 949 q 841 930 841 938 q 836 642 838 785 q 1207 596 1124 648 q 1339 313 1347 509 q 1185 31 1331 114 q 774 -8 1098 -19 q 764 -7 769 -8 q 758 -8 761 -8 q 711 7 729 -9 q 693 33 696 18 q 682 112 681 62 l 702 897 l 345 897 l 332 323 q 131 -12 326 13 q 15 55 18 -26 q 90 120 12 121 q 196 317 191 119 l 214 936 q 215 956 214 946 q 215 964 215 960 m 833 505 l 827 123 q 1099 144 1044 121 q 1207 315 1200 187 q 1081 500 1215 458 q 833 505 1031 516 z "},"Њ":{"ha":1357,"x_min":33,"x_max":1300,"o":"m 738 1019 q 807 930 808 1018 q 802 642 804 785 q 1152 591 1067 645 q 1300 313 1302 497 q 1145 31 1298 117 q 734 -8 1059 -19 q 728 -8 731 -8 q 724 -8 726 -8 q 690 -1 704 -9 q 653 47 652 12 q 653 52 653 50 q 648 112 647 77 q 658 505 653 309 l 184 505 l 177 116 q 108 -8 175 -6 q 33 112 30 -10 l 53 932 q 122 1019 55 1020 q 191 930 193 1018 l 186 639 l 661 639 l 669 932 q 738 1019 671 1020 m 800 506 l 793 123 q 1060 144 1005 121 q 1168 315 1161 187 q 1042 500 1176 458 q 800 506 992 516 z "},"Ћ":{"ha":1176,"x_min":28,"x_max":1072,"o":"m 555 675 q 763 732 618 728 q 1029 570 951 739 q 1072 307 1079 463 q 1062 85 1062 87 q 987 -26 1059 -31 q 930 90 921 -22 q 926 498 954 405 q 840 584 905 566 q 694 584 764 606 q 551 522 576 549 l 555 675 m 120 1017 l 852 1017 q 942 951 941 1017 q 852 888 943 888 l 567 888 l 547 34 q 473 -34 545 -35 q 413 35 412 -33 l 434 887 q 114 886 274 886 q 28 958 28 886 q 120 1017 28 1017 z "},"Ќ":{"ha":880,"x_min":114,"x_max":812,"o":"m 581 1428 q 590 1342 631 1388 l 429 1166 q 332 1139 370 1101 q 351 1244 295 1175 l 492 1420 q 581 1428 530 1468 m 182 -10 q 115 61 115 -10 l 114 981 q 182 1042 114 1042 q 253 981 253 1042 q 251 649 252 814 q 503 775 465 652 q 699 1017 581 1027 q 800 950 818 1008 q 747 913 789 911 q 595 688 687 917 q 461 573 565 612 q 812 114 671 458 q 778 0 848 27 q 690 45 724 -21 q 250 513 451 516 l 248 61 q 182 -10 247 -10 z "},"Ў":{"ha":882,"x_min":37,"x_max":814,"o":"m 448 1213 q 627 1311 593 1209 q 705 1387 657 1404 q 730 1289 757 1369 q 445 1114 669 1113 q 174 1272 236 1116 q 194 1386 134 1375 q 269 1323 255 1398 q 448 1213 289 1217 m 51 1018 q 153 987 113 1055 l 467 463 l 686 961 q 795 1024 727 1055 q 814 902 856 996 l 521 247 q 138 -26 399 -24 q 71 29 75 -26 q 128 109 65 109 q 391 290 311 108 l 404 318 q 385 345 394 330 l 37 918 q 51 1018 -4 985 z "},"Џ":{"ha":1013,"x_min":76,"x_max":920,"o":"m 149 1042 q 220 968 220 1040 l 220 130 l 776 130 q 775 972 776 551 q 848 1042 775 1044 q 920 968 920 1040 l 920 87 q 874 -5 923 7 q 824 -14 854 -14 l 538 -14 l 538 -118 q 477 -189 526 -190 q 406 -119 406 -188 q 406 -14 406 -66 l 168 -14 q 127 -5 143 -14 q 77 90 77 10 l 76 972 q 149 1042 76 1044 z "},"А":{"ha":1016,"x_min":103,"x_max":905,"o":"m 602 924 l 905 83 q 871 -30 938 -10 q 773 45 806 -49 l 667 340 l 341 340 l 235 45 q 137 -30 202 -48 q 103 83 71 -10 l 405 924 q 504 1037 446 1037 q 602 924 562 1037 m 504 791 l 391 477 l 616 479 l 504 791 z "},"Б":{"ha":840,"x_min":120,"x_max":753,"o":"m 181 -11 q 120 52 119 -11 l 123 954 q 184 1028 123 1027 q 199 1027 193 1028 q 674 1031 437 1029 q 753 966 751 1032 q 678 899 755 900 q 256 895 467 897 l 254 644 q 292 644 258 644 q 690 549 610 648 q 709 114 837 369 q 442 0 663 18 q 210 -7 265 -14 q 181 -11 197 -11 m 252 135 q 355 132 314 133 q 597 193 555 132 q 613 418 660 285 q 254 509 571 538 l 252 135 z "},"В":{"ha":876,"x_min":133,"x_max":790,"o":"m 286 903 l 277 556 q 564 616 507 531 q 589 798 630 715 q 380 901 539 896 q 286 903 333 902 m 218 1036 q 246 1033 234 1036 q 411 1027 281 1040 q 726 823 663 1003 q 654 526 779 669 q 619 496 640 509 q 684 468 665 482 q 790 142 861 335 q 567 -16 747 28 q 204 -44 382 -61 q 192 -45 199 -45 q 133 29 131 -43 l 155 973 q 218 1036 157 1036 m 275 422 l 267 84 q 401 86 337 79 q 562 126 477 96 q 670 230 657 161 q 605 368 685 315 q 436 419 543 409 q 275 422 336 428 z "},"Г":{"ha":856,"x_min":127,"x_max":803,"o":"m 235 -2 q 172 61 175 -1 l 127 946 q 187 1020 125 1019 q 197 1020 193 1020 q 201 1020 199 1020 l 738 1011 q 803 937 803 1010 q 736 863 803 862 l 262 874 l 304 65 q 235 -2 307 -2 z "},"Д":{"ha":1067,"x_min":64,"x_max":1010,"o":"m 876 1036 q 945 972 945 1038 q 943 130 944 551 q 1010 62 1008 123 q 1008 46 1010 54 q 1010 16 1010 33 l 1010 -153 q 948 -218 1004 -220 q 880 -159 880 -217 q 878 0 879 -79 q 198 0 538 0 l 198 -153 q 136 -218 192 -220 q 67 -159 68 -217 l 66 31 q 66 40 66 35 q 64 60 64 50 q 135 131 65 131 l 146 131 q 279 942 332 491 q 291 1002 275 981 q 320 1023 298 1017 q 353 1029 334 1029 q 378 1027 367 1030 q 851 1034 614 1030 q 876 1036 862 1036 m 806 130 q 808 895 807 513 l 429 891 q 295 131 437 438 l 806 130 z "},"Е":{"ha":867,"x_min":112,"x_max":807,"o":"m 239 1018 l 709 1021 q 807 943 805 1021 q 713 880 809 880 q 265 878 489 879 l 259 635 l 634 637 q 732 559 730 637 q 638 496 734 498 l 256 494 l 247 113 l 667 115 q 765 38 763 116 q 671 -25 767 -24 l 197 -28 q 182 -26 189 -28 q 171 -26 176 -26 q 112 43 110 -25 l 134 960 q 198 1019 136 1018 q 223 1017 212 1019 q 239 1018 231 1018 z "},"Ж":{"ha":1194,"x_min":31,"x_max":1154,"o":"m 586 -10 q 518 61 518 -10 q 518 511 518 286 q 153 45 372 482 q 66 0 120 -21 q 31 114 -4 27 q 357 574 173 460 q 249 688 279 614 q 96 913 155 917 q 43 950 55 911 q 145 1017 26 1008 q 340 775 262 1027 q 517 650 376 660 q 517 981 517 815 q 586 1042 517 1042 q 656 981 656 1042 l 654 649 q 845 775 807 654 q 1040 1017 923 1027 q 1142 950 1160 1008 q 1089 913 1131 911 q 937 688 1030 917 q 828 574 906 614 q 1154 114 1013 460 q 1120 0 1190 27 q 1032 45 1065 -21 q 654 513 803 504 l 651 61 q 586 -10 650 -10 z "},"З":{"ha":835,"x_min":47,"x_max":747,"o":"m 313 533 q 354 590 313 579 q 520 636 454 617 q 606 773 616 665 q 440 895 596 887 q 302 871 344 901 q 173 820 220 814 q 123 873 125 825 q 202 970 120 917 q 425 1024 295 1032 q 679 920 609 1013 q 712 619 804 756 q 595 537 677 568 q 675 496 631 530 q 747 217 772 421 q 488 -22 722 16 q 149 16 277 -57 q 47 118 51 73 q 104 195 41 195 q 227 142 143 195 q 450 114 298 98 q 617 268 603 130 q 423 471 634 437 q 313 533 313 480 z "},"И":{"ha":1038,"x_min":90,"x_max":941,"o":"m 804 812 l 791 56 q 852 -3 790 -1 q 924 60 922 -3 l 941 977 q 869 1044 942 1047 q 819 1021 835 1043 l 224 260 l 239 998 q 168 1065 240 1067 q 105 996 106 1064 l 90 77 q 150 18 90 20 q 204 38 189 18 l 804 812 z "},"Й":{"ha":1038,"x_min":90,"x_max":941,"o":"m 511 1253 q 690 1351 656 1249 q 768 1427 720 1444 q 793 1329 820 1409 q 508 1154 732 1153 q 237 1312 299 1156 q 257 1426 197 1415 q 332 1363 318 1438 q 511 1253 352 1257 m 804 812 l 791 56 q 852 -3 790 -1 q 924 60 922 -3 l 941 977 q 869 1044 942 1047 q 819 1021 835 1043 l 224 260 l 239 998 q 168 1065 240 1067 q 105 996 106 1064 l 90 77 q 150 18 90 20 q 204 38 189 18 l 804 812 z "},"К":{"ha":880,"x_min":114,"x_max":812,"o":"m 182 -10 q 115 61 115 -10 l 114 981 q 182 1042 114 1042 q 253 981 253 1042 q 251 649 252 814 q 503 775 465 652 q 699 1017 581 1027 q 800 950 818 1008 q 747 913 789 911 q 595 688 687 917 q 461 573 565 612 q 812 114 671 458 q 778 0 848 27 q 690 45 724 -21 q 250 513 451 516 l 248 61 q 182 -10 247 -10 z "},"Л":{"ha":1026,"x_min":19,"x_max":903,"o":"m 829 1028 q 900 955 900 1026 l 903 83 q 833 -12 903 -14 q 759 85 760 -12 l 755 884 l 329 884 l 332 319 q 111 -12 333 -7 q 19 41 27 -14 q 98 122 7 119 q 188 321 189 125 l 184 959 q 258 1028 184 1030 q 273 1027 266 1028 l 800 1027 q 809 1027 804 1027 q 829 1028 819 1028 z "},"М":{"ha":1226,"x_min":81,"x_max":1166,"o":"m 591 -13 q 591 -13 591 -13 q 503 98 529 -9 l 358 678 l 216 44 q 121 -22 193 -62 q 81 120 57 14 l 269 919 q 353 1020 290 1010 q 434 956 416 1029 q 600 260 434 956 l 802 922 q 905 1033 837 1035 q 991 918 968 1031 l 1166 70 q 1114 -36 1187 -27 q 1013 73 1036 -45 l 893 687 l 694 106 q 591 -13 652 -18 z "},"Н":{"ha":1067,"x_min":108,"x_max":982,"o":"m 194 1026 q 263 963 264 1026 l 254 570 l 840 570 l 850 966 q 913 1025 852 1024 q 982 962 983 1025 l 961 37 q 887 -31 960 -33 q 827 39 826 -30 q 837 428 832 233 l 250 428 l 241 38 q 167 -31 240 -32 q 108 39 106 -30 l 130 966 q 194 1026 132 1025 z "},"О":{"ha":1109,"x_min":78,"x_max":1050,"o":"m 648 890 q 385 793 496 901 q 220 390 220 635 q 296 189 220 267 q 534 97 384 97 q 762 197 679 97 q 914 595 911 376 q 648 890 918 872 m 640 1025 q 1050 596 1051 1021 q 886 125 1050 322 q 534 -43 746 -43 q 176 109 313 -43 q 78 389 78 216 q 255 864 78 658 q 640 1025 397 1028 z "},"П":{"ha":1261,"x_min":72,"x_max":1191,"o":"m 72 993 q 151 1064 71 1064 l 1099 1064 q 1191 996 1190 1064 q 1101 924 1192 924 l 1056 924 q 1058 47 1057 486 q 989 -26 1058 -24 q 922 43 922 -28 l 916 924 l 379 924 q 381 47 380 486 q 312 -26 381 -24 q 245 43 245 -28 l 239 924 l 151 924 q 72 993 72 924 z "},"Р":{"ha":723,"x_min":64,"x_max":658,"o":"m 150 1029 q 178 1027 165 1029 q 355 1029 284 1036 q 658 836 592 1006 q 601 507 724 663 q 243 401 528 417 q 206 402 223 400 l 198 39 q 123 -30 197 -31 q 64 41 62 -28 l 87 970 q 150 1029 88 1029 m 217 893 l 209 530 q 509 608 449 505 q 521 798 567 709 q 312 900 465 901 q 217 893 272 899 z "},"С":{"ha":837,"x_min":52,"x_max":781,"o":"m 370 844 q 256 716 305 801 q 200 456 200 621 q 264 206 200 305 q 402 124 316 128 q 591 161 525 118 q 726 215 688 223 q 781 111 791 203 q 645 6 776 60 q 412 -34 537 -39 q 151 100 248 -28 q 52 440 52 231 q 143 820 52 690 q 424 1031 276 1007 q 678 996 565 1053 q 767 913 764 951 q 743 838 770 863 q 644 828 695 793 q 537 874 597 860 q 370 844 447 895 z "},"Т":{"ha":944,"x_min":79,"x_max":993,"o":"m 171 1017 l 903 1017 q 993 951 991 1017 q 903 888 994 888 l 618 888 l 597 34 q 524 -34 596 -35 q 464 35 463 -33 l 485 887 q 165 886 325 886 q 79 958 79 886 q 171 1017 79 1017 z "},"У":{"ha":882,"x_min":37,"x_max":814,"o":"m 51 1018 q 153 987 113 1055 l 467 463 l 686 961 q 795 1024 727 1055 q 814 902 856 996 l 521 247 q 138 -26 399 -24 q 71 29 75 -26 q 128 109 65 109 q 391 290 311 108 l 404 318 q 385 345 394 330 l 37 918 q 51 1018 -4 985 z "},"Ф":{"ha":886,"x_min":64,"x_max":863,"o":"m 206 43 q 280 119 206 119 l 390 119 q 391 195 391 157 q 64 484 64 222 q 406 815 64 787 q 407 877 406 846 l 288 877 q 206 934 206 877 q 280 1009 206 1009 l 673 1009 q 741 932 740 1009 q 675 877 742 877 l 541 877 l 540 816 q 863 519 863 793 q 524 193 863 214 l 522 119 l 673 119 q 741 42 740 119 q 675 -14 742 -14 l 288 -14 q 206 43 206 -14 m 537 693 q 527 311 532 502 q 739 511 739 328 q 537 693 739 673 m 394 314 l 403 692 q 190 480 190 667 q 394 314 190 338 z "},"Х":{"ha":1005,"x_min":83,"x_max":927,"o":"m 130 1016 q 256 955 184 1048 l 505 629 l 754 955 q 880 1016 825 1048 q 903 911 951 975 l 594 512 l 927 77 q 919 -12 967 24 q 817 -7 858 -58 l 505 397 l 193 -7 q 91 -12 152 -59 q 83 77 43 24 l 416 512 l 107 911 q 130 1016 58 975 z "},"Ц":{"ha":1074,"x_min":76,"x_max":1032,"o":"m 149 1042 q 220 968 220 1040 l 220 130 q 776 130 498 130 l 775 972 q 848 1042 775 1044 q 920 968 920 1040 l 920 130 q 1025 81 1013 127 q 1029 58 1028 68 q 1032 33 1032 47 l 1032 -118 q 970 -189 1020 -190 q 900 -119 900 -188 q 899 -14 900 -66 l 177 -14 q 142 -7 157 -14 q 77 90 77 -1 l 76 972 q 149 1042 76 1044 z "},"Ч":{"ha":857,"x_min":77,"x_max":765,"o":"m 682 -20 q 613 47 612 -20 q 620 397 616 222 q 386 316 532 316 q 77 626 76 317 l 79 959 q 144 1046 79 1040 q 216 971 216 1053 l 216 675 q 389 473 216 477 q 625 643 576 469 q 631 975 628 808 q 705 1048 632 1048 q 765 973 766 1046 l 746 43 q 682 -20 745 -20 z "},"Ш":{"ha":1259,"x_min":76,"x_max":1172,"o":"m 149 1042 q 220 968 220 1040 l 220 130 q 554 130 387 130 l 553 972 q 627 1042 553 1044 q 698 968 698 1040 l 698 130 q 1028 130 863 130 q 1027 972 1028 551 q 1101 1042 1027 1044 q 1172 968 1172 1040 l 1172 87 q 1167 38 1173 58 q 1085 -14 1161 -14 l 168 -14 q 127 -5 143 -14 q 77 90 77 10 l 76 972 q 149 1042 76 1044 z "},"Щ":{"ha":1329,"x_min":76,"x_max":1286,"o":"m 149 1042 q 220 968 220 1040 l 220 130 q 554 130 387 130 q 553 972 554 551 q 627 1042 553 1044 q 698 968 698 1040 l 698 130 q 1028 130 863 130 l 1027 972 q 1101 1042 1027 1044 q 1172 968 1172 1040 l 1172 130 q 1192 130 1181 130 q 1285 62 1278 130 q 1286 47 1286 54 q 1286 33 1286 40 l 1286 -118 q 1225 -189 1274 -190 q 1154 -119 1154 -188 q 1154 -14 1154 -66 l 168 -14 q 127 -5 143 -14 q 77 90 77 10 l 76 972 q 149 1042 76 1044 z "},"Ъ":{"ha":1055,"x_min":29,"x_max":924,"o":"m 467 135 q 570 132 529 133 q 812 193 770 132 q 828 418 875 285 q 469 509 786 538 l 467 135 m 396 -11 q 335 52 334 -11 q 338 899 336 475 l 117 895 q 29 956 32 893 q 85 1027 26 1027 l 388 1031 q 439 1021 420 1032 q 471 956 472 1005 l 469 644 q 507 644 473 644 q 905 549 825 648 q 924 114 1052 369 q 657 0 878 18 q 425 -7 480 -14 q 396 -11 412 -11 z "},"Ы":{"ha":1493,"x_min":120,"x_max":1432,"o":"m 854 1013 l 1348 1013 q 1432 940 1430 1013 q 1344 873 1433 873 l 1141 873 l 1122 112 l 1339 112 q 1422 39 1421 112 q 1335 -28 1423 -28 l 838 -28 q 753 48 753 -28 q 844 112 753 113 l 989 112 l 1008 873 l 848 873 q 762 949 762 873 q 854 1013 762 1013 m 181 -11 q 120 52 119 -11 l 123 954 q 184 1028 123 1027 q 256 956 257 1029 l 254 644 q 292 644 258 644 q 690 549 610 648 q 709 114 837 369 q 442 0 663 18 q 210 -7 265 -14 q 181 -11 197 -11 m 252 135 q 355 132 314 133 q 597 193 555 132 q 613 418 660 285 q 254 509 571 538 l 252 135 z "},"Ь":{"ha":840,"x_min":120,"x_max":709,"o":"m 181 -11 q 120 52 119 -11 l 123 954 q 184 1028 123 1027 q 256 956 257 1029 l 254 644 q 292 644 258 644 q 690 549 610 648 q 709 114 837 369 q 442 0 663 18 q 210 -7 265 -14 q 181 -11 197 -11 m 252 135 q 355 132 314 133 q 597 193 555 132 q 613 418 660 285 q 254 509 571 538 l 252 135 z "},"Э":{"ha":909,"x_min":88,"x_max":817,"o":"m 500 842 q 614 718 564 800 q 664 555 652 652 l 313 569 q 238 509 242 572 q 305 441 234 445 l 668 424 q 605 218 661 302 q 467 138 553 142 q 278 174 345 133 q 144 227 182 235 q 88 125 78 215 q 224 23 94 75 q 457 -16 332 -20 q 719 116 620 -12 q 817 448 817 243 q 726 819 817 692 q 446 1025 593 1002 q 191 991 304 1046 q 102 909 105 947 q 126 836 100 861 q 225 827 174 793 q 332 871 272 858 q 500 842 422 892 z "},"Ю":{"ha":1570,"x_min":108,"x_max":1511,"o":"m 1100 1025 q 1511 596 1512 1021 q 1346 125 1510 322 q 994 -43 1206 -43 q 636 115 779 -43 q 538 389 538 223 q 539 429 538 409 l 250 429 l 241 15 q 167 -58 240 -59 q 108 16 106 -56 l 130 1000 q 194 1063 132 1062 q 263 996 264 1063 l 254 579 l 563 579 q 715 864 604 734 q 1100 1025 857 1028 m 1108 890 q 846 793 956 901 q 681 390 681 634 q 756 189 681 267 q 994 97 844 97 q 1222 197 1139 97 q 1375 595 1372 376 q 1108 890 1379 872 z "},"Я":{"ha":873,"x_min":126,"x_max":798,"o":"m 136 0 q 260 51 185 -27 l 595 399 q 618 398 606 399 q 655 399 638 397 l 663 19 q 738 -54 665 -55 q 798 20 799 -52 l 774 1004 q 711 1067 773 1066 q 684 1064 696 1067 q 519 1059 625 1075 q 203 851 283 1023 q 276 503 123 680 q 431 423 321 450 l 126 126 q 136 0 47 50 m 644 913 l 652 533 q 347 625 422 507 q 329 797 284 721 q 549 920 408 931 q 644 913 600 917 z "},"а":{"ha":711,"x_min":35,"x_max":660,"o":"m 342 -38 q 35 288 37 -39 q 175 616 33 500 q 515 693 338 749 q 576 701 535 710 q 642 595 658 682 q 623 307 627 511 q 660 76 621 144 q 644 -38 718 -23 q 545 34 559 -56 q 342 -38 405 -37 m 420 98 q 505 157 445 107 q 512 558 481 448 q 374 582 446 600 q 294 547 324 570 q 168 300 174 460 q 310 83 170 93 q 420 98 369 79 z "},"б":{"ha":730,"x_min":46,"x_max":685,"o":"m 149 794 q 435 1006 245 1014 q 573 1031 541 1002 q 675 1035 630 1079 q 685 939 718 991 q 581 884 652 886 q 370 856 422 882 q 221 637 260 803 q 404 699 267 701 q 661 323 661 696 q 359 -37 661 -35 q 46 294 53 -40 q 149 794 40 547 m 387 563 q 184 317 184 563 q 355 82 184 82 q 531 317 530 82 q 387 563 530 563 z "},"в":{"ha":700,"x_min":89,"x_max":631,"o":"m 216 593 l 209 405 q 449 437 397 385 q 454 545 503 491 q 294 592 419 585 l 216 593 m 160 714 q 183 711 173 714 q 319 707 230 720 q 583 559 558 672 q 528 373 609 444 q 499 353 515 362 q 546 331 529 343 q 631 110 678 236 q 437 -3 604 39 q 150 -27 285 -40 q 138 -28 144 -28 q 89 34 87 -26 l 107 662 q 160 714 109 714 m 261 294 q 237 292 250 293 q 206 293 220 292 l 201 73 q 385 98 268 77 q 511 137 491 118 q 475 257 568 194 q 283 291 452 273 q 261 294 271 292 z "},"г":{"ha":653,"x_min":94,"x_max":636,"o":"m 157 709 q 186 707 174 711 q 557 713 372 711 q 636 654 633 715 q 563 579 639 579 l 225 581 l 251 46 q 186 -31 255 -28 q 117 42 119 -33 l 94 625 q 157 709 91 703 z "},"д":{"ha":823,"x_min":23,"x_max":790,"o":"m 625 722 q 694 658 694 723 l 692 132 q 706 132 699 132 q 789 64 788 132 q 788 47 789 55 q 790 17 790 34 l 790 -111 q 728 -177 790 -178 q 659 -117 660 -176 q 658 1 659 -58 l 157 1 l 157 -111 q 95 -177 157 -178 q 26 -117 27 -176 l 25 32 q 25 41 25 37 q 23 62 23 51 q 94 132 24 132 l 95 132 q 216 627 218 290 q 224 675 216 656 q 262 710 227 702 q 289 715 274 714 q 310 713 300 715 l 600 718 q 625 722 610 722 m 349 576 q 238 132 338 313 l 555 132 l 557 581 l 356 576 q 349 576 352 576 z "},"е":{"ha":761,"x_min":60,"x_max":722,"o":"m 176 294 q 245 159 179 217 q 416 93 321 92 q 602 147 554 94 q 676 204 647 198 q 722 184 709 211 q 692 66 754 121 q 408 -29 584 -31 q 181 52 278 -28 q 60 321 60 151 q 136 570 60 460 q 382 715 231 706 q 627 638 538 725 q 707 453 710 557 q 631 359 704 370 l 176 294 m 191 406 l 589 464 q 528 556 579 523 q 401 593 468 594 q 239 510 307 593 q 191 406 210 473 z "},"ж":{"ha":948,"x_min":50,"x_max":875,"o":"m 461 -13 q 410 37 410 -13 q 408 336 409 186 q 155 25 316 332 q 81 -6 131 -21 q 50 75 23 12 q 274 385 146 301 q 215 454 234 412 q 104 610 144 611 q 60 654 67 609 q 137 703 52 696 q 281 532 223 709 q 407 460 303 466 q 406 675 406 568 q 463 718 406 718 q 523 675 524 718 q 522 460 522 568 q 644 532 623 467 q 788 703 702 708 q 865 654 873 696 q 821 610 858 609 q 711 454 781 611 q 651 384 691 411 q 875 75 779 300 q 844 -6 902 12 q 770 25 795 -21 q 521 337 611 329 l 519 37 q 461 -13 519 -13 z "},"з":{"ha":610,"x_min":43,"x_max":551,"o":"m 313 418 q 244 342 237 395 q 327 294 249 300 q 431 194 428 288 q 339 91 434 101 q 183 121 233 79 q 102 161 132 163 q 43 96 47 159 q 98 24 42 64 q 387 -24 227 -67 q 551 146 541 18 q 519 307 559 250 q 453 374 487 354 q 513 448 507 433 q 494 620 553 543 q 312 711 428 705 q 127 671 208 715 q 70 578 66 637 q 114 532 73 537 q 212 578 134 530 q 323 591 256 604 q 406 519 406 574 q 313 418 406 446 z "},"и":{"ha":884,"x_min":68,"x_max":779,"o":"m 129 710 q 202 644 201 712 l 216 200 l 620 675 q 648 699 633 691 q 686 710 663 709 q 760 644 758 712 l 779 60 q 713 -35 781 -33 q 640 56 643 -37 l 629 491 l 208 -7 q 196 -21 203 -16 q 193 -25 194 -23 q 129 -31 164 -60 q 83 56 85 -17 l 68 640 q 129 710 66 708 z "},"й":{"ha":884,"x_min":68,"x_max":779,"o":"m 414 892 q 593 991 559 889 q 671 1067 623 1084 q 696 969 723 1048 q 411 794 635 793 q 140 952 202 795 q 160 1066 100 1055 q 235 1003 221 1078 q 414 892 255 897 m 129 710 q 202 644 201 712 l 216 200 l 620 675 q 648 699 633 691 q 686 710 663 709 q 760 644 758 712 l 779 60 q 713 -35 781 -33 q 640 56 643 -37 l 629 491 l 208 -7 q 196 -21 203 -16 q 193 -25 194 -23 q 129 -31 164 -60 q 83 56 85 -17 l 68 640 q 129 710 66 708 z "},"к":{"ha":684,"x_min":100,"x_max":640,"o":"m 156 -13 q 104 37 104 -13 l 100 675 q 158 718 100 718 q 218 675 218 718 l 216 460 q 393 513 375 463 q 562 703 465 709 q 640 654 647 696 q 607 602 630 602 q 485 444 556 604 q 432 382 469 408 q 623 151 538 311 q 618 -6 694 16 q 511 65 556 -24 q 282 329 402 281 q 216 321 252 324 q 214 37 215 179 q 156 -13 214 -13 z "},"л":{"ha":899,"x_min":19,"x_max":802,"o":"m 732 720 q 800 647 800 718 l 802 71 q 733 -24 803 -26 q 669 73 669 -24 l 666 587 l 353 587 l 355 319 q 111 -24 358 -18 q 19 28 27 -26 q 121 110 7 107 q 224 321 227 113 l 221 651 q 294 720 220 722 q 307 719 301 720 q 699 720 503 719 q 713 719 706 720 q 732 720 722 720 z "},"м":{"ha":1020,"x_min":35,"x_max":971,"o":"m 294 480 l 151 26 q 67 -28 127 -47 q 35 62 12 -12 l 222 656 q 294 711 240 713 q 367 656 349 713 l 503 222 l 640 656 q 712 711 658 713 q 785 656 766 713 l 971 62 q 939 -28 994 -12 q 856 26 879 -47 l 712 480 l 568 26 q 503 -32 549 -36 q 438 26 458 -35 l 294 480 z "},"н":{"ha":777,"x_min":54,"x_max":698,"o":"m 126 747 q 195 680 196 745 l 191 415 q 560 420 376 418 l 562 683 q 629 747 563 748 q 698 680 699 745 l 688 25 q 614 -36 688 -39 q 557 31 556 -34 l 559 291 l 190 283 q 186 25 188 155 q 111 -36 185 -39 q 54 31 54 -34 l 60 683 q 126 747 60 748 z "},"о":{"ha":821,"x_min":56,"x_max":658,"o":"m 389 573 q 256 511 300 571 q 189 309 189 419 q 237 149 189 202 q 353 95 288 95 q 477 149 427 95 q 532 334 531 207 q 389 573 532 576 m 384 711 q 658 321 659 709 q 585 69 657 155 q 336 -33 503 -35 q 132 67 216 -33 q 56 321 56 157 q 146 595 56 475 q 384 711 236 713 z "},"п":{"ha":899,"x_min":148,"x_max":802,"o":"m 216 701 q 227 701 221 701 q 229 701 228 701 l 723 701 q 730 701 726 701 q 734 701 732 701 q 799 638 799 703 l 802 41 q 734 -31 802 -31 q 667 41 667 -31 q 666 566 667 304 l 281 566 l 283 41 q 216 -31 283 -31 q 149 41 149 -31 l 148 633 q 216 701 148 698 z "},"р":{"ha":743,"x_min":84,"x_max":688,"o":"m 153 -387 q 84 -319 83 -387 l 106 662 q 180 734 107 736 q 232 695 215 734 q 391 720 266 722 q 600 623 511 720 q 688 403 688 529 q 609 121 689 220 q 388 0 519 9 q 227 37 272 -9 q 224 38 226 37 l 216 -323 q 153 -387 215 -387 m 237 548 l 229 197 q 370 129 294 123 q 522 212 471 136 q 568 370 566 277 q 517 523 569 458 q 385 590 472 578 q 237 548 293 602 z "},"с":{"ha":713,"x_min":64,"x_max":648,"o":"m 550 143 q 648 119 610 183 q 612 31 670 81 q 378 -33 538 -33 q 168 49 252 -32 q 64 300 64 149 q 138 574 64 467 q 366 713 228 703 q 513 698 447 720 q 623 628 595 670 q 618 530 664 563 q 520 555 586 507 q 340 583 441 614 q 239 500 284 565 q 185 329 187 425 q 238 163 183 238 q 378 92 288 96 q 550 143 470 89 z "},"т":{"ha":654,"x_min":43,"x_max":614,"o":"m 134 716 l 525 716 q 614 645 613 716 q 525 578 616 578 q 401 577 463 578 q 399 30 400 303 q 325 -43 399 -44 q 265 31 265 -41 q 268 576 267 304 l 128 576 q 43 652 43 575 q 134 716 43 716 z "},"у":{"ha":723,"x_min":16,"x_max":682,"o":"m 651 698 q 682 590 716 670 l 294 -303 q 188 -387 248 -412 q 163 -250 117 -358 l 298 62 l 16 584 q 33 696 -27 664 q 138 649 96 730 l 366 217 l 551 645 q 651 698 586 725 z "},"ф":{"ha":1125,"x_min":57,"x_max":1084,"o":"m 574 -387 q 503 -319 503 -387 q 503 3 503 -158 q 355 -20 429 -26 q 144 83 221 -12 q 57 386 49 199 q 168 620 63 522 q 361 696 254 699 q 501 655 435 694 q 501 662 501 659 q 574 734 501 736 q 635 661 635 733 l 635 652 q 779 696 704 694 q 972 620 886 700 q 1084 386 1078 522 q 997 83 1092 212 q 785 -20 929 -10 q 635 5 709 -26 l 635 -323 q 574 -387 635 -385 m 635 502 l 635 159 q 775 106 700 100 q 911 179 861 114 q 964 353 964 247 q 911 500 963 446 q 755 566 842 574 q 635 502 689 561 m 503 156 l 501 507 q 386 566 449 561 q 229 500 298 574 q 177 353 178 446 q 229 179 177 248 q 366 106 280 114 q 503 156 439 100 z "},"х":{"ha":820,"x_min":81,"x_max":722,"o":"m 81 696 q 194 667 133 737 l 401 429 l 609 667 q 722 696 670 738 q 720 591 777 653 l 487 334 l 702 100 q 715 -18 768 28 q 603 12 667 -60 l 401 237 l 200 12 q 87 -18 136 -60 q 101 100 34 28 l 319 332 l 83 591 q 81 696 26 653 z "},"ц":{"ha":859,"x_min":120,"x_max":817,"o":"m 677 720 q 746 647 746 718 l 746 109 q 809 75 802 102 q 812 61 811 68 q 817 33 817 49 l 817 -99 q 755 -170 817 -172 q 684 -100 685 -169 l 684 -20 l 188 -20 q 123 55 119 -20 q 123 58 123 56 q 121 90 121 73 l 120 651 q 192 720 120 722 q 261 647 261 718 l 261 113 l 606 113 q 605 651 606 382 q 677 720 605 722 z "},"ч":{"ha":741,"x_min":54,"x_max":664,"o":"m 594 -35 q 525 33 524 -35 q 527 244 526 138 q 362 206 462 208 q 60 444 65 202 l 54 649 q 119 736 52 730 q 187 661 184 743 l 193 491 q 331 335 198 328 q 528 436 481 344 q 530 667 529 551 q 605 740 532 741 q 664 665 665 739 l 658 28 q 594 -35 656 -35 z "},"ш":{"ha":1072,"x_min":80,"x_max":996,"o":"m 927 720 q 996 647 996 718 l 996 87 q 991 43 996 62 q 908 -20 994 -20 l 148 -20 q 83 55 79 -20 q 83 58 83 56 q 81 90 81 73 l 80 651 q 152 720 80 722 q 221 647 221 718 l 221 113 q 471 113 346 113 l 470 651 q 542 720 470 722 q 611 647 611 718 l 611 113 l 856 113 q 855 651 856 382 q 927 720 855 722 z "},"щ":{"ha":1101,"x_min":80,"x_max":1086,"o":"m 152 720 q 221 647 221 718 l 221 113 l 471 113 q 470 651 471 382 q 542 720 470 722 q 611 647 611 718 l 611 113 l 856 113 l 855 651 q 927 720 855 722 q 996 647 996 718 l 996 112 q 1082 75 1072 107 q 1086 28 1089 48 l 1086 -152 q 1025 -223 1086 -224 q 954 -153 954 -222 q 954 -20 954 -86 l 148 -20 q 83 55 79 -20 q 83 58 83 56 q 81 90 81 73 l 80 651 q 152 720 80 722 z "},"ъ":{"ha":863,"x_min":15,"x_max":806,"o":"m 416 112 q 540 112 496 111 q 697 219 696 120 q 625 330 700 302 q 422 336 566 353 l 416 112 m 347 -9 q 298 43 296 -9 l 310 614 q 75 617 192 615 q 15 677 14 618 q 80 735 16 736 l 353 732 q 355 732 354 732 q 363 733 359 733 q 429 673 430 734 l 424 452 q 494 458 467 458 q 787 366 734 459 q 806 123 864 234 q 609 0 753 20 q 371 -6 513 -14 q 347 -9 361 -9 z "},"ы":{"ha":1098,"x_min":93,"x_max":1040,"o":"m 676 709 l 972 709 q 1040 646 1039 709 q 972 588 1042 589 l 905 587 q 903 117 905 352 l 972 117 q 1040 54 1039 117 q 972 -3 1042 -3 l 670 -5 q 606 56 606 -6 q 676 117 606 117 l 770 117 q 773 587 771 352 l 670 586 q 606 647 606 585 q 676 709 606 709 m 142 -9 q 93 43 92 -9 l 106 671 q 159 733 108 732 q 224 673 225 734 l 219 452 q 289 458 262 458 q 582 366 529 459 q 601 123 659 234 q 404 0 548 20 q 166 -6 308 -14 q 142 -9 156 -9 l 142 -9 m 212 112 q 335 112 292 111 q 492 219 491 120 q 420 330 495 302 q 218 336 361 353 l 212 112 z "},"ь":{"ha":683,"x_min":93,"x_max":601,"o":"m 142 -9 q 93 43 92 -9 l 106 671 q 159 733 108 732 q 224 673 225 734 l 219 452 q 289 458 262 458 q 582 366 529 459 q 601 123 659 234 q 404 0 548 20 q 166 -6 308 -14 q 142 -9 156 -9 l 142 -9 m 212 112 q 335 112 292 111 q 492 219 491 120 q 420 330 495 302 q 218 336 361 353 l 212 112 z "},"э":{"ha":713,"x_min":78,"x_max":652,"o":"m 192 116 q 347 104 243 94 q 479 183 418 110 q 520 279 511 222 l 314 283 q 243 338 242 284 q 316 406 244 408 l 518 403 q 487 509 509 471 q 397 574 456 561 q 237 574 296 596 q 115 559 151 542 q 90 621 74 578 q 206 703 114 682 q 399 710 294 724 q 593 584 525 694 q 652 299 652 488 q 549 51 652 142 q 349 -24 473 -16 q 147 -10 227 -33 q 78 75 64 13 q 192 116 96 157 z "},"ю":{"ha":1253,"x_min":54,"x_max":1196,"o":"m 864 739 q 1196 338 1196 736 q 1069 55 1195 188 q 806 -41 976 -41 q 559 73 669 -41 q 471 273 486 148 l 186 273 l 179 37 q 113 -35 176 -37 q 54 39 51 -34 l 72 699 q 136 762 75 760 q 197 694 198 762 l 189 397 l 471 397 q 576 615 488 514 q 864 739 688 740 m 871 593 q 709 528 763 591 q 627 326 627 431 q 687 158 627 213 q 820 104 745 104 q 972 161 894 104 q 1043 353 1043 212 q 871 593 1043 597 z "},"я":{"ha":702,"x_min":66,"x_max":619,"o":"m 75 -22 q 182 18 110 -41 l 419 212 q 469 210 443 212 q 501 211 487 210 l 505 33 q 568 -24 505 -25 q 619 34 621 -23 l 604 658 q 549 708 602 707 q 526 705 536 708 q 384 701 477 713 q 92 522 158 671 q 141 290 35 389 q 277 230 188 248 l 66 77 q 75 -22 -11 22 m 492 586 l 499 317 q 206 407 259 296 q 240 525 182 458 q 401 583 289 580 q 492 586 491 585 z "},"ё":{"ha":761,"x_min":60,"x_max":722,"o":"m 585 924 q 669 861 669 924 q 584 799 669 799 q 505 859 505 799 q 585 924 505 924 m 243 924 q 326 861 326 924 q 241 799 326 799 q 163 859 163 799 q 243 924 163 924 m 176 294 q 245 159 179 217 q 416 93 321 92 q 602 147 554 94 q 676 204 647 198 q 722 184 709 211 q 692 66 754 121 q 408 -29 584 -31 q 181 52 278 -28 q 60 321 60 151 q 136 570 60 460 q 382 715 231 706 q 627 638 538 725 q 707 453 710 557 q 631 359 704 370 l 176 294 m 191 406 l 589 464 q 528 556 579 523 q 401 593 468 594 q 239 510 307 593 q 191 406 210 473 z "},"ђ":{"ha":778,"x_min":-46,"x_max":693,"o":"m 186 1092 q 255 1025 256 1092 l 253 926 l 503 928 q 558 874 558 928 q 503 823 558 823 q 250 819 377 821 q 246 633 248 726 q 441 702 321 703 q 693 393 696 701 l 690 60 q 382 -271 688 -319 q 320 -191 317 -260 q 436 -134 323 -123 q 555 47 555 -146 l 553 344 q 443 545 553 543 q 241 385 286 549 l 233 43 q 159 -29 232 -31 q 100 45 98 -28 l 117 817 l 7 816 q -46 873 -49 815 q 13 926 -43 926 l 120 926 q 122 1029 121 978 q 186 1092 123 1090 z "},"ѓ":{"ha":653,"x_min":94,"x_max":636,"o":"m 493 1097 q 503 1012 544 1057 l 342 836 q 244 808 283 770 q 263 913 208 844 l 404 1090 q 493 1097 443 1138 m 157 709 q 186 707 174 711 q 557 713 372 711 q 636 654 633 715 q 563 579 639 579 l 225 581 l 251 46 q 186 -31 255 -28 q 117 42 119 -33 l 94 625 q 157 709 91 703 z "},"є":{"ha":713,"x_min":54,"x_max":627,"o":"m 513 116 q 627 75 609 157 q 558 -10 642 13 q 357 -24 479 -33 q 157 51 233 -16 q 54 299 54 142 q 113 584 54 488 q 306 710 180 694 q 499 703 410 724 q 615 621 591 682 q 591 559 631 578 q 469 574 554 542 q 308 574 409 596 q 218 509 249 561 q 187 403 196 471 l 389 406 q 463 338 461 408 q 391 283 463 284 l 185 279 q 227 183 194 222 q 359 104 288 110 q 513 116 463 94 z "},"ѕ":{"ha":676,"x_min":28,"x_max":622,"o":"m 266 98 q 452 137 418 87 q 422 241 479 180 q 250 300 384 281 q 90 407 111 320 q 100 545 73 475 q 186 664 130 623 q 342 721 254 713 q 515 693 441 730 q 622 584 612 646 q 597 518 628 543 q 479 562 558 486 q 363 597 440 600 q 242 547 281 593 q 222 467 209 509 q 317 421 235 430 q 436 389 381 414 q 540 319 511 354 q 598 151 608 236 q 503 7 587 63 q 323 -39 435 -39 q 168 -23 228 -40 q 79 18 132 -13 q 28 85 31 45 q 57 151 26 130 q 144 142 95 176 q 266 98 203 102 z "},"і":{"ha":389,"x_min":125,"x_max":298,"o":"m 212 1018 q 214 1018 213 1018 q 257 1006 237 1018 q 289 972 278 994 q 298 933 298 954 q 298 926 298 930 q 281 882 296 902 q 252 857 268 865 q 214 849 235 848 q 210 849 212 849 q 171 861 189 850 q 141 890 153 871 q 130 933 130 910 q 140 974 130 955 q 170 1006 152 994 q 212 1018 189 1018 m 207 710 q 270 622 271 709 l 260 58 q 195 -34 259 -34 q 125 52 123 -33 l 136 621 q 207 710 138 711 z "},"ї":{"ha":389,"x_min":-43,"x_max":463,"o":"m 379 919 q 463 856 463 919 q 378 794 463 794 q 299 854 299 794 q 379 919 299 919 m 37 919 q 120 856 120 919 q 35 794 120 794 q -43 854 -43 794 q 37 919 -43 919 m 207 710 q 270 622 271 709 l 260 58 q 195 -34 259 -34 q 125 52 123 -33 l 136 621 q 207 710 138 711 z "}}}
